<?xml version="1.0" encoding="utf-8"?>
<!-- Generator: Adobe Illustrator 13.0.0, SVG Export Plug-In . SVG Version: 6.00 Build 14948)  -->
<!DOCTYPE svg PUBLIC "-//W3C//DTD SVG 1.1//EN" "http://www.w3.org/Graphics/SVG/1.1/DTD/svg11.dtd">
<svg version="1.1" id="Layer_1" xmlns="http://www.w3.org/2000/svg" xmlns:xlink="http://www.w3.org/1999/xlink" x="0px" y="0px"
	 width="65px" height="23px" viewBox="0 0 65 23" enable-background="new 0 0 65 23" xml:space="preserve">
<g>
	<path fill="#0277BD" d="M11.467,15.583l-9.854-4.327v-1.005l9.854-4.911v1.527l-8.019,3.805l8.019,3.363V15.583z"/>
	<path fill="#0277BD" d="M20.07,3.073h4.235c1.989,0,3.428,0.298,4.317,0.892c0.889,0.596,1.333,1.535,1.333,2.82
		c0,0.889-0.248,1.622-0.743,2.199c-0.496,0.578-1.219,0.952-2.169,1.123v0.103c2.276,0.39,3.415,1.586,3.415,3.589
		c0,1.34-0.453,2.386-1.359,3.138s-2.172,1.128-3.799,1.128H20.07V3.073z M21.813,9.492h2.871c1.23,0,2.116-0.193,2.656-0.579
		c0.54-0.387,0.81-1.037,0.81-1.954c0-0.84-0.301-1.447-0.902-1.819c-0.602-0.373-1.559-0.56-2.871-0.56h-2.563V9.492z
		 M21.813,10.969v5.609h3.127c1.21,0,2.121-0.234,2.733-0.703c0.611-0.468,0.917-1.201,0.917-2.199c0-0.93-0.313-1.613-0.938-2.051
		c-0.626-0.438-1.578-0.656-2.856-0.656H21.813z"/>
	<path fill="#0277BD" d="M40.332,18.064l-0.339-1.6h-0.082c-0.561,0.704-1.12,1.181-1.677,1.431
		c-0.557,0.249-1.252,0.374-2.086,0.374c-1.115,0-1.988-0.287-2.621-0.861c-0.632-0.574-0.948-1.391-0.948-2.451
		c0-2.269,1.815-3.458,5.445-3.568l1.907-0.061v-0.697c0-0.883-0.189-1.533-0.568-1.954c-0.381-0.42-0.986-0.63-1.82-0.63
		c-0.938,0-1.996,0.287-3.18,0.861l-0.522-1.303c0.554-0.301,1.16-0.536,1.819-0.707c0.66-0.171,1.322-0.257,1.984-0.257
		c1.34,0,2.334,0.298,2.979,0.892c0.646,0.596,0.97,1.549,0.97,2.861v7.67H40.332z M36.486,16.865c1.06,0,1.893-0.291,2.496-0.872
		c0.605-0.581,0.908-1.395,0.908-2.44v-1.016l-1.702,0.072c-1.354,0.048-2.329,0.258-2.927,0.631
		c-0.6,0.372-0.898,0.952-0.898,1.738c0,0.615,0.187,1.083,0.559,1.404C35.295,16.704,35.816,16.865,36.486,16.865z"/>
	<path fill="#0277BD" d="M49.591,18.27c-1.627,0-2.886-0.501-3.778-1.502c-0.893-1.002-1.338-2.418-1.338-4.25
		c0-1.88,0.452-3.333,1.357-4.358c0.906-1.025,2.197-1.538,3.871-1.538c0.541,0,1.08,0.059,1.621,0.174
		c0.539,0.117,0.963,0.254,1.271,0.41l-0.523,1.446c-0.376-0.15-0.786-0.275-1.23-0.374c-0.444-0.1-0.838-0.148-1.18-0.148
		c-2.283,0-3.424,1.455-3.424,4.367c0,1.382,0.277,2.441,0.836,3.18c0.557,0.738,1.382,1.107,2.476,1.107
		c0.937,0,1.897-0.202,2.882-0.605v1.508C51.68,18.074,50.732,18.27,49.591,18.27z"/>
	<path fill="#0277BD" d="M56.779,12.313c0.293-0.417,0.741-0.965,1.343-1.641l3.63-3.846h2.02l-4.553,4.789l4.871,6.449h-2.061
		l-3.969-5.312l-1.281,1.107v4.204h-1.682V2.109h1.682v8.459c0,0.377-0.027,0.958-0.082,1.744H56.779z"/>
</g>
</svg>
