<?xml version="1.0" encoding="utf-8"?>
<!-- Generator: Adobe Illustrator 13.0.0, SVG Export Plug-In . SVG Version: 6.00 Build 14948)  -->
<!DOCTYPE svg PUBLIC "-//W3C//DTD SVG 1.1//EN" "http://www.w3.org/Graphics/SVG/1.1/DTD/svg11.dtd">
<svg version="1.1" id="Layer_1" xmlns="http://www.w3.org/2000/svg" xmlns:xlink="http://www.w3.org/1999/xlink" x="0px" y="0px"
	 width="100px" height="100px" viewBox="0 0 100 100" enable-background="new 0 0 100 100" xml:space="preserve">
<g>
	<path fill="#FFFFFF" d="M53.376,61.171v5.09h-1.423V54.021h3.355c1.502,0,2.61,0.287,3.328,0.862
		c0.717,0.574,1.075,1.439,1.075,2.595c0,1.619-0.819,2.713-2.461,3.281l3.323,5.5h-1.684l-2.963-5.09L53.376,61.171L53.376,61.171z
		 M53.376,59.949h1.95c1.005,0,1.74-0.199,2.21-0.6c0.469-0.399,0.702-0.998,0.702-1.795c0-0.81-0.237-1.394-0.715-1.75
		s-1.242-0.535-2.297-0.535h-1.852L53.376,59.949L53.376,59.949z"/>
	<path fill="#FFFFFF" d="M67.982,66.261l-0.275-1.306h-0.066c-0.457,0.574-0.914,0.964-1.369,1.168
		c-0.455,0.203-1.021,0.305-1.703,0.305c-0.909,0-1.623-0.234-2.139-0.703c-0.517-0.469-0.773-1.135-0.773-2
		c0-1.853,1.48-2.824,4.443-2.912l1.559-0.052v-0.569c0-0.719-0.155-1.25-0.465-1.594c-0.311-0.344-0.805-0.516-1.485-0.516
		c-0.765,0-1.63,0.234-2.597,0.703l-0.426-1.063c0.451-0.246,0.946-0.438,1.485-0.578c0.538-0.141,1.078-0.209,1.619-0.209
		c1.094,0,1.903,0.241,2.433,0.729c0.526,0.484,0.791,1.264,0.791,2.335v6.262H67.982z M64.846,65.281
		c0.863,0,1.543-0.237,2.037-0.713c0.494-0.473,0.741-1.137,0.741-1.991v-0.828l-1.39,0.06c-1.105,0.039-1.902,0.211-2.392,0.515
		s-0.731,0.776-0.731,1.419c0,0.502,0.152,0.885,0.455,1.146C63.872,65.15,64.298,65.281,64.846,65.281z"/>
	<path fill="#FFFFFF" d="M74.839,65.281c0.246,0,0.481-0.018,0.712-0.055c0.229-0.037,0.41-0.074,0.545-0.112v1.063
		c-0.15,0.073-0.373,0.134-0.666,0.181s-0.558,0.07-0.791,0.07c-1.775,0-2.662-0.935-2.662-2.804v-5.458h-1.313v-0.67l1.313-0.577
		l0.586-1.959h0.804v2.126h2.661v1.08h-2.661v5.398c0,0.554,0.132,0.978,0.394,1.272C74.021,65.134,74.381,65.281,74.839,65.281z"/>
	<path fill="#FFFFFF" d="M81.805,66.428c-1.355,0-2.427-0.412-3.211-1.238c-0.783-0.825-1.176-1.973-1.176-3.439
		c0-1.479,0.364-2.654,1.092-3.523c0.729-0.871,1.707-1.307,2.936-1.307c1.148,0,2.06,0.378,2.729,1.135
		c0.67,0.756,1.006,1.754,1.006,2.992v0.879h-6.32c0.027,1.077,0.3,1.895,0.815,2.452c0.517,0.56,1.243,0.838,2.181,0.838
		c0.987,0,1.965-0.207,2.931-0.62v1.239c-0.491,0.212-0.956,0.364-1.394,0.456C82.952,66.382,82.424,66.428,81.805,66.428z
		 M81.428,58.082c-0.736,0-1.324,0.24-1.763,0.72c-0.438,0.48-0.696,1.146-0.774,1.993h4.797c0-0.877-0.194-1.548-0.586-2.014
		C82.711,58.314,82.152,58.082,81.428,58.082z"/>
	<path fill="#FFFFFF" d="M70.025,77.658v5.951c0,0.748,0.17,1.307,0.512,1.675c0.34,0.368,0.873,0.553,1.6,0.553
		c0.959,0,1.661-0.263,2.104-0.787c0.442-0.524,0.665-1.381,0.665-2.569v-4.821h1.39v9.175H75.15l-0.201-1.23h-0.075
		c-0.284,0.453-0.681,0.799-1.185,1.039C73.184,86.88,72.607,87,71.96,87c-1.116,0-1.952-0.266-2.507-0.795
		c-0.557-0.53-0.833-1.378-0.833-2.545v-6.002H70.025L70.025,77.658z"/>
	<path fill="#FFFFFF" d="M85.161,84.33c0,0.854-0.318,1.513-0.954,1.977C83.57,86.77,82.678,87,81.527,87
		c-1.217,0-2.166-0.191-2.846-0.577v-1.289c0.44,0.224,0.914,0.399,1.418,0.527c0.506,0.128,0.992,0.192,1.461,0.192
		c0.727,0,1.283-0.115,1.674-0.349c0.392-0.231,0.586-0.584,0.586-1.06c0-0.356-0.153-0.662-0.463-0.916
		c-0.311-0.254-0.914-0.555-1.813-0.899c-0.854-0.317-1.461-0.596-1.819-0.833c-0.361-0.236-0.629-0.507-0.805-0.808
		c-0.176-0.302-0.264-0.661-0.264-1.08c0-0.748,0.304-1.339,0.912-1.771c0.607-0.434,1.441-0.648,2.502-0.648
		c0.988,0,1.953,0.199,2.896,0.603l-0.494,1.13c-0.92-0.379-1.755-0.568-2.502-0.568c-0.658,0-1.156,0.104-1.49,0.31
		c-0.336,0.207-0.502,0.491-0.502,0.854c0,0.244,0.063,0.455,0.188,0.627c0.125,0.174,0.327,0.338,0.605,0.494
		c0.279,0.155,0.815,0.383,1.607,0.679c1.088,0.396,1.823,0.795,2.206,1.196C84.971,83.217,85.161,83.723,85.161,84.33z"/>
	<path fill="#FFFFFF" d="M87.221,85.945c0-0.76,0.336-1.139,1.006-1.139c0.322,0,0.572,0.098,0.748,0.293s0.264,0.478,0.264,0.846
		c0,0.356-0.09,0.636-0.268,0.832c-0.179,0.199-0.428,0.299-0.744,0.299c-0.291,0-0.531-0.088-0.722-0.264
		S87.221,86.348,87.221,85.945z M88.678,83.46h-0.88l-0.427-8.864h1.732L88.678,83.46z"/>
</g>
<g>
	<polyline fill="#EF6C00" points="99.5,-0.5 99.5,99.5 -0.5,99.5 	"/>
	<g>
		<path fill="#FFFFFF" d="M54.411,65.62h-1.423V53.382h6.821v1.264h-5.398v4.479h5.072v1.264h-5.072V65.62z"/>
		<path fill="#FFFFFF" d="M65.502,65.787c-1.356,0-2.426-0.413-3.211-1.239c-0.783-0.825-1.176-1.973-1.176-3.44
			c0-1.479,0.364-2.653,1.092-3.523c0.729-0.871,1.708-1.307,2.936-1.307c1.149,0,2.06,0.379,2.729,1.135
			c0.67,0.757,1.005,1.754,1.005,2.992v0.879h-6.321c0.028,1.077,0.3,1.895,0.817,2.453c0.515,0.558,1.242,0.837,2.18,0.837
			c0.988,0,1.965-0.206,2.93-0.619v1.238c-0.491,0.213-0.956,0.364-1.393,0.457C66.649,65.74,66.121,65.787,65.502,65.787z
			 M65.126,57.441c-0.736,0-1.324,0.24-1.764,0.72c-0.438,0.48-0.695,1.145-0.773,1.992h4.797c0-0.876-0.195-1.547-0.586-2.014
			C66.409,57.675,65.852,57.441,65.126,57.441z"/>
		<path fill="#FFFFFF" d="M75.121,65.787c-1.356,0-2.428-0.413-3.211-1.239c-0.785-0.825-1.176-1.973-1.176-3.44
			c0-1.479,0.363-2.653,1.092-3.523c0.728-0.871,1.706-1.307,2.934-1.307c1.149,0,2.06,0.379,2.729,1.135
			c0.669,0.757,1.004,1.754,1.004,2.992v0.879h-6.319c0.028,1.077,0.3,1.895,0.815,2.453c0.517,0.558,1.244,0.837,2.182,0.837
			c0.988,0,1.965-0.206,2.93-0.619v1.238c-0.491,0.213-0.956,0.364-1.395,0.457C76.269,65.74,75.74,65.787,75.121,65.787z
			 M74.743,57.441c-0.736,0-1.324,0.24-1.762,0.72c-0.438,0.48-0.695,1.145-0.773,1.992h4.795c0-0.876-0.195-1.547-0.586-2.014
			C76.026,57.675,75.469,57.441,74.743,57.441z"/>
		<path fill="#FFFFFF" d="M87.108,64.39h-0.076c-0.643,0.932-1.602,1.397-2.88,1.397c-1.2,0-2.134-0.41-2.8-1.23
			c-0.668-0.82-1.001-1.986-1.001-3.499s0.335-2.688,1.005-3.524s1.602-1.256,2.796-1.256c1.244,0,2.198,0.452,2.862,1.356h0.11
			l-0.06-0.661l-0.033-0.645v-3.733h1.39V65.62h-1.13L87.108,64.39z M84.329,64.624c0.948,0,1.635-0.258,2.063-0.775
			c0.427-0.515,0.641-1.349,0.641-2.498v-0.293c0-1.301-0.216-2.228-0.649-2.784c-0.432-0.554-1.122-0.832-2.07-0.832
			c-0.815,0-1.44,0.317-1.872,0.949c-0.433,0.635-0.648,1.528-0.648,2.684c0,1.172,0.216,2.057,0.646,2.653
			C82.867,64.325,83.497,64.624,84.329,64.624z"/>
		<path fill="#FFFFFF" d="M58.437,76.866c1.205,0,2.142,0.412,2.809,1.235c0.666,0.823,1.001,1.988,1.001,3.495
			s-0.337,2.678-1.01,3.511c-0.672,0.835-1.605,1.252-2.8,1.252c-0.597,0-1.143-0.11-1.637-0.331
			c-0.493-0.22-0.908-0.559-1.243-1.017h-0.101l-0.292,1.181h-0.997V73.167h1.39v3.164c0,0.709-0.022,1.345-0.066,1.908h0.066
			C56.204,77.324,57.164,76.866,58.437,76.866z M58.235,78.03c-0.948,0-1.631,0.272-2.05,0.815
			c-0.418,0.545-0.629,1.462-0.629,2.751s0.216,2.211,0.646,2.767s1.118,0.833,2.067,0.833c0.854,0,1.489-0.312,1.908-0.934
			s0.629-1.517,0.629-2.684c0-1.193-0.21-2.084-0.629-2.67S59.111,78.03,58.235,78.03z"/>
		<path fill="#FFFFFF" d="M70.315,86.192l-0.276-1.307h-0.067c-0.458,0.575-0.913,0.965-1.369,1.169
			c-0.454,0.202-1.021,0.305-1.702,0.305c-0.909,0-1.624-0.234-2.139-0.703c-0.518-0.469-0.774-1.136-0.774-2.001
			c0-1.853,1.48-2.823,4.444-2.913l1.557-0.05v-0.569c0-0.72-0.154-1.251-0.465-1.595c-0.309-0.343-0.804-0.515-1.484-0.515
			c-0.765,0-1.63,0.234-2.595,0.703l-0.429-1.063c0.452-0.245,0.947-0.438,1.486-0.577c0.538-0.14,1.079-0.21,1.621-0.21
			c1.094,0,1.902,0.243,2.431,0.729c0.526,0.485,0.791,1.265,0.791,2.336v6.262H70.315z M67.176,85.213
			c0.865,0,1.544-0.237,2.039-0.712c0.493-0.475,0.74-1.139,0.74-1.992V81.68l-1.39,0.059c-1.104,0.039-1.901,0.212-2.391,0.516
			c-0.487,0.304-0.73,0.776-0.73,1.418c0,0.503,0.15,0.885,0.455,1.147C66.203,85.081,66.629,85.213,67.176,85.213z"/>
		<path fill="#FFFFFF" d="M77.874,86.359c-1.328,0-2.356-0.408-3.084-1.226c-0.729-0.817-1.092-1.975-1.092-3.471
			c0-1.534,0.368-2.721,1.108-3.558c0.738-0.837,1.793-1.256,3.16-1.256c0.441,0,0.882,0.048,1.323,0.143
			c0.44,0.095,0.786,0.206,1.037,0.335l-0.428,1.181c-0.307-0.123-0.642-0.225-1.004-0.306c-0.363-0.081-0.683-0.122-0.962-0.122
			c-1.864,0-2.796,1.189-2.796,3.566c0,1.127,0.227,1.992,0.681,2.595c0.456,0.603,1.129,0.904,2.022,0.904
			c0.765,0,1.549-0.164,2.353-0.494v1.23C79.58,86.2,78.806,86.359,77.874,86.359z"/>
		<path fill="#FFFFFF" d="M83.743,81.496c0.24-0.341,0.604-0.787,1.096-1.34l2.963-3.139h1.65l-3.717,3.909l3.976,5.266h-1.682
			l-3.241-4.337l-1.045,0.904v3.433H82.37V73.167h1.373v6.906c0,0.307-0.022,0.781-0.067,1.423H83.743z"/>
	</g>
</g>
</svg>
