<?xml version="1.0" encoding="utf-8"?>
<!-- Generator: Adobe Illustrator 13.0.0, SVG Export Plug-In . SVG Version: 6.00 Build 14948)  -->
<!DOCTYPE svg PUBLIC "-//W3C//DTD SVG 1.1//EN" "http://www.w3.org/Graphics/SVG/1.1/DTD/svg11.dtd">
<svg version="1.1" id="Layer_1" xmlns="http://www.w3.org/2000/svg" xmlns:xlink="http://www.w3.org/1999/xlink" x="0px" y="0px"
	 width="160px" height="45px" viewBox="0 0 160 45" enable-background="new 0 0 160 45" xml:space="preserve">
<g>
	
		<rect x="19.157" y="10.365" transform="matrix(-0.7071 0.7071 -0.7071 -0.7071 59.4175 12.1785)" fill="#7AAEDD" width="16.06" height="16.06"/>
	<g>
		<g>
			<defs>
				<rect id="SVGID_1_" x="4.047" y="2.332" width="152.669" height="40.368"/>
			</defs>
			<clipPath id="SVGID_2_">
				<use xlink:href="#SVGID_1_"  overflow="visible"/>
			</clipPath>
			<path clip-path="url(#SVGID_2_)" fill="#FFFFFF" d="M26.846,10.373c0.183,0.028,0.362,0.087,0.42,0.098
				c0.153,0.028,0.35,0,0.35,0s0.027-0.74,0.027-0.853c0-0.111,0.042-0.432-0.433-0.432c-0.476,0-0.42,0.419-0.42,0.419
				L26.846,10.373z M29.132,12.03c-0.023-0.547-0.304-0.944-0.61-1.141c-0.469-0.301-0.935-0.252-1.082-0.266
				c-0.097-0.01-0.273-0.042-0.485-0.099c-0.177-0.048-0.386-0.051-0.694-0.04c-0.406,0.013-0.586,0.223-0.728,0.265
				c-0.139,0.042-0.656,0.096-0.811,0.085c-0.181-0.015-0.257,0.043-0.236,0.138c0.027,0.126,0.602,0.322,0.602,0.322
				s-0.003,0.001-0.005,0.004c-0.122,0.01-0.227,0.049-0.374,0.106l-0.158,0.061c-0.112,0.041-0.365,0.042-0.455,0.038
				c-0.031,0-0.056,0.023-0.058,0.054c0,0.031,0.023,0.057,0.055,0.058c0.014,0,0.342,0.012,0.496-0.045l0.162-0.062
				c0.094-0.037,0.167-0.065,0.237-0.082c-0.02,0.029-0.041,0.063-0.069,0.104c-0.126,0.195,0.067,0.139,0.067,0.139
				c0.118-0.113,0.365-0.097,0.604-0.11c0.236-0.015,0.878-0.084,1.075-0.14c0.195-0.055,0.336-0.125,0.741-0.125
				c0.494,0,0.765,0.242,0.877,0.538c-0.251-0.041-0.507-0.068-0.766-0.079V11.56c0-0.084-0.176-0.126-0.322-0.112
				c-0.264,0.026-0.236,0.164-0.236,0.164l0.001,0.142c-3.464,0.144-6.238,3.007-6.238,6.506c0,3.542,2.841,6.43,6.364,6.51
				c0.025,1.554,0.022,1.551,0.022,1.597c0,0.056-0.011,0.215,0.12,0.215s0.123-0.195,0.123-0.195l0.011-1.614
				c0.188-0.004,0.371-0.017,0.555-0.033c-0.023,0.466-0.167,0.762-0.358,1.074c-0.082,0.133-0.069,0.168-0.069,0.168
				c0.507-0.447,0.677-0.899,0.698-1.275c3.143-0.465,5.561-3.176,5.561-6.443C33.747,15.329,31.8,12.845,29.132,12.03
				 M26.078,10.917c-0.127,0.014-0.36-0.004-0.36-0.004s0.209-0.125,0.332-0.15C26.217,10.731,26.254,10.897,26.078,10.917
				 M33.463,18.12h-2.771c-0.012-0.75-0.124-1.482-0.325-2.173c0.783-0.214,1.529-0.511,2.216-0.885
				C33.12,15.959,33.438,17.004,33.463,18.12 M32.431,14.824c-0.665,0.362-1.387,0.648-2.146,0.854
				c-0.202-0.617-0.477-1.199-0.816-1.73c0.59-0.124,1.164-0.295,1.704-0.516C31.658,13.83,32.083,14.299,32.431,14.824
				 M29.126,12.325c0.647,0.207,1.251,0.514,1.787,0.908c-0.514,0.198-1.054,0.355-1.609,0.466
				c-0.139-0.195-0.285-0.381-0.438-0.561C29.016,12.883,29.101,12.603,29.126,12.325 M28.698,13.377
				c0.103,0.122,0.206,0.246,0.298,0.376c-0.299,0.05-0.604,0.088-0.911,0.114c0.066-0.041,0.133-0.083,0.201-0.127
				C28.45,13.633,28.585,13.51,28.698,13.377 M28.343,12.131c0.005,0.143-0.019,0.282-0.067,0.403
				c-0.19-0.174-0.389-0.34-0.599-0.49C27.903,12.06,28.123,12.091,28.343,12.131 M27.517,12.283
				c0.212,0.151,0.415,0.312,0.606,0.49c-0.136,0.145-0.371,0.331-0.606,0.499V12.283z M27.507,14.223
				c0.024-0.016,0.051-0.032,0.077-0.048c0.537-0.02,1.068-0.075,1.589-0.168c0.351,0.533,0.635,1.12,0.843,1.746
				c-0.81,0.197-1.661,0.305-2.534,0.322L27.507,14.223z M27.014,16.355c0.041,0.042,0.165,0.16,0.458,0.387l0.004-0.388
				c0.904-0.019,1.786-0.128,2.622-0.334c0.193,0.667,0.303,1.374,0.314,2.099h-1.76c-0.11-0.259-0.289-0.46-0.507-0.636
				c-0.316-0.254-0.952-0.753-1.132-0.894c-0.084-0.064-0.173-0.146-0.255-0.243C26.844,16.352,26.928,16.354,27.014,16.355
				 M26.139,22.193c0.008,0.071,0.022,0.136,0.039,0.201c-0.296,0.029-0.59,0.068-0.882,0.122c-0.35-0.534-0.636-1.121-0.842-1.747
				c0.774-0.189,1.588-0.294,2.424-0.319c-0.033,0.034-0.063,0.065-0.088,0.095C26.328,21.062,26.063,21.527,26.139,22.193
				 M24.371,20.501c-0.195-0.668-0.303-1.375-0.316-2.102h2.991l0.011,1.767C26.13,20.178,25.228,20.289,24.371,20.501
				 M26.973,21.284c0.019-0.021,0.051-0.055,0.09-0.095l0.008,1.154c-0.14,0.003-0.277,0.007-0.416,0.014
				c-0.006-0.035-0.015-0.07-0.018-0.108C26.595,21.703,26.859,21.411,26.973,21.284 M27.042,17.837l0.002,0.283h-2.989
				c0.014-0.725,0.121-1.432,0.315-2.098c0.46,0.113,0.932,0.198,1.413,0.255c0.329,0.765,1.128,1.276,1.733,1.725
				c0.054,0.04,0.102,0.079,0.146,0.118h-0.231C27.386,18.084,27.291,18.025,27.042,17.837 M25.683,15.979
				c-0.417-0.055-0.83-0.129-1.229-0.226c0.206-0.627,0.492-1.214,0.843-1.747c0.315,0.057,0.637,0.101,0.959,0.13
				c-0.312,0.301-0.624,0.759-0.624,1.404C25.631,15.696,25.649,15.842,25.683,15.979 M27.903,18.399
				c0.295,0.462,0.082,0.89-0.095,1.097c-0.101,0.121-0.237,0.262-0.377,0.404l0.02-1.501H27.903z M27.418,20.84
				c0.131-0.126,0.273-0.26,0.411-0.384c0.752,0.037,1.482,0.14,2.186,0.312c-0.207,0.626-0.492,1.213-0.844,1.747
				c-0.58-0.105-1.175-0.163-1.772-0.172L27.418,20.84z M28.111,20.195c0.404-0.405,0.662-0.878,0.662-1.454
				c0-0.124-0.014-0.235-0.034-0.342h1.673c-0.012,0.728-0.121,1.435-0.314,2.103C29.458,20.343,28.793,20.243,28.111,20.195
				 M26.994,16.075c-0.143-0.002-0.285-0.005-0.426-0.012c-0.07-0.14-0.113-0.299-0.113-0.479c0-0.522,0.271-0.788,0.531-1.008
				L26.994,16.075z M26.965,12.273l0.015,1.359c-0.057,0.036-0.103,0.063-0.134,0.079c-0.051,0.027-0.152,0.083-0.274,0.167
				c-0.37-0.023-0.739-0.064-1.103-0.125C25.887,13.176,26.394,12.679,26.965,12.273 M26.789,12.044
				c-0.629,0.449-1.177,1.01-1.625,1.655c-0.559-0.11-1.097-0.268-1.61-0.466C24.473,12.558,25.583,12.13,26.789,12.044
				 M23.293,13.433c0.543,0.22,1.116,0.392,1.707,0.516c-0.34,0.533-0.614,1.114-0.815,1.731c-0.762-0.207-1.484-0.493-2.149-0.855
				C22.384,14.299,22.809,13.83,23.293,13.433 M21.885,15.062c0.687,0.375,1.43,0.671,2.217,0.885
				c-0.202,0.691-0.313,1.422-0.326,2.173h-2.772C21.028,17.004,21.345,15.959,21.885,15.062 M21.003,18.399h2.772
				c0.013,0.753,0.124,1.483,0.326,2.176c-0.785,0.215-1.53,0.509-2.216,0.884C21.347,20.562,21.028,19.516,21.003,18.399
				 M22.035,21.697c0.665-0.363,1.389-0.647,2.149-0.855c0.202,0.617,0.478,1.2,0.815,1.731c-0.59,0.124-1.162,0.296-1.704,0.516
				C22.811,22.69,22.384,22.221,22.035,21.697 M23.555,23.288c0.514-0.198,1.054-0.355,1.611-0.465
				c0.448,0.644,0.995,1.206,1.624,1.653C25.585,24.391,24.474,23.963,23.555,23.288 M27.065,23.658
				c0.005,0.244,0.01,0.466,0.013,0.666c-0.618-0.418-1.161-0.943-1.606-1.556c0.264-0.044,0.531-0.078,0.801-0.103
				c0.202,0.425,0.578,0.658,0.853,0.86c0.103,0.074,0.396,0.274,0.595,0.565c-0.114,0.089-0.233,0.17-0.354,0.25l0.005-0.442
				L27.065,23.658z M27.677,24.477c0.062-0.043,0.116-0.093,0.175-0.137c0.014,0.037,0.027,0.074,0.035,0.113
				C27.817,24.461,27.747,24.471,27.677,24.477 M27.153,23.061c-0.083-0.078-0.265-0.22-0.391-0.43
				c0.102-0.005,0.206-0.006,0.309-0.008l0.002,0.176c0.103,0.121,0.313,0.284,0.313,0.284l0.006-0.46
				c0.541,0.009,1.078,0.059,1.603,0.146c-0.294,0.405-0.632,0.769-1.006,1.092C27.772,23.504,27.356,23.244,27.153,23.061
				 M28.179,24.418c-0.013-0.105-0.034-0.202-0.063-0.285c0.446-0.38,0.845-0.82,1.186-1.31c0.557,0.11,1.096,0.267,1.609,0.465
				C30.12,23.867,29.19,24.264,28.179,24.418 M31.17,23.088c-0.54-0.219-1.114-0.392-1.704-0.516
				c0.341-0.531,0.615-1.113,0.818-1.729c0.76,0.207,1.479,0.491,2.146,0.854C32.081,22.221,31.657,22.69,31.17,23.088
				 M32.58,21.459c-0.687-0.374-1.431-0.668-2.215-0.884c0.202-0.693,0.314-1.423,0.326-2.176h2.771
				C33.438,19.516,33.12,20.562,32.58,21.459"/>
		</g>
		<g>
			<defs>
				<rect id="SVGID_3_" x="4.047" y="2.332" width="152.669" height="40.368"/>
			</defs>
			<clipPath id="SVGID_4_">
				<use xlink:href="#SVGID_3_"  overflow="visible"/>
			</clipPath>
			<polygon clip-path="url(#SVGID_4_)" fill="#005E83" points="39.021,18.276 43.553,18.276 45.655,25.26 47.725,18.276 
				52.26,18.276 52.26,29.77 48.949,29.77 48.919,22.845 46.945,29.77 44.335,29.77 42.33,22.845 42.33,29.77 39.021,29.77 			"/>
		</g>
		<g>
			<defs>
				<rect id="SVGID_5_" x="4.047" y="2.332" width="152.669" height="40.368"/>
			</defs>
			<clipPath id="SVGID_6_">
				<use xlink:href="#SVGID_5_"  overflow="visible"/>
			</clipPath>
			<path clip-path="url(#SVGID_6_)" fill="#005E83" d="M64.127,25.305c0,3.176-1.784,4.699-5.42,4.699
				c-3.636,0-5.438-1.523-5.438-4.699v-7.029h3.67v6.242c0,1.172,0,2.631,1.785,2.631c1.733,0,1.733-1.459,1.733-2.631v-6.242h3.67
				V25.305L64.127,25.305z"/>
		</g>
		<g>
			<defs>
				<rect id="SVGID_7_" x="4.047" y="2.332" width="152.669" height="40.368"/>
			</defs>
			<clipPath id="SVGID_8_">
				<use xlink:href="#SVGID_7_"  overflow="visible"/>
			</clipPath>
			<rect x="35.618" y="18.276" clip-path="url(#SVGID_8_)" fill="#005E83" width="0.952" height="11.494"/>
		</g>
		<g>
			<defs>
				<rect id="SVGID_9_" x="4.047" y="2.332" width="152.669" height="40.368"/>
			</defs>
			<clipPath id="SVGID_10_">
				<use xlink:href="#SVGID_9_"  overflow="visible"/>
			</clipPath>
			<rect x="34.168" y="18.276" clip-path="url(#SVGID_10_)" fill="#005E83" width="0.957" height="11.494"/>
		</g>
		<g>
			<defs>
				<rect id="SVGID_11_" x="4.047" y="2.332" width="152.669" height="40.368"/>
			</defs>
			<clipPath id="SVGID_12_">
				<use xlink:href="#SVGID_11_"  overflow="visible"/>
			</clipPath>
			<rect x="37.064" y="18.276" clip-path="url(#SVGID_12_)" fill="#005E83" width="0.952" height="11.494"/>
		</g>
		<g>
			<defs>
				<rect id="SVGID_13_" x="4.047" y="2.332" width="152.669" height="40.368"/>
			</defs>
			<clipPath id="SVGID_14_">
				<use xlink:href="#SVGID_13_"  overflow="visible"/>
			</clipPath>
			<path clip-path="url(#SVGID_14_)" fill="#231F20" d="M9.727,32.008v0.113c-0.263,0-0.318,0.061-0.318,0.219v1.625
				c0,0.161,0.056,0.221,0.318,0.221V34.3h-0.98v-0.114c0.264,0,0.32-0.06,0.32-0.221V32.34c0-0.158-0.057-0.219-0.32-0.219v-0.113
				H9.727z"/>
		</g>
		<g>
			<defs>
				<rect id="SVGID_15_" x="4.047" y="2.332" width="152.669" height="40.368"/>
			</defs>
			<clipPath id="SVGID_16_">
				<use xlink:href="#SVGID_15_"  overflow="visible"/>
			</clipPath>
			<path clip-path="url(#SVGID_16_)" fill="#231F20" d="M10.465,32.008l1.2,1.717h0.007V32.34c0-0.158-0.057-0.219-0.33-0.219
				v-0.113h0.76v0.113c-0.233,0-0.289,0.061-0.289,0.219v1.979h-0.132l-1.309-1.852h-0.004v1.498c0,0.161,0.056,0.221,0.349,0.221
				V34.3h-0.82v-0.114c0.274,0,0.33-0.06,0.33-0.221v-1.707c-0.105-0.123-0.167-0.137-0.336-0.137v-0.113H10.465z"/>
		</g>
		<g>
			<defs>
				<rect id="SVGID_17_" x="4.047" y="2.332" width="152.669" height="40.368"/>
			</defs>
			<clipPath id="SVGID_18_">
				<use xlink:href="#SVGID_17_"  overflow="visible"/>
			</clipPath>
			<path clip-path="url(#SVGID_18_)" fill="#231F20" d="M14.076,32.793c-0.069-0.419-0.223-0.672-0.691-0.672v1.844
				c0,0.161,0.055,0.221,0.319,0.221V34.3h-0.979v-0.114c0.264,0,0.32-0.06,0.32-0.221v-1.844c-0.47,0-0.622,0.253-0.692,0.672
				h-0.104l0.021-0.785h0.945h0.945l0.021,0.785H14.076z"/>
		</g>
		<g>
			<defs>
				<rect id="SVGID_19_" x="4.047" y="2.332" width="152.669" height="40.368"/>
			</defs>
			<clipPath id="SVGID_20_">
				<use xlink:href="#SVGID_19_"  overflow="visible"/>
			</clipPath>
			<path clip-path="url(#SVGID_20_)" fill="#231F20" d="M16.274,34.3H14.33v-0.114c0.253,0,0.309-0.06,0.309-0.221V32.34
				c0-0.158-0.056-0.219-0.309-0.219v-0.113h1.887l0.019,0.819h-0.104c-0.159-0.507-0.345-0.706-0.787-0.706
				c-0.198,0-0.364,0.053-0.364,0.219v0.707c0.349-0.007,0.5-0.039,0.552-0.404l0.095-0.002v0.92h-0.095
				c-0.052-0.359-0.203-0.395-0.552-0.398v0.878c0,0.106,0.069,0.146,0.274,0.146c0.445,0,0.792-0.1,0.938-0.742h0.104L16.274,34.3z
				"/>
		</g>
		<g>
			<defs>
				<rect id="SVGID_21_" x="4.047" y="2.332" width="152.669" height="40.368"/>
			</defs>
			<clipPath id="SVGID_22_">
				<use xlink:href="#SVGID_21_"  overflow="visible"/>
			</clipPath>
			<path clip-path="url(#SVGID_22_)" fill="#231F20" d="M18.619,33.82c0,0.272-0.09,0.498-0.395,0.498
				c-0.251,0-0.377-0.219-0.377-0.525c0-0.534-0.161-0.605-0.514-0.605h-0.13v0.777c0,0.161,0.057,0.221,0.33,0.221V34.3h-0.979
				v-0.114c0.252,0,0.309-0.06,0.309-0.221V32.34c0-0.158-0.057-0.219-0.309-0.219v-0.113h1.202c0.55,0,0.718,0.346,0.718,0.572
				c0,0.42-0.405,0.582-0.796,0.582v0.007c0.644,0.104,0.441,0.917,0.725,0.917c0.089,0,0.122-0.156,0.122-0.266H18.619z
				 M17.204,33.066c0.097,0.004,0.229,0.007,0.384,0.007c0.301,0,0.528-0.097,0.528-0.446c0-0.303-0.143-0.506-0.535-0.506
				c-0.286,0-0.377,0.055-0.377,0.191V33.066z"/>
		</g>
		<g>
			<defs>
				<rect id="SVGID_23_" x="4.047" y="2.332" width="152.669" height="40.368"/>
			</defs>
			<clipPath id="SVGID_24_">
				<use xlink:href="#SVGID_23_"  overflow="visible"/>
			</clipPath>
			<path clip-path="url(#SVGID_24_)" fill="#231F20" d="M19.35,32.008l1.198,1.717h0.008V32.34c0-0.158-0.057-0.219-0.33-0.219
				v-0.113h0.759v0.113c-0.232,0-0.29,0.061-0.29,0.219v1.979h-0.13l-1.309-1.852h-0.007v1.498c0,0.161,0.058,0.221,0.352,0.221
				V34.3H18.78v-0.114c0.273,0,0.33-0.06,0.33-0.221v-1.707c-0.106-0.123-0.167-0.137-0.336-0.137v-0.113H19.35z"/>
		</g>
		<g>
			<defs>
				<rect id="SVGID_25_" x="4.047" y="2.332" width="152.669" height="40.368"/>
			</defs>
			<clipPath id="SVGID_26_">
				<use xlink:href="#SVGID_25_"  overflow="visible"/>
			</clipPath>
			<path clip-path="url(#SVGID_26_)" fill="#231F20" d="M21.042,34.3v-0.114c0.269,0,0.34-0.148,0.413-0.353l0.671-1.839h0.121
				l0.73,1.875c0.099,0.257,0.175,0.316,0.368,0.316V34.3H22.42v-0.114c0.25,0,0.265-0.025,0.265-0.123
				c0-0.069-0.098-0.338-0.188-0.528h-0.785c-0.056,0.187-0.153,0.387-0.153,0.479c0,0.125,0.066,0.172,0.353,0.172V34.3H21.042z
				 M22.444,33.395l-0.354-0.877l-0.333,0.877H22.444z"/>
		</g>
		<g>
			<defs>
				<rect id="SVGID_27_" x="4.047" y="2.332" width="152.669" height="40.368"/>
			</defs>
			<clipPath id="SVGID_28_">
				<use xlink:href="#SVGID_27_"  overflow="visible"/>
			</clipPath>
			<path clip-path="url(#SVGID_28_)" fill="#231F20" d="M24.935,32.793c-0.069-0.419-0.222-0.672-0.692-0.672v1.844
				c0,0.161,0.058,0.221,0.319,0.221V34.3h-0.979v-0.114c0.265,0,0.321-0.06,0.321-0.221v-1.844c-0.471,0-0.623,0.253-0.692,0.672
				h-0.104l0.02-0.785h0.947h0.945l0.021,0.785H24.935z"/>
		</g>
		<g>
			<defs>
				<rect id="SVGID_29_" x="4.047" y="2.332" width="152.669" height="40.368"/>
			</defs>
			<clipPath id="SVGID_30_">
				<use xlink:href="#SVGID_29_"  overflow="visible"/>
			</clipPath>
			<path clip-path="url(#SVGID_30_)" fill="#231F20" d="M26.133,32.008v0.113c-0.262,0-0.318,0.061-0.318,0.219v1.625
				c0,0.161,0.057,0.221,0.318,0.221V34.3h-0.978v-0.114c0.263,0,0.318-0.06,0.318-0.221V32.34c0-0.158-0.056-0.219-0.318-0.219
				v-0.113H26.133z"/>
		</g>
		<g>
			<defs>
				<rect id="SVGID_31_" x="4.047" y="2.332" width="152.669" height="40.368"/>
			</defs>
			<clipPath id="SVGID_32_">
				<use xlink:href="#SVGID_31_"  overflow="visible"/>
			</clipPath>
			<path clip-path="url(#SVGID_32_)" fill="#231F20" d="M28.487,33.152c0,0.617-0.444,1.186-1.084,1.186
				c-0.641,0-1.087-0.568-1.087-1.186c0-0.616,0.446-1.187,1.087-1.187C28.043,31.967,28.487,32.537,28.487,33.152 M26.704,33.152
				c0,0.724,0.22,1.072,0.699,1.072c0.48,0,0.699-0.35,0.699-1.072s-0.219-1.072-0.699-1.072
				C26.924,32.08,26.704,32.43,26.704,33.152"/>
		</g>
		<g>
			<defs>
				<rect id="SVGID_33_" x="4.047" y="2.332" width="152.669" height="40.368"/>
			</defs>
			<clipPath id="SVGID_34_">
				<use xlink:href="#SVGID_33_"  overflow="visible"/>
			</clipPath>
			<path clip-path="url(#SVGID_34_)" fill="#231F20" d="M29.277,32.008l1.198,1.717h0.008V32.34c0-0.158-0.055-0.219-0.329-0.219
				v-0.113h0.759v0.113c-0.232,0-0.29,0.061-0.29,0.219v1.979h-0.13l-1.308-1.852h-0.007v1.498c0,0.161,0.056,0.221,0.35,0.221V34.3
				h-0.819v-0.114c0.272,0,0.329-0.06,0.329-0.221v-1.707c-0.106-0.123-0.166-0.137-0.337-0.137v-0.113H29.277z"/>
		</g>
		<g>
			<defs>
				<rect id="SVGID_35_" x="4.047" y="2.332" width="152.669" height="40.368"/>
			</defs>
			<clipPath id="SVGID_36_">
				<use xlink:href="#SVGID_35_"  overflow="visible"/>
			</clipPath>
			<path clip-path="url(#SVGID_36_)" fill="#231F20" d="M30.854,34.3v-0.114c0.27,0,0.34-0.148,0.412-0.353l0.673-1.839h0.119
				l0.73,1.875c0.101,0.257,0.177,0.316,0.369,0.316V34.3h-0.926v-0.114c0.25,0,0.264-0.025,0.264-0.123
				c0-0.069-0.098-0.338-0.188-0.528h-0.785c-0.057,0.187-0.154,0.387-0.154,0.479c0,0.125,0.067,0.172,0.354,0.172V34.3H30.854z
				 M32.256,33.395l-0.352-0.877l-0.335,0.877H32.256z"/>
		</g>
		<g>
			<defs>
				<rect id="SVGID_37_" x="4.047" y="2.332" width="152.669" height="40.368"/>
			</defs>
			<clipPath id="SVGID_38_">
				<use xlink:href="#SVGID_37_"  overflow="visible"/>
			</clipPath>
			<path clip-path="url(#SVGID_38_)" fill="#231F20" d="M34.918,34.3h-1.746v-0.114c0.243,0,0.3-0.06,0.3-0.221V32.34
				c0-0.158-0.057-0.219-0.292-0.219v-0.113h0.952v0.113c-0.264,0-0.32,0.061-0.32,0.219v1.625c0,0.161,0.073,0.221,0.243,0.221
				c0.285,0,0.633-0.1,0.777-0.742h0.105L34.918,34.3z"/>
		</g>
		<g>
			<defs>
				<rect id="SVGID_39_" x="4.047" y="2.332" width="152.669" height="40.368"/>
			</defs>
			<clipPath id="SVGID_40_">
				<use xlink:href="#SVGID_39_"  overflow="visible"/>
			</clipPath>
			<path clip-path="url(#SVGID_40_)" fill="#231F20" d="M38.818,32.008v0.113c-0.241,0-0.298,0.061-0.298,0.219v1.625
				c0,0.161,0.057,0.221,0.328,0.221V34.3h-0.966v-0.114c0.242,0,0.299-0.06,0.299-0.221v-1.83h-0.008L37.466,34.3H37.35
				l-0.685-2.151H36.66v1.65c0,0.287,0.056,0.387,0.332,0.387V34.3h-0.798v-0.114c0.269,0,0.325-0.1,0.325-0.387V32.34
				c0-0.158-0.057-0.219-0.325-0.219v-0.113h0.781l0.543,1.705h0.006l0.558-1.705H38.818z"/>
		</g>
		<g>
			<defs>
				<rect id="SVGID_41_" x="4.047" y="2.332" width="152.669" height="40.368"/>
			</defs>
			<clipPath id="SVGID_42_">
				<use xlink:href="#SVGID_41_"  overflow="visible"/>
			</clipPath>
			<path clip-path="url(#SVGID_42_)" fill="#231F20" d="M40.949,34.3h-1.945v-0.114c0.252,0,0.312-0.06,0.312-0.221V32.34
				c0-0.158-0.06-0.219-0.312-0.219v-0.113h1.887l0.02,0.819h-0.104c-0.16-0.507-0.346-0.706-0.79-0.706
				c-0.194,0-0.363,0.053-0.363,0.219v0.707c0.352-0.007,0.501-0.039,0.555-0.404l0.091-0.002v0.92h-0.093
				c-0.054-0.359-0.203-0.395-0.555-0.398v0.878c0,0.106,0.071,0.146,0.274,0.146c0.446,0,0.793-0.1,0.939-0.742h0.103L40.949,34.3z
				"/>
		</g>
		<g>
			<defs>
				<rect id="SVGID_43_" x="4.047" y="2.332" width="152.669" height="40.368"/>
			</defs>
			<clipPath id="SVGID_44_">
				<use xlink:href="#SVGID_43_"  overflow="visible"/>
			</clipPath>
			<path clip-path="url(#SVGID_44_)" fill="#231F20" d="M41.228,32.008h1.081c0.492,0,1.084,0.366,1.084,1.146
				c0,0.777-0.585,1.146-1.058,1.146h-1.107v-0.114c0.258,0,0.313-0.06,0.313-0.221V32.34c0-0.158-0.056-0.219-0.313-0.219V32.008z
				 M41.883,33.945c0,0.193,0.049,0.24,0.346,0.24c0.661,0,0.779-0.406,0.779-1.029c0-0.803-0.261-1.035-0.779-1.035
				c-0.297,0-0.346,0.046-0.346,0.24V33.945z"/>
		</g>
		<g>
			<defs>
				<rect id="SVGID_45_" x="4.047" y="2.332" width="152.669" height="40.368"/>
			</defs>
			<clipPath id="SVGID_46_">
				<use xlink:href="#SVGID_45_"  overflow="visible"/>
			</clipPath>
			<path clip-path="url(#SVGID_46_)" fill="#231F20" d="M44.576,32.008v0.113c-0.262,0-0.319,0.061-0.319,0.219v1.625
				c0,0.161,0.058,0.221,0.319,0.221V34.3h-0.978v-0.114c0.261,0,0.319-0.06,0.319-0.221V32.34c0-0.158-0.059-0.219-0.319-0.219
				v-0.113H44.576z"/>
		</g>
		<g>
			<defs>
				<rect id="SVGID_47_" x="4.047" y="2.332" width="152.669" height="40.368"/>
			</defs>
			<clipPath id="SVGID_48_">
				<use xlink:href="#SVGID_47_"  overflow="visible"/>
			</clipPath>
			<path clip-path="url(#SVGID_48_)" fill="#231F20" d="M46.648,32.027v0.785h-0.09c-0.104-0.369-0.262-0.732-0.687-0.732
				c-0.479,0-0.699,0.35-0.699,1.072c0,0.8,0.399,1.072,0.689,1.072c0.529,0,0.723-0.35,0.762-0.791h0.095
				c-0.03,0.547-0.291,0.903-0.917,0.903c-0.568,0-1.015-0.567-1.015-1.185s0.446-1.188,1.052-1.188
				c0.296,0,0.537,0.188,0.594,0.188c0.058,0,0.115-0.066,0.137-0.127h0.079V32.027z"/>
		</g>
		<g>
			<defs>
				<rect id="SVGID_49_" x="4.047" y="2.332" width="152.669" height="40.368"/>
			</defs>
			<clipPath id="SVGID_50_">
				<use xlink:href="#SVGID_49_"  overflow="visible"/>
			</clipPath>
			<path clip-path="url(#SVGID_50_)" fill="#231F20" d="M46.824,34.3v-0.114c0.271,0,0.341-0.148,0.413-0.353l0.674-1.839h0.119
				l0.73,1.875c0.099,0.257,0.176,0.316,0.367,0.316V34.3h-0.925v-0.114c0.251,0,0.264-0.025,0.264-0.123
				c0-0.069-0.096-0.338-0.187-0.528h-0.785c-0.058,0.187-0.155,0.387-0.155,0.479c0,0.125,0.068,0.172,0.354,0.172V34.3H46.824z
				 M48.228,33.395l-0.354-0.877l-0.331,0.877H48.228z"/>
		</g>
		<g>
			<defs>
				<rect id="SVGID_51_" x="4.047" y="2.332" width="152.669" height="40.368"/>
			</defs>
			<clipPath id="SVGID_52_">
				<use xlink:href="#SVGID_51_"  overflow="visible"/>
			</clipPath>
			<path clip-path="url(#SVGID_52_)" fill="#231F20" d="M50.889,34.3h-1.745v-0.114c0.242,0,0.298-0.06,0.298-0.221V32.34
				c0-0.158-0.056-0.219-0.293-0.219v-0.113h0.952v0.113c-0.262,0-0.318,0.061-0.318,0.219v1.625c0,0.161,0.072,0.221,0.243,0.221
				c0.286,0,0.634-0.1,0.78-0.742h0.103L50.889,34.3z"/>
		</g>
		<g>
			<defs>
				<rect id="SVGID_53_" x="4.047" y="2.332" width="152.669" height="40.368"/>
			</defs>
			<clipPath id="SVGID_54_">
				<use xlink:href="#SVGID_53_"  overflow="visible"/>
			</clipPath>
			<path clip-path="url(#SVGID_54_)" fill="#231F20" d="M52.961,32.121c-0.264,0-0.321,0.061-0.321,0.219v1.336
				c0,0.355,0.177,0.551,0.543,0.551c0.485,0,0.67-0.287,0.67-0.66v-1.127c0-0.18-0.033-0.317-0.356-0.317v-0.113h0.802v0.113
				c-0.292,0-0.325,0.139-0.325,0.317v1.154c0,0.479-0.351,0.744-0.828,0.744c-0.516,0-0.845-0.205-0.845-0.672V32.34
				c0-0.158-0.057-0.219-0.318-0.219v-0.113h0.979L52.961,32.121L52.961,32.121z"/>
		</g>
		<g>
			<defs>
				<rect id="SVGID_55_" x="4.047" y="2.332" width="152.669" height="40.368"/>
			</defs>
			<clipPath id="SVGID_56_">
				<use xlink:href="#SVGID_55_"  overflow="visible"/>
			</clipPath>
			<path clip-path="url(#SVGID_56_)" fill="#231F20" d="M55.016,32.008l1.199,1.717h0.007V32.34c0-0.158-0.057-0.219-0.329-0.219
				v-0.113h0.758v0.113c-0.232,0-0.29,0.061-0.29,0.219v1.979h-0.13l-1.309-1.852h-0.007v1.498c0,0.161,0.058,0.221,0.35,0.221V34.3
				h-0.819v-0.114c0.272,0,0.329-0.06,0.329-0.221v-1.707c-0.105-0.123-0.167-0.137-0.336-0.137v-0.113H55.016z"/>
		</g>
		<g>
			<defs>
				<rect id="SVGID_57_" x="4.047" y="2.332" width="152.669" height="40.368"/>
			</defs>
			<clipPath id="SVGID_58_">
				<use xlink:href="#SVGID_57_"  overflow="visible"/>
			</clipPath>
			<path clip-path="url(#SVGID_58_)" fill="#231F20" d="M57.789,32.008v0.113c-0.262,0-0.32,0.061-0.32,0.219v1.625
				c0,0.161,0.059,0.221,0.32,0.221V34.3H56.81v-0.114c0.264,0,0.32-0.06,0.32-0.221V32.34c0-0.158-0.057-0.219-0.32-0.219v-0.113
				H57.789z"/>
		</g>
		<g>
			<defs>
				<rect id="SVGID_59_" x="4.047" y="2.332" width="152.669" height="40.368"/>
			</defs>
			<clipPath id="SVGID_60_">
				<use xlink:href="#SVGID_59_"  overflow="visible"/>
			</clipPath>
			<path clip-path="url(#SVGID_60_)" fill="#231F20" d="M57.83,32.008h0.931v0.113c-0.215,0-0.298,0.053-0.298,0.134
				c0,0.073,0.035,0.159,0.072,0.263l0.454,1.289h0.007l0.451-1.332c0.023-0.063,0.034-0.135,0.034-0.203
				c0-0.133-0.096-0.149-0.267-0.149v-0.113h0.706v0.113c-0.157,0-0.236,0.069-0.286,0.213L58.949,34.3h-0.141l-0.653-1.933
				c-0.072-0.217-0.153-0.246-0.325-0.246V32.008z"/>
		</g>
		<g>
			<defs>
				<rect id="SVGID_61_" x="4.047" y="2.332" width="152.669" height="40.368"/>
			</defs>
			<clipPath id="SVGID_62_">
				<use xlink:href="#SVGID_61_"  overflow="visible"/>
			</clipPath>
			<path clip-path="url(#SVGID_62_)" fill="#231F20" d="M61.934,34.3h-1.946v-0.114c0.254,0,0.311-0.06,0.311-0.221V32.34
				c0-0.158-0.057-0.219-0.311-0.219v-0.113h1.886l0.021,0.819H61.79c-0.159-0.507-0.347-0.706-0.789-0.706
				c-0.197,0-0.363,0.053-0.363,0.219v0.707c0.35-0.007,0.498-0.039,0.552-0.404l0.094-0.002v0.92H61.19
				c-0.054-0.359-0.202-0.395-0.552-0.398v0.878c0,0.106,0.068,0.146,0.274,0.146c0.445,0,0.79-0.1,0.938-0.742h0.104L61.934,34.3z"
				/>
		</g>
		<g>
			<defs>
				<rect id="SVGID_63_" x="4.047" y="2.332" width="152.669" height="40.368"/>
			</defs>
			<clipPath id="SVGID_64_">
				<use xlink:href="#SVGID_63_"  overflow="visible"/>
			</clipPath>
			<path clip-path="url(#SVGID_64_)" fill="#231F20" d="M64.277,33.82c0,0.272-0.09,0.498-0.396,0.498
				c-0.25,0-0.378-0.219-0.378-0.525c0-0.534-0.157-0.605-0.513-0.605h-0.127v0.777c0,0.161,0.056,0.221,0.326,0.221V34.3h-0.978
				v-0.114c0.251,0,0.311-0.06,0.311-0.221V32.34c0-0.158-0.06-0.219-0.311-0.219v-0.113h1.202c0.549,0,0.719,0.346,0.719,0.572
				c0,0.42-0.405,0.582-0.796,0.582v0.007c0.644,0.104,0.44,0.917,0.723,0.917c0.091,0,0.125-0.156,0.125-0.266H64.277z
				 M62.864,33.066c0.093,0.004,0.228,0.007,0.381,0.007c0.3,0,0.53-0.097,0.53-0.446c0-0.303-0.144-0.506-0.537-0.506
				c-0.287,0-0.374,0.055-0.374,0.191V33.066z"/>
		</g>
		<g>
			<defs>
				<rect id="SVGID_65_" x="4.047" y="2.332" width="152.669" height="40.368"/>
			</defs>
			<clipPath id="SVGID_66_">
				<use xlink:href="#SVGID_65_"  overflow="visible"/>
			</clipPath>
			<path clip-path="url(#SVGID_66_)" fill="#231F20" d="M64.483,33.453h0.094c0.064,0.373,0.33,0.771,0.747,0.771
				c0.249,0,0.495-0.162,0.495-0.433c0-0.75-1.331-0.308-1.331-1.192c0-0.399,0.355-0.634,0.713-0.634
				c0.303,0,0.463,0.193,0.542,0.193c0.05,0,0.094-0.119,0.104-0.152h0.113v0.771h-0.093c-0.087-0.328-0.277-0.698-0.664-0.698
				c-0.252,0-0.443,0.138-0.443,0.403c0,0.636,1.334,0.293,1.334,1.113c0,0.461-0.356,0.74-0.8,0.74
				c-0.313,0-0.435-0.173-0.561-0.173c-0.086,0-0.116,0.071-0.156,0.153h-0.094V33.453z"/>
		</g>
		<g>
			<defs>
				<rect id="SVGID_67_" x="4.047" y="2.332" width="152.669" height="40.368"/>
			</defs>
			<clipPath id="SVGID_68_">
				<use xlink:href="#SVGID_67_"  overflow="visible"/>
			</clipPath>
			<path clip-path="url(#SVGID_68_)" fill="#231F20" d="M67.229,32.008v0.113c-0.265,0-0.321,0.061-0.321,0.219v1.625
				c0,0.161,0.057,0.221,0.321,0.221V34.3H66.25v-0.114c0.262,0,0.32-0.06,0.32-0.221V32.34c0-0.158-0.059-0.219-0.32-0.219v-0.113
				H67.229z"/>
		</g>
		<g>
			<defs>
				<rect id="SVGID_69_" x="4.047" y="2.332" width="152.669" height="40.368"/>
			</defs>
			<clipPath id="SVGID_70_">
				<use xlink:href="#SVGID_69_"  overflow="visible"/>
			</clipPath>
			<path clip-path="url(#SVGID_70_)" fill="#231F20" d="M69.173,32.793c-0.068-0.419-0.222-0.672-0.69-0.672v1.844
				c0,0.161,0.056,0.221,0.318,0.221V34.3h-0.979v-0.114c0.264,0,0.319-0.06,0.319-0.221v-1.844c-0.47,0-0.623,0.253-0.691,0.672
				h-0.104l0.02-0.785h0.946h0.944l0.021,0.785H69.173z"/>
		</g>
		<g>
			<defs>
				<rect id="SVGID_71_" x="4.047" y="2.332" width="152.669" height="40.368"/>
			</defs>
			<clipPath id="SVGID_72_">
				<use xlink:href="#SVGID_71_"  overflow="visible"/>
			</clipPath>
			<path clip-path="url(#SVGID_72_)" fill="#231F20" d="M69.346,32.008h0.944v0.113c-0.199,0-0.279,0.033-0.279,0.111
				c0,0.115,0.391,0.776,0.445,0.929c0.063-0.142,0.461-0.761,0.461-0.931c0-0.07-0.075-0.109-0.283-0.109v-0.113h0.762v0.113
				c-0.24,0-0.282,0.082-0.406,0.314l-0.47,0.891v0.639c0,0.161,0.058,0.221,0.359,0.221V34.3h-1.046v-0.114
				c0.292,0,0.347-0.06,0.347-0.221v-0.639l-0.51-1.002c-0.089-0.178-0.153-0.203-0.324-0.203V32.008z"/>
		</g>
		<g>
			<defs>
				<rect id="SVGID_73_" x="4.047" y="2.332" width="152.669" height="40.368"/>
			</defs>
			<clipPath id="SVGID_74_">
				<use xlink:href="#SVGID_73_"  overflow="visible"/>
			</clipPath>
			<path clip-path="url(#SVGID_74_)" fill="#231F20" d="M34.68,35.734v0.113c-0.24,0-0.296,0.061-0.296,0.221v1.625
				c0,0.16,0.056,0.221,0.325,0.221v0.113h-0.964v-0.113c0.241,0,0.298-0.061,0.298-0.221v-1.832h-0.007l-0.711,2.166h-0.116
				l-0.683-2.152H32.52v1.652c0,0.287,0.057,0.387,0.332,0.387v0.113h-0.799v-0.113c0.269,0,0.325-0.1,0.325-0.387v-1.459
				c0-0.16-0.057-0.221-0.325-0.221v-0.113h0.783l0.543,1.707h0.007l0.558-1.707H34.68z"/>
		</g>
		<g>
			<defs>
				<rect id="SVGID_75_" x="4.047" y="2.332" width="152.669" height="40.368"/>
			</defs>
			<clipPath id="SVGID_76_">
				<use xlink:href="#SVGID_75_"  overflow="visible"/>
			</clipPath>
			<path clip-path="url(#SVGID_76_)" fill="#231F20" d="M34.729,38.027v-0.113c0.27,0,0.341-0.148,0.414-0.354l0.673-1.84h0.121
				l0.729,1.877c0.102,0.256,0.178,0.315,0.369,0.315v0.114H36.11v-0.114c0.252,0,0.263-0.024,0.263-0.123
				c0-0.069-0.096-0.338-0.186-0.531H35.4c-0.057,0.188-0.154,0.388-0.154,0.48c0,0.127,0.067,0.174,0.355,0.174v0.114H34.729
				L34.729,38.027z M36.133,37.121l-0.352-0.877l-0.335,0.877H36.133z"/>
		</g>
		<g>
			<defs>
				<rect id="SVGID_77_" x="4.047" y="2.332" width="152.669" height="40.368"/>
			</defs>
			<clipPath id="SVGID_78_">
				<use xlink:href="#SVGID_77_"  overflow="visible"/>
			</clipPath>
			<path clip-path="url(#SVGID_78_)" fill="#231F20" d="M38.798,38.027h-1.749v-0.113c0.246,0,0.301-0.061,0.301-0.221v-1.625
				c0-0.16-0.055-0.221-0.292-0.221v-0.113h0.952v0.113c-0.262,0-0.318,0.061-0.318,0.221v1.625c0,0.16,0.071,0.221,0.243,0.221
				c0.286,0,0.633-0.1,0.779-0.743h0.104L38.798,38.027z"/>
		</g>
		<g>
			<defs>
				<rect id="SVGID_79_" x="4.047" y="2.332" width="152.669" height="40.368"/>
			</defs>
			<clipPath id="SVGID_80_">
				<use xlink:href="#SVGID_79_"  overflow="visible"/>
			</clipPath>
			<path clip-path="url(#SVGID_80_)" fill="#231F20" d="M38.807,38.027v-0.113c0.271,0,0.34-0.148,0.414-0.354l0.673-1.84h0.121
				l0.729,1.877c0.101,0.256,0.177,0.315,0.37,0.315v0.114h-0.926v-0.114c0.25,0,0.261-0.024,0.261-0.123
				c0-0.069-0.095-0.338-0.185-0.531h-0.787c-0.057,0.188-0.152,0.388-0.152,0.48c0,0.127,0.067,0.174,0.354,0.174v0.114H38.807
				L38.807,38.027z M40.21,37.121l-0.353-0.877l-0.334,0.877H40.21z"/>
		</g>
		<g>
			<defs>
				<rect id="SVGID_81_" x="4.047" y="2.332" width="152.669" height="40.368"/>
			</defs>
			<clipPath id="SVGID_82_">
				<use xlink:href="#SVGID_81_"  overflow="visible"/>
			</clipPath>
			<path clip-path="url(#SVGID_82_)" fill="#231F20" d="M40.837,35.734h0.946v0.113c-0.199,0-0.279,0.033-0.279,0.112
				c0,0.113,0.391,0.776,0.445,0.929c0.065-0.142,0.462-0.761,0.462-0.933c0-0.07-0.075-0.108-0.284-0.108v-0.113h0.764v0.113
				c-0.24,0-0.283,0.082-0.407,0.315l-0.469,0.89v0.641c0,0.16,0.056,0.221,0.359,0.221v0.113h-1.048v-0.113
				c0.291,0,0.346-0.061,0.346-0.221v-0.641l-0.508-1.003c-0.09-0.176-0.154-0.202-0.327-0.202V35.734z"/>
		</g>
		<g>
			<defs>
				<rect id="SVGID_83_" x="4.047" y="2.332" width="152.669" height="40.368"/>
			</defs>
			<clipPath id="SVGID_84_">
				<use xlink:href="#SVGID_83_"  overflow="visible"/>
			</clipPath>
			<path clip-path="url(#SVGID_84_)" fill="#231F20" d="M43.009,37.18h0.096c0.062,0.375,0.329,0.774,0.746,0.774
				c0.249,0,0.496-0.163,0.496-0.435c0-0.748-1.334-0.306-1.334-1.191c0-0.4,0.357-0.635,0.714-0.635
				c0.305,0,0.463,0.192,0.544,0.192c0.049,0,0.094-0.118,0.103-0.151h0.113v0.771h-0.093c-0.086-0.33-0.276-0.699-0.663-0.699
				c-0.254,0-0.442,0.137-0.442,0.403c0,0.638,1.331,0.293,1.331,1.113c0,0.465-0.355,0.743-0.8,0.743
				c-0.313,0-0.433-0.174-0.56-0.174c-0.086,0-0.116,0.07-0.155,0.152h-0.096V37.18z"/>
		</g>
		<g>
			<defs>
				<rect id="SVGID_85_" x="4.047" y="2.332" width="152.669" height="40.368"/>
			</defs>
			<clipPath id="SVGID_86_">
				<use xlink:href="#SVGID_85_"  overflow="visible"/>
			</clipPath>
			<path clip-path="url(#SVGID_86_)" fill="#231F20" d="M45.756,35.734v0.113c-0.263,0-0.317,0.061-0.317,0.221v1.625
				c0,0.16,0.055,0.221,0.317,0.221v0.113h-0.979v-0.113c0.264,0,0.32-0.061,0.32-0.221v-1.625c0-0.16-0.057-0.221-0.32-0.221
				v-0.113H45.756z"/>
		</g>
		<g>
			<defs>
				<rect id="SVGID_87_" x="4.047" y="2.332" width="152.669" height="40.368"/>
			</defs>
			<clipPath id="SVGID_88_">
				<use xlink:href="#SVGID_87_"  overflow="visible"/>
			</clipPath>
			<path clip-path="url(#SVGID_88_)" fill="#231F20" d="M45.783,38.027v-0.113c0.271,0,0.341-0.148,0.413-0.354l0.674-1.84h0.12
				l0.729,1.877c0.1,0.256,0.178,0.315,0.371,0.315v0.114h-0.926v-0.114c0.25,0,0.263-0.024,0.263-0.123
				c0-0.069-0.097-0.338-0.188-0.531h-0.787c-0.056,0.188-0.153,0.388-0.153,0.48c0,0.127,0.067,0.174,0.354,0.174v0.114H45.783
				L45.783,38.027z M47.188,37.121l-0.354-0.877L46.5,37.121H47.188z"/>
		</g>
		<g>
			<defs>
				<rect id="SVGID_89_" x="4.047" y="2.332" width="152.669" height="40.368"/>
			</defs>
			<clipPath id="SVGID_90_">
				<use xlink:href="#SVGID_89_"  overflow="visible"/>
			</clipPath>
			<path clip-path="url(#SVGID_90_)" fill="#F58A1F" d="M98.005,18.344c-0.924,0-1.793,0.224-2.563,0.614l1.082-3.293h4.726
				l0.466-2.02h-6.688l-2.713,8.29l1.274,1.486l1.642-1.917h0.004c0.685-0.752,1.672-1.225,2.771-1.225
				c2.069,0,3.747,1.677,3.747,3.749c0,1.084-0.46,2.062-1.197,2.746c-0.668,0.621-1.564,1-2.55,1c-1.106,0-2.101-0.478-2.784-1.238
				l-5.332-6.223v0.001c-1.043-1.205-2.582-1.97-4.302-1.97h-0.039v0.002c-3.12,0.021-5.645,2.556-5.645,5.682
				c0,2.988,2.14,5.236,5.068,5.467l1.896-1.944c-0.401,0.146-0.831,0.226-1.28,0.226c-2.071,0-3.747-1.678-3.747-3.748
				c0-2.063,1.67-3.738,3.732-3.746c0.814,0.002,1.552,0.254,2.158,0.678v0.002c0.039,0.026,0.078,0.055,0.117,0.081
				c0.191,0.146,0.369,0.306,0.529,0.485l0.002-0.002l0.452,0.529c0.438,0.635,0.71,1.377,0.71,2.039
				c0,1.224-0.523,2.101-1.418,3.212l-6.098,6.986h9.191v-1.82H85.9l4.354-4.837h-0.004c0.586-0.733,0.993-1.614,1.149-2.577
				l2.269,2.646l0,0c1.043,1.229,2.597,2.008,4.334,2.008c1.515,0,2.888-0.592,3.907-1.558c1.094-1.036,1.775-2.5,1.775-4.125
				C103.688,20.89,101.145,18.344,98.005,18.344"/>
		</g>
		<g>
			<defs>
				<rect id="SVGID_91_" x="4.047" y="2.332" width="152.669" height="40.368"/>
			</defs>
			<clipPath id="SVGID_92_">
				<use xlink:href="#SVGID_91_"  overflow="visible"/>
			</clipPath>
			<path clip-path="url(#SVGID_92_)" fill="#005E83" d="M108.492,22.52h-1.717v-4.242h1.649c0.786,0,1.281,0.447,1.281,1.162
				c0,0.459-0.287,0.787-0.572,0.9c0.326,0.131,0.638,0.447,0.638,0.983C109.771,22.103,109.242,22.52,108.492,22.52
				 M108.372,18.856h-0.953v1.215h0.953c0.41,0,0.69-0.215,0.69-0.608S108.782,18.856,108.372,18.856 M108.432,20.649h-1.013v1.293
				h1.013c0.447,0,0.697-0.274,0.697-0.65C109.129,20.917,108.879,20.649,108.432,20.649"/>
		</g>
		<g>
			<defs>
				<rect id="SVGID_93_" x="4.047" y="2.332" width="152.669" height="40.368"/>
			</defs>
			<clipPath id="SVGID_94_">
				<use xlink:href="#SVGID_93_"  overflow="visible"/>
			</clipPath>
			<polygon clip-path="url(#SVGID_94_)" fill="#005E83" points="110.82,22.52 110.82,18.278 113.532,18.278 113.532,18.856 
				111.464,18.856 111.464,20.095 113.229,20.095 113.229,20.667 111.464,20.667 111.464,21.942 113.532,21.942 113.532,22.52 			
				"/>
		</g>
		<g>
			<defs>
				<rect id="SVGID_95_" x="4.047" y="2.332" width="152.669" height="40.368"/>
			</defs>
			<clipPath id="SVGID_96_">
				<use xlink:href="#SVGID_95_"  overflow="visible"/>
			</clipPath>
			<polygon clip-path="url(#SVGID_96_)" fill="#005E83" points="115.943,18.856 115.943,22.52 115.301,22.52 115.301,18.856 
				114.132,18.856 114.132,18.278 117.111,18.278 117.111,18.856 			"/>
		</g>
		<g>
			<defs>
				<rect id="SVGID_97_" x="4.047" y="2.332" width="152.669" height="40.368"/>
			</defs>
			<clipPath id="SVGID_98_">
				<use xlink:href="#SVGID_97_"  overflow="visible"/>
			</clipPath>
			<polygon clip-path="url(#SVGID_98_)" fill="#005E83" points="119.376,18.856 119.376,22.52 118.732,22.52 118.732,18.856 
				117.564,18.856 117.564,18.278 120.543,18.278 120.543,18.856 			"/>
		</g>
		<g>
			<defs>
				<rect id="SVGID_99_" x="4.047" y="2.332" width="152.669" height="40.368"/>
			</defs>
			<clipPath id="SVGID_100_">
				<use xlink:href="#SVGID_99_"  overflow="visible"/>
			</clipPath>
			<polygon clip-path="url(#SVGID_100_)" fill="#005E83" points="121.372,22.52 121.372,18.278 124.083,18.278 124.083,18.856 
				122.016,18.856 122.016,20.095 123.779,20.095 123.779,20.667 122.016,20.667 122.016,21.942 124.083,21.942 124.083,22.52 			
				"/>
		</g>
		<g>
			<defs>
				<rect id="SVGID_101_" x="4.047" y="2.332" width="152.669" height="40.368"/>
			</defs>
			<clipPath id="SVGID_102_">
				<use xlink:href="#SVGID_101_"  overflow="visible"/>
			</clipPath>
			<path clip-path="url(#SVGID_102_)" fill="#005E83" d="M127.521,22.52l-0.896-1.787h-0.806v1.787h-0.643v-4.242h1.643
				c0.806,0,1.318,0.519,1.318,1.24c0,0.607-0.369,0.995-0.847,1.126l0.978,1.876H127.521z M126.775,18.856h-0.953v1.328h0.953
				c0.431,0,0.721-0.244,0.721-0.661S127.206,18.856,126.775,18.856"/>
		</g>
		<g>
			<defs>
				<rect id="SVGID_103_" x="4.047" y="2.332" width="152.669" height="40.368"/>
			</defs>
			<clipPath id="SVGID_104_">
				<use xlink:href="#SVGID_103_"  overflow="visible"/>
			</clipPath>
			<polygon clip-path="url(#SVGID_104_)" fill="#005E83" points="133.247,22.52 133.247,20.667 131.523,20.667 131.523,22.52 
				130.88,22.52 130.88,18.278 131.523,18.278 131.523,20.089 133.247,20.089 133.247,18.278 133.891,18.278 133.891,22.52 			"/>
		</g>
		<g>
			<defs>
				<rect id="SVGID_105_" x="4.047" y="2.332" width="152.669" height="40.368"/>
			</defs>
			<clipPath id="SVGID_106_">
				<use xlink:href="#SVGID_105_"  overflow="visible"/>
			</clipPath>
			<polygon clip-path="url(#SVGID_106_)" fill="#005E83" points="135.094,22.52 135.094,18.278 137.805,18.278 137.805,18.856 
				135.736,18.856 135.736,20.095 137.502,20.095 137.502,20.667 135.736,20.667 135.736,21.942 137.805,21.942 137.805,22.52 			
				"/>
		</g>
		<g>
			<defs>
				<rect id="SVGID_107_" x="4.047" y="2.332" width="152.669" height="40.368"/>
			</defs>
			<clipPath id="SVGID_108_">
				<use xlink:href="#SVGID_107_"  overflow="visible"/>
			</clipPath>
			<path clip-path="url(#SVGID_108_)" fill="#005E83" d="M141.361,22.52l-0.291-0.852h-1.674l-0.291,0.852h-0.687l1.556-4.242h0.519
				l1.556,4.242H141.361z M140.249,19.237l-0.662,1.883h1.306L140.249,19.237z"/>
		</g>
		<g>
			<defs>
				<rect id="SVGID_109_" x="4.047" y="2.332" width="152.669" height="40.368"/>
			</defs>
			<clipPath id="SVGID_110_">
				<use xlink:href="#SVGID_109_"  overflow="visible"/>
			</clipPath>
			<polygon clip-path="url(#SVGID_110_)" fill="#005E83" points="142.813,22.52 142.813,18.278 143.454,18.278 143.454,21.942 
				145.498,21.942 145.498,22.52 			"/>
		</g>
		<g>
			<defs>
				<rect id="SVGID_111_" x="4.047" y="2.332" width="152.669" height="40.368"/>
			</defs>
			<clipPath id="SVGID_112_">
				<use xlink:href="#SVGID_111_"  overflow="visible"/>
			</clipPath>
			<polygon clip-path="url(#SVGID_112_)" fill="#005E83" points="147.139,18.856 147.139,22.52 146.495,22.52 146.495,18.856 
				145.329,18.856 145.329,18.278 148.305,18.278 148.305,18.856 			"/>
		</g>
		<g>
			<defs>
				<rect id="SVGID_113_" x="4.047" y="2.332" width="152.669" height="40.368"/>
			</defs>
			<clipPath id="SVGID_114_">
				<use xlink:href="#SVGID_113_"  overflow="visible"/>
			</clipPath>
			<polygon clip-path="url(#SVGID_114_)" fill="#005E83" points="151.457,22.52 151.457,20.667 149.736,20.667 149.736,22.52 
				149.092,22.52 149.092,18.278 149.736,18.278 149.736,20.089 151.457,20.089 151.457,18.278 152.1,18.278 152.1,22.52 			"/>
		</g>
		<g>
			<defs>
				<rect id="SVGID_115_" x="4.047" y="2.332" width="152.669" height="40.368"/>
			</defs>
			<clipPath id="SVGID_116_">
				<use xlink:href="#SVGID_115_"  overflow="visible"/>
			</clipPath>
			<path clip-path="url(#SVGID_116_)" fill="#005E83" d="M108.492,29.729h-1.717v-4.244h1.649c0.786,0,1.281,0.447,1.281,1.164
				c0,0.457-0.287,0.785-0.572,0.898c0.326,0.131,0.638,0.447,0.638,0.982C109.771,29.311,109.242,29.729,108.492,29.729
				 M108.372,26.063h-0.953v1.217h0.953c0.41,0,0.69-0.215,0.69-0.607C109.063,26.277,108.782,26.063,108.372,26.063
				 M108.432,27.857h-1.013v1.293h1.013c0.447,0,0.697-0.275,0.697-0.65S108.879,27.857,108.432,27.857"/>
		</g>
		<g>
			<defs>
				<rect id="SVGID_117_" x="4.047" y="2.332" width="152.669" height="40.368"/>
			</defs>
			<clipPath id="SVGID_118_">
				<use xlink:href="#SVGID_117_"  overflow="visible"/>
			</clipPath>
			<polygon clip-path="url(#SVGID_118_)" fill="#005E83" points="110.727,29.729 110.727,25.484 113.438,25.484 113.438,26.063 
				111.369,26.063 111.369,27.303 113.132,27.303 113.132,27.875 111.369,27.875 111.369,29.15 113.438,29.15 113.438,29.729 			"/>
		</g>
		<g>
			<defs>
				<rect id="SVGID_119_" x="4.047" y="2.332" width="152.669" height="40.368"/>
			</defs>
			<clipPath id="SVGID_120_">
				<use xlink:href="#SVGID_119_"  overflow="visible"/>
			</clipPath>
			<polygon clip-path="url(#SVGID_120_)" fill="#005E83" points="115.754,26.063 115.754,29.729 115.109,29.729 115.109,26.063 
				113.943,26.063 113.943,25.484 116.923,25.484 116.923,26.063 			"/>
		</g>
		<g>
			<defs>
				<rect id="SVGID_121_" x="4.047" y="2.332" width="152.669" height="40.368"/>
			</defs>
			<clipPath id="SVGID_122_">
				<use xlink:href="#SVGID_121_"  overflow="visible"/>
			</clipPath>
			<polygon clip-path="url(#SVGID_122_)" fill="#005E83" points="119.091,26.063 119.091,29.729 118.445,29.729 118.445,26.063 
				117.279,26.063 117.279,25.484 120.259,25.484 120.259,26.063 			"/>
		</g>
		<g>
			<defs>
				<rect id="SVGID_123_" x="4.047" y="2.332" width="152.669" height="40.368"/>
			</defs>
			<clipPath id="SVGID_124_">
				<use xlink:href="#SVGID_123_"  overflow="visible"/>
			</clipPath>
			<polygon clip-path="url(#SVGID_124_)" fill="#005E83" points="120.988,29.729 120.988,25.484 123.701,25.484 123.701,26.063 
				121.635,26.063 121.635,27.303 123.398,27.303 123.398,27.875 121.635,27.875 121.635,29.15 123.701,29.15 123.701,29.729 			"/>
		</g>
		<g>
			<defs>
				<rect id="SVGID_125_" x="4.047" y="2.332" width="152.669" height="40.368"/>
			</defs>
			<clipPath id="SVGID_126_">
				<use xlink:href="#SVGID_125_"  overflow="visible"/>
			</clipPath>
			<path clip-path="url(#SVGID_126_)" fill="#005E83" d="M127.044,29.729l-0.894-1.787h-0.807v1.787H124.7v-4.244h1.646
				c0.805,0,1.316,0.521,1.316,1.24c0,0.608-0.369,0.996-0.848,1.127l0.979,1.877H127.044z M126.299,26.063h-0.953v1.33h0.953
				c0.43,0,0.723-0.244,0.723-0.662S126.729,26.063,126.299,26.063"/>
		</g>
		<g>
			<defs>
				<rect id="SVGID_127_" x="4.047" y="2.332" width="152.669" height="40.368"/>
			</defs>
			<clipPath id="SVGID_128_">
				<use xlink:href="#SVGID_127_"  overflow="visible"/>
			</clipPath>
			<path clip-path="url(#SVGID_128_)" fill="#005E83" d="M131.16,29.764c-0.639,0-1.098-0.147-1.501-0.561l0.43-0.424
				c0.31,0.311,0.647,0.406,1.084,0.406c0.556,0,0.875-0.238,0.875-0.649c0-0.185-0.053-0.339-0.165-0.44
				c-0.107-0.102-0.217-0.143-0.466-0.18l-0.5-0.07c-0.347-0.047-0.62-0.168-0.806-0.34c-0.211-0.195-0.311-0.465-0.311-0.811
				c0-0.739,0.536-1.246,1.42-1.246c0.559,0,0.951,0.145,1.314,0.482l-0.41,0.405c-0.264-0.25-0.566-0.328-0.924-0.328
				c-0.5,0-0.773,0.286-0.773,0.662c0,0.154,0.047,0.291,0.16,0.394c0.105,0.095,0.28,0.166,0.477,0.196l0.483,0.071
				c0.392,0.061,0.612,0.154,0.793,0.314c0.231,0.203,0.345,0.508,0.345,0.871C132.686,29.299,132.048,29.764,131.16,29.764"/>
		</g>
		<g>
			<defs>
				<rect id="SVGID_129_" x="4.047" y="2.332" width="152.669" height="40.368"/>
			</defs>
			<clipPath id="SVGID_130_">
				<use xlink:href="#SVGID_129_"  overflow="visible"/>
			</clipPath>
			<path clip-path="url(#SVGID_130_)" fill="#005E83" d="M136.039,29.311c-0.291,0.293-0.666,0.453-1.119,0.453
				c-0.452,0-0.822-0.16-1.115-0.453c-0.416-0.416-0.41-0.887-0.41-1.703c0-0.815-0.006-1.287,0.41-1.703
				c0.293-0.293,0.663-0.454,1.115-0.454c0.453,0,0.828,0.161,1.119,0.454c0.416,0.416,0.406,0.888,0.406,1.703
				C136.445,28.424,136.455,28.895,136.039,29.311 M135.551,26.29c-0.148-0.161-0.382-0.263-0.631-0.263
				c-0.251,0-0.484,0.102-0.631,0.263c-0.209,0.228-0.251,0.465-0.251,1.317c0,0.852,0.042,1.09,0.251,1.315
				c0.146,0.16,0.38,0.263,0.631,0.263c0.249,0,0.48-0.103,0.631-0.263c0.211-0.228,0.252-0.465,0.252-1.315
				C135.803,26.755,135.762,26.518,135.551,26.29"/>
		</g>
		<g>
			<defs>
				<rect id="SVGID_131_" x="4.047" y="2.332" width="152.669" height="40.368"/>
			</defs>
			<clipPath id="SVGID_132_">
				<use xlink:href="#SVGID_131_"  overflow="visible"/>
			</clipPath>
			<path clip-path="url(#SVGID_132_)" fill="#005E83" d="M138.77,29.764c-0.44,0-0.822-0.16-1.115-0.453
				c-0.418-0.416-0.411-0.887-0.411-1.703c0-0.815-0.007-1.287,0.411-1.703c0.293-0.293,0.675-0.454,1.115-0.454
				c0.78,0,1.363,0.46,1.513,1.306h-0.655c-0.102-0.429-0.386-0.729-0.857-0.729c-0.25,0-0.477,0.097-0.625,0.259
				c-0.209,0.228-0.256,0.47-0.256,1.321c0,0.853,0.047,1.097,0.256,1.322c0.148,0.16,0.375,0.256,0.625,0.256
				c0.473,0,0.764-0.297,0.863-0.726h0.649C140.139,29.305,139.537,29.764,138.77,29.764"/>
		</g>
		<g>
			<defs>
				<rect id="SVGID_133_" x="4.047" y="2.332" width="152.669" height="40.368"/>
			</defs>
			<clipPath id="SVGID_134_">
				<use xlink:href="#SVGID_133_"  overflow="visible"/>
			</clipPath>
			<rect x="141.141" y="25.484" clip-path="url(#SVGID_134_)" fill="#005E83" width="0.644" height="4.244"/>
		</g>
		<g>
			<defs>
				<rect id="SVGID_135_" x="4.047" y="2.332" width="152.669" height="40.368"/>
			</defs>
			<clipPath id="SVGID_136_">
				<use xlink:href="#SVGID_135_"  overflow="visible"/>
			</clipPath>
			<polygon clip-path="url(#SVGID_136_)" fill="#005E83" points="143.01,29.729 143.01,25.484 145.721,25.484 145.721,26.063 
				143.654,26.063 143.654,27.303 145.418,27.303 145.418,27.875 143.654,27.875 143.654,29.15 145.721,29.15 145.721,29.729 			"/>
		</g>
		<g>
			<defs>
				<rect id="SVGID_137_" x="4.047" y="2.332" width="152.669" height="40.368"/>
			</defs>
			<clipPath id="SVGID_138_">
				<use xlink:href="#SVGID_137_"  overflow="visible"/>
			</clipPath>
			<polygon clip-path="url(#SVGID_138_)" fill="#005E83" points="148.038,26.063 148.038,29.729 147.395,29.729 147.395,26.063 
				146.229,26.063 146.229,25.484 149.207,25.484 149.207,26.063 			"/>
		</g>
		<g>
			<defs>
				<rect id="SVGID_139_" x="4.047" y="2.332" width="152.669" height="40.368"/>
			</defs>
			<clipPath id="SVGID_140_">
				<use xlink:href="#SVGID_139_"  overflow="visible"/>
			</clipPath>
			<polygon clip-path="url(#SVGID_140_)" fill="#005E83" points="151.327,27.982 151.327,29.729 150.684,29.729 150.684,27.982 
				149.414,25.484 150.118,25.484 151.005,27.352 151.895,25.484 152.596,25.484 			"/>
		</g>
		<g>
			<defs>
				<rect id="SVGID_141_" x="4.047" y="2.332" width="152.669" height="40.368"/>
			</defs>
			<clipPath id="SVGID_142_">
				<use xlink:href="#SVGID_141_"  overflow="visible"/>
			</clipPath>
			<polygon clip-path="url(#SVGID_142_)" fill="#F58A1F" points="93.549,33.473 93.549,34.24 93.188,34.24 93.188,33.473 
				92.624,32.371 93.021,32.371 93.37,33.124 93.714,32.371 94.109,32.371 			"/>
		</g>
		<g>
			<defs>
				<rect id="SVGID_143_" x="4.047" y="2.332" width="152.669" height="40.368"/>
			</defs>
			<clipPath id="SVGID_144_">
				<use xlink:href="#SVGID_143_"  overflow="visible"/>
			</clipPath>
			<polygon clip-path="url(#SVGID_144_)" fill="#F58A1F" points="94.729,34.24 94.729,32.371 95.963,32.371 95.963,32.695 
				95.096,32.695 95.096,33.135 95.833,33.135 95.833,33.46 95.096,33.46 95.096,33.914 95.963,33.914 95.963,34.24 			"/>
		</g>
		<g>
			<defs>
				<rect id="SVGID_145_" x="4.047" y="2.332" width="152.669" height="40.368"/>
			</defs>
			<clipPath id="SVGID_146_">
				<use xlink:href="#SVGID_145_"  overflow="visible"/>
			</clipPath>
			<path clip-path="url(#SVGID_146_)" fill="#F58A1F" d="M97.773,34.24l-0.109-0.332H97l-0.111,0.332h-0.383l0.68-1.869h0.289
				l0.683,1.869H97.773z M97.34,32.922l-0.236,0.68h0.463L97.34,32.922z"/>
		</g>
		<g>
			<defs>
				<rect id="SVGID_147_" x="4.047" y="2.332" width="152.669" height="40.368"/>
			</defs>
			<clipPath id="SVGID_148_">
				<use xlink:href="#SVGID_147_"  overflow="visible"/>
			</clipPath>
			<path clip-path="url(#SVGID_148_)" fill="#F58A1F" d="M99.773,34.24l-0.369-0.746h-0.26v0.746h-0.363v-1.869h0.73
				c0.381,0,0.605,0.259,0.605,0.572c0,0.264-0.159,0.425-0.34,0.49l0.418,0.807H99.773z M99.49,32.695h-0.346v0.494h0.346
				c0.158,0,0.266-0.104,0.266-0.246C99.756,32.799,99.648,32.695,99.49,32.695"/>
		</g>
		<g>
			<defs>
				<rect id="SVGID_149_" x="4.047" y="2.332" width="152.669" height="40.368"/>
			</defs>
			<clipPath id="SVGID_150_">
				<use xlink:href="#SVGID_149_"  overflow="visible"/>
			</clipPath>
			<path clip-path="url(#SVGID_150_)" fill="#F58A1F" d="M101.404,34.256c-0.281,0-0.5-0.061-0.682-0.248l0.235-0.234
				c0.118,0.117,0.278,0.156,0.451,0.156c0.215,0,0.331-0.082,0.331-0.229c0-0.064-0.018-0.121-0.059-0.158
				c-0.037-0.034-0.078-0.052-0.164-0.065l-0.227-0.031c-0.161-0.022-0.277-0.072-0.363-0.154c-0.09-0.089-0.135-0.209-0.135-0.367
				c0-0.334,0.247-0.566,0.652-0.566c0.258,0,0.443,0.063,0.604,0.218l-0.23,0.229c-0.117-0.113-0.26-0.13-0.385-0.13
				c-0.192,0-0.287,0.107-0.287,0.237c0,0.046,0.017,0.097,0.056,0.134c0.034,0.033,0.097,0.063,0.172,0.074l0.222,0.03
				c0.17,0.021,0.278,0.07,0.357,0.145c0.099,0.094,0.143,0.23,0.143,0.396C102.098,34.05,101.797,34.256,101.404,34.256"/>
		</g>
		<g>
			<defs>
				<rect id="SVGID_151_" x="4.047" y="2.332" width="152.669" height="40.368"/>
			</defs>
			<clipPath id="SVGID_152_">
				<use xlink:href="#SVGID_151_"  overflow="visible"/>
			</clipPath>
			<polygon clip-path="url(#SVGID_152_)" fill="#F58A1F" points="107.08,34.348 107.08,32.762 106.678,33.111 106.678,32.723 
				107.08,32.373 107.439,32.373 107.439,34.348 			"/>
		</g>
		<g>
			<defs>
				<rect id="SVGID_153_" x="4.047" y="2.332" width="152.669" height="40.368"/>
			</defs>
			<clipPath id="SVGID_154_">
				<use xlink:href="#SVGID_153_"  overflow="visible"/>
			</clipPath>
			<path clip-path="url(#SVGID_154_)" fill="#F58A1F" d="M109.357,33.493l-0.42,0.854h-0.392l0.411-0.814
				c-0.047,0.018-0.102,0.023-0.146,0.023c-0.267,0-0.521-0.22-0.521-0.586c0-0.388,0.266-0.615,0.615-0.615
				c0.349,0,0.615,0.219,0.615,0.61C109.521,33.146,109.445,33.313,109.357,33.493 M108.904,32.682
				c-0.146,0-0.256,0.104-0.256,0.289c0,0.172,0.104,0.287,0.256,0.287c0.148,0,0.255-0.105,0.255-0.287
				C109.159,32.785,109.053,32.682,108.904,32.682"/>
		</g>
		<g>
			<defs>
				<rect id="SVGID_155_" x="4.047" y="2.332" width="152.669" height="40.368"/>
			</defs>
			<clipPath id="SVGID_156_">
				<use xlink:href="#SVGID_155_"  overflow="visible"/>
			</clipPath>
			<path clip-path="url(#SVGID_156_)" fill="#F58A1F" d="M111.225,33.493l-0.418,0.854h-0.391l0.41-0.814
				c-0.049,0.018-0.102,0.023-0.146,0.023c-0.268,0-0.521-0.22-0.521-0.586c0-0.388,0.267-0.615,0.615-0.615
				c0.35,0,0.615,0.219,0.615,0.61C111.389,33.146,111.313,33.313,111.225,33.493 M110.773,32.682c-0.147,0-0.258,0.104-0.258,0.289
				c0,0.172,0.104,0.287,0.258,0.287c0.146,0,0.254-0.105,0.254-0.287C111.027,32.785,110.919,32.682,110.773,32.682"/>
		</g>
		<g>
			<defs>
				<rect id="SVGID_157_" x="4.047" y="2.332" width="152.669" height="40.368"/>
			</defs>
			<clipPath id="SVGID_158_">
				<use xlink:href="#SVGID_157_"  overflow="visible"/>
			</clipPath>
			<path clip-path="url(#SVGID_158_)" fill="#F58A1F" d="M112.047,34.348v-0.324l0.738-0.856c0.07-0.086,0.104-0.146,0.104-0.237
				c0-0.147-0.088-0.248-0.24-0.248c-0.119,0-0.241,0.063-0.241,0.252h-0.359c0-0.359,0.263-0.576,0.603-0.576
				c0.35,0,0.599,0.219,0.599,0.574c0,0.19-0.075,0.295-0.211,0.452l-0.552,0.64h0.763v0.326h-1.202V34.348z"/>
		</g>
		<g>
			<defs>
				<rect id="SVGID_159_" x="4.047" y="2.332" width="152.669" height="40.368"/>
			</defs>
			<clipPath id="SVGID_160_">
				<use xlink:href="#SVGID_159_"  overflow="visible"/>
			</clipPath>
			<rect x="113.914" y="33.389" clip-path="url(#SVGID_160_)" fill="#F58A1F" width="0.854" height="0.336"/>
		</g>
		<g>
			<defs>
				<rect id="SVGID_161_" x="4.047" y="2.332" width="152.669" height="40.368"/>
			</defs>
			<clipPath id="SVGID_162_">
				<use xlink:href="#SVGID_161_"  overflow="visible"/>
			</clipPath>
			<path clip-path="url(#SVGID_162_)" fill="#F58A1F" d="M115.457,34.348v-0.324l0.736-0.856c0.072-0.086,0.104-0.146,0.104-0.237
				c0-0.147-0.085-0.248-0.238-0.248c-0.117,0-0.242,0.063-0.242,0.252h-0.358c0-0.359,0.263-0.576,0.603-0.576
				c0.351,0,0.6,0.219,0.6,0.574c0,0.19-0.076,0.295-0.213,0.452l-0.551,0.64h0.764v0.326h-1.203V34.348z"/>
		</g>
		<g>
			<defs>
				<rect id="SVGID_163_" x="4.047" y="2.332" width="152.669" height="40.368"/>
			</defs>
			<clipPath id="SVGID_164_">
				<use xlink:href="#SVGID_163_"  overflow="visible"/>
			</clipPath>
			<path clip-path="url(#SVGID_164_)" fill="#F58A1F" d="M117.916,34.363c-0.322,0-0.604-0.209-0.604-0.588v-0.832
				c0-0.377,0.28-0.588,0.604-0.588c0.32,0,0.6,0.211,0.6,0.588v0.832C118.516,34.154,118.236,34.363,117.916,34.363 M118.152,32.95
				c0-0.167-0.096-0.271-0.236-0.271c-0.143,0-0.242,0.104-0.242,0.271v0.823c0,0.166,0.1,0.266,0.242,0.266
				c0.141,0,0.236-0.1,0.236-0.266V32.95z"/>
		</g>
		<g>
			<defs>
				<rect id="SVGID_165_" x="4.047" y="2.332" width="152.669" height="40.368"/>
			</defs>
			<clipPath id="SVGID_166_">
				<use xlink:href="#SVGID_165_"  overflow="visible"/>
			</clipPath>
			<polygon clip-path="url(#SVGID_166_)" fill="#F58A1F" points="119.604,34.348 119.604,32.762 119.201,33.111 119.201,32.723 
				119.604,32.373 119.966,32.373 119.966,34.348 			"/>
		</g>
		<g>
			<defs>
				<rect id="SVGID_167_" x="4.047" y="2.332" width="152.669" height="40.368"/>
			</defs>
			<clipPath id="SVGID_168_">
				<use xlink:href="#SVGID_167_"  overflow="visible"/>
			</clipPath>
			<polygon clip-path="url(#SVGID_168_)" fill="#F58A1F" points="121.313,34.348 120.923,34.348 121.563,32.697 120.697,32.697 
				120.697,32.373 121.954,32.373 121.954,32.697 			"/>
		</g>
	</g>
</g>
</svg>
