<?xml version="1.0" encoding="utf-8"?>
<!-- Generator: Adobe Illustrator 13.0.0, SVG Export Plug-In . SVG Version: 6.00 Build 14948)  -->
<!DOCTYPE svg PUBLIC "-//W3C//DTD SVG 1.1//EN" "http://www.w3.org/Graphics/SVG/1.1/DTD/svg11.dtd">
<svg version="1.1" id="Layer_1" xmlns="http://www.w3.org/2000/svg" xmlns:xlink="http://www.w3.org/1999/xlink" x="0px" y="0px"
	 width="32px" height="32px" viewBox="0 0 32 32" enable-background="new 0 0 32 32" xml:space="preserve">
<linearGradient id="SVGID_1_" gradientUnits="userSpaceOnUse" x1="265.792" y1="-340.0728" x2="260.4079" y2="-370.6076" gradientTransform="matrix(1 0 0 -1 -247.5996 -339.8398)">
	<stop  offset="0" style="stop-color:#8A3AB9"/>
	<stop  offset="1" style="stop-color:#FBAD50"/>
</linearGradient>
<circle fill="url(#SVGID_1_)" cx="15.5" cy="15.5" r="15.5"/>
<g>
	<path fill="#FFFFFF" d="M21.242,5.56H9.758c-2.314,0-4.198,1.884-4.198,4.198v11.484c0,2.314,1.884,4.197,4.198,4.197h11.484
		c2.314,0,4.197-1.883,4.197-4.197V9.758C25.439,7.443,23.557,5.56,21.242,5.56z M24.43,21.242c0,1.758-1.43,3.188-3.188,3.188
		H9.758C8,24.43,6.57,23,6.57,21.242V9.758C6.57,8,8,6.57,9.758,6.57h11.484C23,6.57,24.43,8,24.43,9.758V21.242L24.43,21.242z"/>
	<path fill="#FFFFFF" d="M15.5,10.277c-2.88,0-5.223,2.343-5.223,5.223s2.343,5.223,5.223,5.223s5.223-2.343,5.223-5.223
		S18.38,10.277,15.5,10.277z M15.5,19.712c-2.322,0-4.212-1.89-4.212-4.212c0-2.322,1.89-4.212,4.212-4.212
		c2.322,0,4.212,1.89,4.212,4.212C19.712,17.822,17.822,19.712,15.5,19.712z"/>
	<circle fill="#FFFFFF" cx="20.891" cy="9.435" r="1.348"/>
</g>
</svg>
