<?xml version="1.0" encoding="utf-8"?>
<!-- Generator: Adobe Illustrator 13.0.0, SVG Export Plug-In . SVG Version: 6.00 Build 14948)  -->
<!DOCTYPE svg PUBLIC "-//W3C//DTD SVG 1.1//EN" "http://www.w3.org/Graphics/SVG/1.1/DTD/svg11.dtd">
<svg version="1.1" id="Layer_1" xmlns="http://www.w3.org/2000/svg" xmlns:xlink="http://www.w3.org/1999/xlink" x="0px" y="0px"
	 width="640px" height="290px" viewBox="0 0 640 290" enable-background="new 0 0 640 290" xml:space="preserve">
<g>
	<g>
		<g>
			<polygon fill="#EF6C00" points="78.214,155.109 -0.088,155.109 35.973,1.073 114.275,1.073 			"/>
			<g>
				<path fill="#FFFFFF" d="M49.774,73.989h20.41l-2.783,9.347h-9.563l-3.355,11.418h9.351l-2.713,9.205h-9.348l-3.567,12.062h9.918
					l-3.569,9.846H34.502L49.774,73.989z"/>
			</g>
		</g>
		<g enable-background="new    ">
			<path fill="#333333" d="M105.259,125.18V95.389h3.464v26.653h13.144v3.138H105.259L105.259,125.18z"/>
			<path fill="#333333" d="M135.845,125.586c-3.301,0-5.907-1.005-7.815-3.016c-1.909-2.01-2.863-4.801-2.863-8.375
				c0-3.6,0.887-6.459,2.659-8.578c1.772-2.12,4.153-3.179,7.142-3.179c2.798,0,5.012,0.92,6.643,2.761
				c1.631,1.841,2.445,4.269,2.445,7.284v2.14h-15.384c0.067,2.622,0.729,4.612,1.986,5.971s3.026,2.038,5.309,2.038
				c2.404,0,4.781-0.503,7.132-1.508v3.016c-1.196,0.516-2.326,0.887-3.394,1.111C138.639,125.475,137.353,125.586,135.845,125.586z
				 M134.927,105.272c-1.793,0-3.223,0.583-4.29,1.752c-1.066,1.168-1.694,2.784-1.885,4.85h11.676c0-2.133-0.476-3.767-1.427-4.901
				S136.694,105.272,134.927,105.272z"/>
			<path fill="#333333" d="M163.557,125.18l-0.672-3.179h-0.164c-1.114,1.399-2.224,2.346-3.332,2.842
				c-1.107,0.495-2.489,0.743-4.146,0.743c-2.215,0-3.95-0.57-5.206-1.711c-1.257-1.141-1.885-2.764-1.885-4.87
				c0-4.511,3.607-6.874,10.821-7.091l3.79-0.123v-1.385c0-1.753-0.377-3.045-1.131-3.882c-0.753-0.835-1.96-1.253-3.617-1.253
				c-1.861,0-3.967,0.57-6.317,1.712l-1.039-2.589c1.101-0.597,2.306-1.065,3.618-1.406c1.311-0.338,2.625-0.509,3.943-0.509
				c2.663,0,4.636,0.59,5.919,1.772c1.284,1.182,1.926,3.077,1.926,5.686v15.241h-2.507V125.18z M155.916,122.795
				c2.105,0,3.759-0.577,4.962-1.732c1.202-1.155,1.803-2.771,1.803-4.85v-2.017l-3.383,0.142c-2.69,0.095-4.629,0.513-5.818,1.253
				s-1.783,1.891-1.783,3.454c0,1.222,0.37,2.152,1.111,2.792C153.549,122.477,154.584,122.795,155.916,122.795z"/>
			<path fill="#333333" d="M183.22,102.439c0.991,0,1.881,0.081,2.669,0.245l-0.469,3.137c-0.924-0.203-1.739-0.305-2.445-0.305
				c-1.807,0-3.352,0.733-4.636,2.201c-1.284,1.466-1.926,3.294-1.926,5.481v11.982h-3.382v-22.333h2.792l0.388,4.137h0.163
				c0.829-1.453,1.827-2.574,2.996-3.362C180.538,102.834,181.822,102.439,183.22,102.439z"/>
			<path fill="#333333" d="M205.349,125.18v-14.447c0-1.82-0.414-3.179-1.242-4.075s-2.126-1.345-3.892-1.345
				c-2.337,0-4.048,0.631-5.135,1.895c-1.087,1.264-1.63,3.35-1.63,6.255v11.717h-3.383v-22.333h2.751l0.55,3.057h0.163
				c0.692-1.1,1.664-1.952,2.914-2.558c1.25-0.603,2.642-0.906,4.177-0.906c2.689,0,4.713,0.649,6.072,1.946
				c1.359,1.298,2.038,3.372,2.038,6.225v14.569h-3.383V125.18z"/>
			<path fill="#333333" d="M215.395,96.795c0-0.774,0.19-1.342,0.57-1.702c0.381-0.36,0.856-0.541,1.427-0.541
				c0.543,0,1.012,0.185,1.406,0.551c0.394,0.367,0.591,0.931,0.591,1.691c0,0.761-0.197,1.328-0.591,1.701
				c-0.394,0.374-0.863,0.56-1.406,0.56c-0.571,0-1.046-0.186-1.427-0.56C215.586,98.123,215.395,97.556,215.395,96.795z
				 M219.063,125.18h-3.382v-22.333h3.382V125.18z"/>
			<path fill="#333333" d="M241.519,125.18v-14.447c0-1.82-0.415-3.179-1.244-4.075s-2.126-1.345-3.892-1.345
				c-2.337,0-4.048,0.631-5.136,1.895c-1.087,1.264-1.63,3.35-1.63,6.255v11.717h-3.382v-22.333h2.751l0.55,3.057h0.163
				c0.692-1.1,1.664-1.952,2.914-2.558c1.25-0.603,2.643-0.906,4.178-0.906c2.689,0,4.714,0.649,6.072,1.946
				c1.359,1.298,2.039,3.372,2.039,6.225v14.569h-3.382V125.18z"/>
			<path fill="#333333" d="M270.128,102.847v2.14l-4.136,0.489c0.38,0.476,0.72,1.098,1.019,1.865s0.448,1.633,0.448,2.598
				c0,2.188-0.747,3.933-2.241,5.237c-1.494,1.303-3.546,1.956-6.153,1.956c-0.666,0-1.291-0.054-1.875-0.163
				c-1.439,0.761-2.16,1.718-2.16,2.873c0,0.611,0.251,1.063,0.753,1.355s1.366,0.438,2.588,0.438h3.953
				c2.418,0,4.276,0.509,5.573,1.528c1.297,1.019,1.946,2.5,1.946,4.442c0,2.472-0.992,4.357-2.975,5.655
				c-1.984,1.297-4.877,1.945-8.681,1.945c-2.921,0-5.172-0.543-6.755-1.629c-1.582-1.088-2.373-2.622-2.373-4.605
				c0-1.358,0.434-2.535,1.304-3.525c0.869-0.991,2.091-1.663,3.668-2.017c-0.571-0.258-1.05-0.659-1.438-1.202
				c-0.387-0.543-0.58-1.175-0.58-1.895c0-0.815,0.217-1.528,0.652-2.14c0.435-0.612,1.12-1.202,2.058-1.773
				c-1.155-0.475-2.096-1.284-2.822-2.425c-0.727-1.141-1.089-2.445-1.089-3.913c0-2.445,0.733-4.33,2.201-5.655
				c1.466-1.324,3.544-1.986,6.235-1.986c1.167,0,2.221,0.137,3.159,0.408h7.721V102.847z M252.319,128.929
				c0,1.209,0.509,2.126,1.528,2.751s2.479,0.938,4.381,0.938c2.839,0,4.941-0.424,6.307-1.273c1.364-0.85,2.047-2.001,2.047-3.455
				c0-1.208-0.374-2.047-1.121-2.516c-0.747-0.469-2.153-0.703-4.219-0.703h-4.055c-1.535,0-2.73,0.366-3.586,1.101
				C252.746,126.504,252.319,127.558,252.319,128.929z M254.153,109.999c0,1.563,0.441,2.744,1.324,3.545
				c0.883,0.802,2.112,1.203,3.688,1.203c3.301,0,4.952-1.603,4.952-4.809c0-3.355-1.671-5.034-5.013-5.034
				c-1.59,0-2.813,0.429-3.668,1.284C254.58,107.044,254.153,108.314,254.153,109.999z"/>
		</g>
	</g>
	<g enable-background="new    ">
		<path d="M156.495,153.979c0,3.624-0.916,6.474-2.749,8.549c-1.833,2.075-4.38,3.113-7.643,3.113c-3.335,0-5.908-1.019-7.72-3.059
			c-1.812-2.04-2.718-4.917-2.718-8.635c0-3.686,0.908-6.542,2.726-8.571c1.816-2.029,4.398-3.042,7.743-3.042
			c3.252,0,5.792,1.033,7.619,3.097C155.582,147.497,156.495,150.346,156.495,153.979z M138.454,153.979
			c0,3.067,0.652,5.392,1.96,6.977c1.306,1.585,3.203,2.377,5.691,2.377c2.508,0,4.403-0.789,5.684-2.369s1.92-3.907,1.92-6.984
			c0-3.046-0.638-5.355-1.914-6.931c-1.275-1.574-3.162-2.361-5.66-2.361c-2.509,0-4.416,0.792-5.722,2.377
			C139.106,148.649,138.454,150.955,138.454,153.979z"/>
		<path d="M172.772,165.33v-10.979c0-1.383-0.315-2.417-0.945-3.097c-0.63-0.682-1.616-1.022-2.958-1.022
			c-1.776,0-3.076,0.48-3.902,1.439c-0.826,0.96-1.239,2.545-1.239,4.755v8.904h-2.571v-16.973h2.091l0.418,2.322h0.124
			c0.526-0.837,1.265-1.483,2.214-1.943s2.009-0.688,3.175-0.688c2.044,0,3.582,0.492,4.615,1.479
			c1.033,0.986,1.549,2.563,1.549,4.731v11.072H172.772z"/>
		<path d="M187.793,165.641c-2.509,0-4.489-0.763-5.939-2.292c-1.45-1.527-2.176-3.649-2.176-6.364c0-2.736,0.674-4.91,2.021-6.521
			c1.348-1.61,3.157-2.416,5.428-2.416c2.127,0,3.81,0.7,5.048,2.098c1.24,1.399,1.859,3.244,1.859,5.537v1.626h-11.692
			c0.052,1.992,0.556,3.506,1.51,4.537c0.955,1.034,2.3,1.549,4.035,1.549c1.827,0,3.633-0.383,5.419-1.146v2.292
			c-0.909,0.392-1.767,0.673-2.578,0.843C189.917,165.556,188.939,165.641,187.793,165.641z M187.096,150.201
			c-1.363,0-2.449,0.443-3.26,1.33c-0.811,0.89-1.288,2.117-1.433,3.688h8.874c0-1.621-0.362-2.862-1.084-3.726
			C189.471,150.632,188.439,150.201,187.096,150.201z"/>
		<path d="M219.819,159.307c0,1.992-0.722,3.547-2.167,4.661c-1.445,1.115-3.407,1.673-5.885,1.673
			c-2.685,0-4.749-0.346-6.195-1.038v-2.54c0.929,0.394,1.941,0.702,3.035,0.929c1.094,0.228,2.178,0.341,3.252,0.341
			c1.755,0,3.076-0.334,3.965-0.998c0.888-0.666,1.332-1.592,1.332-2.78c0-0.784-0.158-1.427-0.473-1.928
			c-0.314-0.5-0.841-0.963-1.58-1.387c-0.739-0.424-1.861-0.904-3.368-1.439c-2.107-0.754-3.611-1.646-4.515-2.68
			c-0.904-1.032-1.355-2.38-1.355-4.042c0-1.745,0.655-3.134,1.967-4.166c1.311-1.032,3.044-1.548,5.203-1.548
			c2.25,0,4.321,0.413,6.21,1.239l-0.82,2.292c-1.868-0.785-3.686-1.177-5.452-1.177c-1.393,0-2.482,0.299-3.268,0.898
			c-0.785,0.598-1.177,1.43-1.177,2.492c0,0.785,0.145,1.428,0.435,1.928c0.288,0.502,0.776,0.961,1.463,1.38
			c0.687,0.416,1.736,0.879,3.151,1.386c2.375,0.846,4.008,1.755,4.902,2.725C219.372,156.499,219.819,157.758,219.819,159.307z"/>
		<path d="M229.545,163.519c0.454,0,0.893-0.033,1.316-0.1c0.423-0.068,0.759-0.138,1.007-0.21v1.966
			c-0.279,0.135-0.688,0.246-1.231,0.334c-0.542,0.087-1.03,0.132-1.464,0.132c-3.284,0-4.925-1.729-4.925-5.188v-10.098h-2.431
			v-1.239l2.431-1.068l1.084-3.624h1.487v3.934h4.924v1.998h-4.924v9.988c0,1.021,0.242,1.808,0.728,2.354
			C228.032,163.245,228.698,163.519,229.545,163.519z"/>
		<path d="M249.909,156.829c0,2.767-0.696,4.927-2.091,6.48c-1.393,1.555-3.318,2.331-5.775,2.331c-1.518,0-2.866-0.356-4.042-1.068
			c-1.177-0.713-2.086-1.734-2.726-3.066c-0.64-1.333-0.96-2.891-0.96-4.677c0-2.768,0.691-4.923,2.075-6.466
			s3.304-2.315,5.761-2.315c2.375,0,4.261,0.79,5.66,2.369C249.21,151.997,249.909,154.134,249.909,156.829z M236.978,156.829
			c0,2.168,0.435,3.82,1.301,4.955c0.867,1.137,2.142,1.703,3.825,1.703s2.96-0.564,3.833-1.695c0.873-1.13,1.309-2.784,1.309-4.963
			c0-2.158-0.436-3.797-1.309-4.917s-2.161-1.681-3.864-1.681c-1.683,0-2.953,0.553-3.81,1.657
			C237.406,152.994,236.978,154.64,236.978,156.829z"/>
		<path d="M262.314,165.641c-1.105,0-2.114-0.204-3.028-0.612c-0.913-0.407-1.68-1.035-2.299-1.882h-0.186
			c0.124,0.991,0.186,1.931,0.186,2.819v6.983h-2.57v-24.592h2.091l0.356,2.322h0.124c0.662-0.93,1.43-1.6,2.308-2.013
			c0.877-0.414,1.884-0.62,3.02-0.62c2.25,0,3.988,0.769,5.211,2.308c1.223,1.538,1.834,3.695,1.834,6.474
			c0,2.787-0.621,4.953-1.865,6.497C266.25,164.869,264.523,165.641,262.314,165.641z M261.943,150.231
			c-1.735,0-2.989,0.48-3.764,1.439c-0.774,0.96-1.172,2.489-1.192,4.584v0.573c0,2.385,0.397,4.092,1.192,5.119
			s2.069,1.54,3.825,1.54c1.465,0,2.615-0.593,3.445-1.781c0.831-1.187,1.247-2.823,1.247-4.908c0-2.116-0.416-3.74-1.247-4.871
			S263.449,150.231,261.943,150.231z"/>
		<path d="M292.172,144.719c-2.488,0-4.453,0.828-5.893,2.485c-1.44,1.657-2.161,3.926-2.161,6.806c0,2.964,0.694,5.252,2.083,6.869
			c1.389,1.615,3.368,2.423,5.939,2.423c1.579,0,3.381-0.284,5.405-0.851v2.308c-1.57,0.587-3.505,0.882-5.807,0.882
			c-3.335,0-5.908-1.012-7.72-3.035c-1.813-2.023-2.718-4.898-2.718-8.626c0-2.335,0.437-4.378,1.309-6.134
			c0.873-1.755,2.132-3.107,3.778-4.057c1.647-0.95,3.585-1.425,5.816-1.425c2.374,0,4.448,0.435,6.225,1.302l-1.115,2.261
			C295.599,145.122,293.885,144.719,292.172,144.719z"/>
		<path d="M309.269,165.641c-2.509,0-4.489-0.763-5.939-2.292c-1.451-1.527-2.176-3.649-2.176-6.364c0-2.736,0.673-4.91,2.021-6.521
			s3.157-2.416,5.428-2.416c2.126,0,3.81,0.7,5.048,2.098c1.239,1.399,1.858,3.244,1.858,5.537v1.626h-11.692
			c0.052,1.992,0.555,3.506,1.511,4.537c0.955,1.034,2.299,1.549,4.034,1.549c1.827,0,3.634-0.383,5.42-1.146v2.292
			c-0.908,0.392-1.768,0.673-2.578,0.843C311.393,165.556,310.415,165.641,309.269,165.641z M308.572,150.201
			c-1.363,0-2.449,0.443-3.26,1.33c-0.811,0.89-1.288,2.117-1.432,3.688h8.874c0-1.621-0.362-2.862-1.084-3.726
			C310.947,150.632,309.914,150.201,308.572,150.201z"/>
		<path d="M331.507,165.33v-10.979c0-1.383-0.315-2.417-0.945-3.097c-0.63-0.682-1.615-1.022-2.957-1.022
			c-1.776,0-3.077,0.48-3.902,1.439c-0.827,0.96-1.24,2.545-1.24,4.755v8.904h-2.569v-16.973h2.091l0.417,2.322h0.124
			c0.526-0.837,1.266-1.483,2.215-1.943c0.95-0.46,2.009-0.688,3.174-0.688c2.044,0,3.583,0.492,4.616,1.479
			s1.548,2.563,1.548,4.731v11.072H331.507z"/>
		<path d="M344.841,163.519c0.452,0,0.892-0.033,1.315-0.1c0.423-0.068,0.759-0.138,1.006-0.21v1.966
			c-0.278,0.135-0.688,0.246-1.23,0.334c-0.543,0.087-1.029,0.132-1.464,0.132c-3.283,0-4.925-1.729-4.925-5.188v-10.098h-2.431
			v-1.239l2.431-1.068l1.085-3.624h1.486v3.934h4.925v1.998h-4.925v9.988c0,1.021,0.242,1.808,0.729,2.354
			C343.327,163.245,343.993,163.519,344.841,163.519z"/>
		<path d="M358.299,148.048c0.753,0,1.43,0.063,2.028,0.187l-0.357,2.385c-0.702-0.154-1.321-0.232-1.857-0.232
			c-1.374,0-2.548,0.558-3.522,1.672c-0.977,1.116-1.465,2.505-1.465,4.167v9.105h-2.57v-16.973h2.121l0.294,3.143h0.124
			c0.63-1.104,1.389-1.956,2.276-2.555C356.259,148.348,357.235,148.048,358.299,148.048z"/>
		<path d="M370.672,165.641c-2.508,0-4.488-0.763-5.939-2.292c-1.45-1.527-2.176-3.649-2.176-6.364c0-2.736,0.675-4.91,2.021-6.521
			c1.349-1.61,3.158-2.416,5.429-2.416c2.126,0,3.811,0.7,5.048,2.098c1.239,1.399,1.858,3.244,1.858,5.537v1.626H365.22
			c0.052,1.992,0.556,3.506,1.511,4.537c0.955,1.034,2.3,1.549,4.034,1.549c1.827,0,3.634-0.383,5.42-1.146v2.292
			c-0.908,0.392-1.768,0.673-2.577,0.843C372.796,165.556,371.819,165.641,370.672,165.641z M369.976,150.201
			c-1.364,0-2.449,0.443-3.261,1.33c-0.811,0.89-1.288,2.117-1.432,3.688h8.873c0-1.621-0.361-2.862-1.084-3.726
			C372.35,150.632,371.318,150.201,369.976,150.201z"/>
	</g>
</g>
<g>
	
		<rect x="368.482" y="28.292" transform="matrix(-0.7071 0.7071 -0.7071 -0.7071 687.1338 -196.483)" fill="#7AAEDD" width="31.558" height="31.558"/>
	<g>
		<g>
			<defs>
				<rect id="SVGID_1_" x="338.79" y="12.506" width="300" height="79.325"/>
			</defs>
			<clipPath id="SVGID_2_">
				<use xlink:href="#SVGID_1_"  overflow="visible"/>
			</clipPath>
			<path clip-path="url(#SVGID_2_)" fill="#FFFFFF" d="M383.592,28.307c0.357,0.055,0.71,0.171,0.824,0.193
				c0.301,0.055,0.688,0,0.688,0s0.053-1.455,0.053-1.677c0-0.218,0.083-0.849-0.851-0.849c-0.936,0-0.825,0.824-0.825,0.824
				L383.592,28.307z M388.083,31.563c-0.045-1.074-0.597-1.854-1.198-2.241c-0.921-0.591-1.838-0.495-2.126-0.523
				c-0.19-0.02-0.536-0.082-0.954-0.195c-0.348-0.093-0.759-0.1-1.363-0.078c-0.798,0.026-1.152,0.438-1.43,0.521
				c-0.273,0.083-1.289,0.189-1.593,0.167c-0.357-0.029-0.507,0.085-0.465,0.272c0.053,0.247,1.183,0.631,1.183,0.631
				s-0.007,0.002-0.011,0.008c-0.239,0.02-0.444,0.096-0.733,0.208l-0.312,0.12c-0.22,0.081-0.717,0.083-0.894,0.075
				c-0.062,0-0.11,0.045-0.114,0.106c0,0.061,0.046,0.112,0.107,0.114c0.028,0,0.673,0.023,0.977-0.089l0.316-0.121
				c0.187-0.072,0.329-0.128,0.466-0.162c-0.039,0.058-0.08,0.125-0.135,0.205c-0.249,0.384,0.131,0.273,0.131,0.273
				c0.232-0.222,0.718-0.191,1.188-0.216c0.464-0.029,1.725-0.166,2.113-0.276c0.381-0.107,0.659-0.246,1.455-0.246
				c0.971,0,1.503,0.477,1.724,1.058c-0.493-0.081-0.996-0.133-1.505-0.156V30.64c0-0.165-0.347-0.248-0.633-0.22
				c-0.519,0.05-0.464,0.321-0.464,0.321l0.002,0.279c-6.807,0.283-12.258,5.908-12.258,12.785c0,6.959,5.582,12.635,12.505,12.792
				c0.049,3.053,0.043,3.047,0.043,3.138c0,0.109-0.021,0.421,0.236,0.421s0.242-0.383,0.242-0.383l0.021-3.172
				c0.369-0.008,0.729-0.033,1.09-0.065c-0.045,0.915-0.327,1.497-0.702,2.111c-0.162,0.261-0.138,0.331-0.138,0.331
				c0.998-0.879,1.331-1.768,1.373-2.506c6.176-0.914,10.927-6.242,10.927-12.661C397.152,38.046,393.326,33.166,388.083,31.563
				 M382.082,29.376c-0.248,0.027-0.707-0.007-0.707-0.007s0.411-0.246,0.651-0.295C382.355,29.011,382.429,29.337,382.082,29.376
				 M396.595,43.531h-5.445c-0.023-1.474-0.245-2.912-0.639-4.271c1.539-0.42,3.004-1.004,4.353-1.739
				C395.92,39.284,396.545,41.337,396.595,43.531 M394.567,37.054c-1.307,0.711-2.726,1.273-4.217,1.679
				c-0.397-1.213-0.938-2.357-1.604-3.399c1.159-0.244,2.287-0.581,3.348-1.015C393.048,35.101,393.883,36.021,394.567,37.054
				 M388.072,32.144c1.271,0.406,2.458,1.009,3.512,1.784c-1.01,0.389-2.072,0.697-3.161,0.916c-0.273-0.384-0.561-0.75-0.861-1.103
				C387.857,33.239,388.023,32.689,388.072,32.144 M387.23,34.21c0.203,0.24,0.406,0.483,0.586,0.738
				c-0.587,0.099-1.187,0.173-1.789,0.225c0.129-0.081,0.261-0.164,0.395-0.249C386.743,34.713,387.008,34.471,387.23,34.21
				 M386.532,31.762c0.011,0.281-0.037,0.554-0.13,0.792c-0.374-0.343-0.765-0.669-1.179-0.964
				C385.668,31.622,386.1,31.683,386.532,31.762 M384.91,32.061c0.417,0.296,0.815,0.613,1.189,0.963
				c-0.267,0.284-0.728,0.65-1.189,0.98V32.061z M384.891,35.873c0.045-0.032,0.1-0.063,0.151-0.095
				c1.055-0.04,2.098-0.147,3.121-0.331c0.69,1.049,1.249,2.202,1.657,3.432c-1.592,0.388-3.264,0.6-4.979,0.633L384.891,35.873z
				 M383.922,40.062c0.08,0.083,0.324,0.314,0.899,0.761l0.007-0.763c1.777-0.037,3.511-0.251,5.154-0.657
				c0.378,1.311,0.595,2.7,0.617,4.125h-3.46c-0.215-0.51-0.568-0.903-0.996-1.25c-0.621-0.499-1.87-1.479-2.224-1.757
				c-0.165-0.126-0.341-0.287-0.502-0.478C383.588,40.056,383.753,40.06,383.922,40.062 M382.201,51.534
				c0.017,0.141,0.045,0.268,0.078,0.395c-0.583,0.057-1.16,0.134-1.734,0.24c-0.688-1.05-1.25-2.203-1.653-3.433
				c1.521-0.371,3.12-0.578,4.763-0.626c-0.064,0.066-0.124,0.128-0.173,0.187C382.574,49.312,382.053,50.225,382.201,51.534
				 M378.728,48.209c-0.383-1.313-0.596-2.702-0.621-4.13h5.877l0.022,3.472C382.185,47.575,380.412,47.793,378.728,48.209
				 M383.842,49.749c0.037-0.042,0.1-0.109,0.176-0.187l0.016,2.267c-0.274,0.006-0.545,0.014-0.817,0.028
				c-0.012-0.069-0.029-0.137-0.035-0.212C383.099,50.571,383.617,49.998,383.842,49.749 M383.976,42.974l0.004,0.557h-5.873
				c0.027-1.425,0.238-2.814,0.619-4.123c0.904,0.221,1.833,0.389,2.777,0.501c0.646,1.503,2.216,2.508,3.404,3.389
				c0.106,0.08,0.201,0.156,0.287,0.233h-0.454C384.653,43.46,384.466,43.343,383.976,42.974 M381.307,39.323
				c-0.82-0.108-1.632-0.253-2.415-0.444c0.403-1.232,0.966-2.385,1.655-3.434c0.619,0.113,1.252,0.199,1.885,0.256
				c-0.614,0.592-1.227,1.492-1.227,2.76C381.203,38.767,381.24,39.053,381.307,39.323 M385.668,44.079
				c0.579,0.908,0.161,1.749-0.186,2.156c-0.198,0.237-0.467,0.514-0.742,0.793l0.041-2.95H385.668z M384.716,48.875
				c0.256-0.247,0.535-0.51,0.807-0.754c1.478,0.073,2.912,0.276,4.296,0.613c-0.406,1.229-0.967,2.383-1.658,3.434
				c-1.14-0.207-2.309-0.321-3.483-0.339L384.716,48.875z M386.077,47.607c0.794-0.795,1.301-1.725,1.301-2.856
				c0-0.244-0.028-0.463-0.067-0.673h3.289c-0.024,1.431-0.239,2.819-0.617,4.132C388.724,47.898,387.417,47.703,386.077,47.607
				 M383.882,39.512c-0.281-0.004-0.56-0.01-0.837-0.024c-0.138-0.275-0.221-0.587-0.221-0.941c0-1.026,0.531-1.549,1.041-1.981
				L383.882,39.512z M383.824,32.041l0.03,2.67c-0.112,0.072-0.203,0.124-0.263,0.155c-0.101,0.053-0.3,0.164-0.54,0.329
				c-0.727-0.044-1.451-0.125-2.166-0.246C381.706,33.815,382.702,32.839,383.824,32.041 M383.48,31.59
				c-1.236,0.883-2.313,1.986-3.194,3.253c-1.098-0.217-2.155-0.527-3.163-0.916C378.929,32.601,381.111,31.76,383.48,31.59
				 M376.61,34.32c1.067,0.432,2.193,0.771,3.354,1.014c-0.669,1.047-1.205,2.189-1.602,3.402c-1.497-0.407-2.916-0.97-4.223-1.681
				C374.823,36.021,375.658,35.101,376.61,34.32 M373.843,37.521c1.349,0.737,2.81,1.318,4.356,1.739
				c-0.397,1.358-0.615,2.795-0.641,4.271h-5.448C372.158,41.337,372.781,39.284,373.843,37.521 M372.109,44.079h5.448
				c0.025,1.479,0.243,2.914,0.641,4.277c-1.543,0.421-3.007,1-4.354,1.736C372.786,48.329,372.158,46.274,372.109,44.079
				 M374.138,50.559c1.308-0.712,2.729-1.271,4.223-1.68c0.398,1.213,0.938,2.358,1.602,3.402c-1.159,0.242-2.283,0.582-3.35,1.013
				C375.662,52.51,374.823,51.589,374.138,50.559 M377.125,53.686c1.009-0.389,2.07-0.697,3.164-0.913
				c0.881,1.264,1.957,2.37,3.192,3.25C381.114,55.852,378.931,55.012,377.125,53.686 M384.022,54.413
				c0.01,0.479,0.02,0.915,0.026,1.309c-1.216-0.821-2.282-1.854-3.156-3.058c0.519-0.086,1.043-0.153,1.573-0.202
				c0.397,0.835,1.136,1.293,1.677,1.691c0.202,0.146,0.777,0.539,1.169,1.111c-0.224,0.175-0.459,0.334-0.695,0.492l0.009-0.87
				L384.022,54.413z M385.224,56.022c0.122-0.085,0.229-0.184,0.345-0.27c0.027,0.073,0.053,0.146,0.069,0.223
				C385.5,55.991,385.363,56.01,385.224,56.022 M384.195,53.239c-0.163-0.153-0.52-0.432-0.769-0.845
				c0.199-0.009,0.404-0.011,0.607-0.016l0.003,0.346c0.203,0.238,0.616,0.559,0.616,0.559l0.013-0.905
				c1.062,0.018,2.117,0.117,3.148,0.287c-0.577,0.796-1.242,1.512-1.978,2.147C385.411,54.11,384.593,53.599,384.195,53.239
				 M386.211,55.906c-0.025-0.207-0.067-0.396-0.123-0.561c0.875-0.746,1.659-1.611,2.33-2.573c1.093,0.216,2.153,0.524,3.161,0.913
				C390.026,54.824,388.198,55.603,386.211,55.906 M392.088,53.292c-1.061-0.43-2.188-0.771-3.35-1.014
				c0.672-1.043,1.209-2.187,1.609-3.398c1.493,0.407,2.906,0.965,4.217,1.678C393.879,51.589,393.046,52.51,392.088,53.292
				 M394.859,50.092c-1.35-0.735-2.811-1.313-4.352-1.736c0.396-1.363,0.617-2.798,0.641-4.277h5.445
				C396.545,46.274,395.92,48.329,394.859,50.092"/>
		</g>
		<g>
			<defs>
				<rect id="SVGID_3_" x="338.79" y="12.506" width="300" height="79.325"/>
			</defs>
			<clipPath id="SVGID_4_">
				<use xlink:href="#SVGID_3_"  overflow="visible"/>
			</clipPath>
			<polygon clip-path="url(#SVGID_4_)" fill="#005E83" points="407.515,43.837 416.421,43.837 420.551,57.561 424.619,43.837 
				433.531,43.837 433.531,66.422 427.026,66.422 426.965,52.815 423.087,66.422 417.957,66.422 414.018,52.815 414.018,66.422 
				407.515,66.422 			"/>
		</g>
		<g>
			<defs>
				<rect id="SVGID_5_" x="338.79" y="12.506" width="300" height="79.325"/>
			</defs>
			<clipPath id="SVGID_6_">
				<use xlink:href="#SVGID_5_"  overflow="visible"/>
			</clipPath>
			<path clip-path="url(#SVGID_6_)" fill="#005E83" d="M456.85,57.649c0,6.24-3.506,9.234-10.651,9.234
				c-7.145,0-10.685-2.995-10.685-9.234V43.837h7.211v12.264c0,2.304,0,5.171,3.508,5.171c3.405,0,3.405-2.867,3.405-5.171V43.837
				h7.212V57.649L456.85,57.649z"/>
		</g>
		<g>
			<defs>
				<rect id="SVGID_7_" x="338.79" y="12.506" width="300" height="79.325"/>
			</defs>
			<clipPath id="SVGID_8_">
				<use xlink:href="#SVGID_7_"  overflow="visible"/>
			</clipPath>
			<rect x="400.83" y="43.837" clip-path="url(#SVGID_8_)" fill="#005E83" width="1.869" height="22.585"/>
		</g>
		<g>
			<defs>
				<rect id="SVGID_9_" x="338.79" y="12.506" width="300" height="79.325"/>
			</defs>
			<clipPath id="SVGID_10_">
				<use xlink:href="#SVGID_9_"  overflow="visible"/>
			</clipPath>
			<rect x="397.98" y="43.837" clip-path="url(#SVGID_10_)" fill="#005E83" width="1.88" height="22.585"/>
		</g>
		<g>
			<defs>
				<rect id="SVGID_11_" x="338.79" y="12.506" width="300" height="79.325"/>
			</defs>
			<clipPath id="SVGID_12_">
				<use xlink:href="#SVGID_11_"  overflow="visible"/>
			</clipPath>
			<rect x="403.67" y="43.837" clip-path="url(#SVGID_12_)" fill="#005E83" width="1.87" height="22.585"/>
		</g>
		<g>
			<defs>
				<rect id="SVGID_13_" x="338.79" y="12.506" width="300" height="79.325"/>
			</defs>
			<clipPath id="SVGID_14_">
				<use xlink:href="#SVGID_13_"  overflow="visible"/>
			</clipPath>
			<path clip-path="url(#SVGID_14_)" fill="#231F20" d="M349.952,70.82v0.223c-0.517,0-0.625,0.119-0.625,0.429v3.194
				c0,0.316,0.109,0.433,0.625,0.433v0.225h-1.925V75.1c0.518,0,0.627-0.117,0.627-0.433v-3.194c0-0.311-0.111-0.429-0.627-0.429
				V70.82H349.952z"/>
		</g>
		<g>
			<defs>
				<rect id="SVGID_15_" x="338.79" y="12.506" width="300" height="79.325"/>
			</defs>
			<clipPath id="SVGID_16_">
				<use xlink:href="#SVGID_15_"  overflow="visible"/>
			</clipPath>
			<path clip-path="url(#SVGID_16_)" fill="#231F20" d="M351.403,70.82l2.358,3.374h0.013v-2.721c0-0.311-0.111-0.429-0.648-0.429
				V70.82h1.494v0.223c-0.458,0-0.567,0.119-0.567,0.429v3.888h-0.26l-2.572-3.638h-0.008v2.944c0,0.316,0.109,0.433,0.686,0.433
				v0.225h-1.611V75.1c0.538,0,0.647-0.117,0.647-0.433v-3.355c-0.205-0.242-0.328-0.268-0.658-0.268V70.82H351.403z"/>
		</g>
		<g>
			<defs>
				<rect id="SVGID_17_" x="338.79" y="12.506" width="300" height="79.325"/>
			</defs>
			<clipPath id="SVGID_18_">
				<use xlink:href="#SVGID_17_"  overflow="visible"/>
			</clipPath>
			<path clip-path="url(#SVGID_18_)" fill="#231F20" d="M358.498,72.364c-0.136-0.824-0.438-1.32-1.358-1.32v3.623
				c0,0.316,0.107,0.433,0.627,0.433v0.225h-1.924V75.1c0.518,0,0.629-0.117,0.629-0.433v-3.623c-0.924,0-1.223,0.497-1.36,1.32
				h-0.204l0.041-1.543h1.856h1.858l0.042,1.543H358.498z"/>
		</g>
		<g>
			<defs>
				<rect id="SVGID_19_" x="338.79" y="12.506" width="300" height="79.325"/>
			</defs>
			<clipPath id="SVGID_20_">
				<use xlink:href="#SVGID_19_"  overflow="visible"/>
			</clipPath>
			<path clip-path="url(#SVGID_20_)" fill="#231F20" d="M362.817,75.325h-3.819V75.1c0.497,0,0.607-0.117,0.607-0.433v-3.194
				c0-0.311-0.11-0.429-0.607-0.429V70.82h3.708l0.036,1.611h-0.204c-0.312-0.997-0.677-1.388-1.545-1.388
				c-0.391,0-0.716,0.104-0.716,0.429v1.39c0.686-0.014,0.981-0.077,1.085-0.794l0.186-0.004v1.808h-0.186
				c-0.104-0.706-0.399-0.775-1.085-0.783v1.726c0,0.208,0.135,0.285,0.538,0.285c0.875,0,1.557-0.196,1.843-1.458h0.204
				L362.817,75.325z"/>
		</g>
		<g>
			<defs>
				<rect id="SVGID_21_" x="338.79" y="12.506" width="300" height="79.325"/>
			</defs>
			<clipPath id="SVGID_22_">
				<use xlink:href="#SVGID_21_"  overflow="visible"/>
			</clipPath>
			<path clip-path="url(#SVGID_22_)" fill="#231F20" d="M367.425,74.382c0,0.536-0.178,0.979-0.775,0.979
				c-0.494,0-0.741-0.43-0.741-1.033c0-1.05-0.317-1.189-1.011-1.189h-0.255v1.527c0,0.316,0.11,0.433,0.648,0.433v0.225h-1.924
				V75.1c0.496,0,0.607-0.117,0.607-0.433v-3.194c0-0.311-0.111-0.429-0.607-0.429V70.82h2.362c1.081,0,1.41,0.679,1.41,1.125
				c0,0.825-0.796,1.143-1.563,1.143v0.014c1.264,0.206,0.865,1.802,1.424,1.802c0.176,0,0.239-0.307,0.239-0.522H367.425z
				 M364.645,72.9c0.19,0.008,0.45,0.014,0.754,0.014c0.592,0,1.039-0.19,1.039-0.877c0-0.595-0.282-0.994-1.052-0.994
				c-0.563,0-0.741,0.107-0.741,0.375V72.9z"/>
		</g>
		<g>
			<defs>
				<rect id="SVGID_23_" x="338.79" y="12.506" width="300" height="79.325"/>
			</defs>
			<clipPath id="SVGID_24_">
				<use xlink:href="#SVGID_23_"  overflow="visible"/>
			</clipPath>
			<path clip-path="url(#SVGID_24_)" fill="#231F20" d="M368.862,70.82l2.354,3.374h0.015v-2.721c0-0.311-0.111-0.429-0.647-0.429
				V70.82h1.49v0.223c-0.456,0-0.568,0.119-0.568,0.429v3.888h-0.256l-2.572-3.638h-0.015v2.944c0,0.316,0.115,0.433,0.693,0.433
				v0.225h-1.615V75.1c0.538,0,0.649-0.117,0.649-0.433v-3.355c-0.209-0.242-0.328-0.268-0.66-0.268V70.82H368.862z"/>
		</g>
		<g>
			<defs>
				<rect id="SVGID_25_" x="338.79" y="12.506" width="300" height="79.325"/>
			</defs>
			<clipPath id="SVGID_26_">
				<use xlink:href="#SVGID_25_"  overflow="visible"/>
			</clipPath>
			<path clip-path="url(#SVGID_26_)" fill="#231F20" d="M372.187,75.325V75.1c0.528,0,0.668-0.292,0.812-0.692l1.318-3.614h0.237
				l1.436,3.685c0.194,0.504,0.342,0.621,0.724,0.621v0.225h-1.818V75.1c0.49,0,0.521-0.05,0.521-0.241
				c0-0.137-0.193-0.665-0.369-1.039h-1.543c-0.111,0.367-0.301,0.76-0.301,0.942c0,0.246,0.13,0.338,0.693,0.338v0.225H372.187z
				 M374.942,73.545l-0.696-1.723l-0.654,1.723H374.942z"/>
		</g>
		<g>
			<defs>
				<rect id="SVGID_27_" x="338.79" y="12.506" width="300" height="79.325"/>
			</defs>
			<clipPath id="SVGID_28_">
				<use xlink:href="#SVGID_27_"  overflow="visible"/>
			</clipPath>
			<path clip-path="url(#SVGID_28_)" fill="#231F20" d="M379.836,72.364c-0.135-0.824-0.436-1.32-1.359-1.32v3.623
				c0,0.316,0.113,0.433,0.627,0.433v0.225h-1.924V75.1c0.52,0,0.63-0.117,0.63-0.433v-3.623c-0.926,0-1.224,0.497-1.358,1.32
				h-0.206l0.04-1.543h1.862h1.856l0.04,1.543H379.836z"/>
		</g>
		<g>
			<defs>
				<rect id="SVGID_29_" x="338.79" y="12.506" width="300" height="79.325"/>
			</defs>
			<clipPath id="SVGID_30_">
				<use xlink:href="#SVGID_29_"  overflow="visible"/>
			</clipPath>
			<path clip-path="url(#SVGID_30_)" fill="#231F20" d="M382.19,70.82v0.223c-0.514,0-0.625,0.119-0.625,0.429v3.194
				c0,0.316,0.112,0.433,0.625,0.433v0.225h-1.921V75.1c0.517,0,0.625-0.117,0.625-0.433v-3.194c0-0.311-0.11-0.429-0.625-0.429
				V70.82H382.19z"/>
		</g>
		<g>
			<defs>
				<rect id="SVGID_31_" x="338.79" y="12.506" width="300" height="79.325"/>
			</defs>
			<clipPath id="SVGID_32_">
				<use xlink:href="#SVGID_31_"  overflow="visible"/>
			</clipPath>
			<path clip-path="url(#SVGID_32_)" fill="#231F20" d="M386.816,73.07c0,1.212-0.872,2.329-2.13,2.329
				c-1.26,0-2.137-1.117-2.137-2.329c0-1.211,0.877-2.332,2.137-2.332C385.944,70.74,386.816,71.86,386.816,73.07 M383.312,73.07
				c0,1.422,0.434,2.107,1.374,2.107c0.943,0,1.374-0.687,1.374-2.107s-0.431-2.108-1.374-2.108
				C383.745,70.962,383.312,71.65,383.312,73.07"/>
		</g>
		<g>
			<defs>
				<rect id="SVGID_33_" x="338.79" y="12.506" width="300" height="79.325"/>
			</defs>
			<clipPath id="SVGID_34_">
				<use xlink:href="#SVGID_33_"  overflow="visible"/>
			</clipPath>
			<path clip-path="url(#SVGID_34_)" fill="#231F20" d="M388.367,70.82l2.355,3.374h0.016v-2.721c0-0.311-0.107-0.429-0.647-0.429
				V70.82h1.492v0.223c-0.455,0-0.569,0.119-0.569,0.429v3.888h-0.257l-2.57-3.638h-0.012v2.944c0,0.316,0.108,0.433,0.687,0.433
				v0.225h-1.609V75.1c0.535,0,0.647-0.117,0.647-0.433v-3.355c-0.208-0.242-0.327-0.268-0.663-0.268V70.82H388.367z"/>
		</g>
		<g>
			<defs>
				<rect id="SVGID_35_" x="338.79" y="12.506" width="300" height="79.325"/>
			</defs>
			<clipPath id="SVGID_36_">
				<use xlink:href="#SVGID_35_"  overflow="visible"/>
			</clipPath>
			<path clip-path="url(#SVGID_36_)" fill="#231F20" d="M391.468,75.325V75.1c0.53,0,0.668-0.292,0.81-0.692l1.322-3.614h0.233
				l1.435,3.685c0.199,0.504,0.347,0.621,0.726,0.621v0.225h-1.819V75.1c0.491,0,0.519-0.05,0.519-0.241
				c0-0.137-0.193-0.665-0.37-1.039h-1.543c-0.112,0.367-0.302,0.76-0.302,0.942c0,0.246,0.131,0.338,0.694,0.338v0.225H391.468z
				 M394.222,73.545l-0.691-1.723l-0.658,1.723H394.222z"/>
		</g>
		<g>
			<defs>
				<rect id="SVGID_37_" x="338.79" y="12.506" width="300" height="79.325"/>
			</defs>
			<clipPath id="SVGID_38_">
				<use xlink:href="#SVGID_37_"  overflow="visible"/>
			</clipPath>
			<path clip-path="url(#SVGID_38_)" fill="#231F20" d="M399.453,75.325h-3.432V75.1c0.479,0,0.591-0.117,0.591-0.433v-3.194
				c0-0.311-0.112-0.429-0.574-0.429V70.82h1.87v0.223c-0.519,0-0.63,0.119-0.63,0.429v3.194c0,0.316,0.145,0.433,0.479,0.433
				c0.559,0,1.244-0.196,1.525-1.458h0.207L399.453,75.325z"/>
		</g>
		<g>
			<defs>
				<rect id="SVGID_39_" x="338.79" y="12.506" width="300" height="79.325"/>
			</defs>
			<clipPath id="SVGID_40_">
				<use xlink:href="#SVGID_39_"  overflow="visible"/>
			</clipPath>
			<path clip-path="url(#SVGID_40_)" fill="#231F20" d="M407.117,70.82v0.223c-0.475,0-0.587,0.119-0.587,0.429v3.194
				c0,0.316,0.112,0.433,0.646,0.433v0.225h-1.9V75.1c0.477,0,0.59-0.117,0.59-0.433V71.07h-0.018l-1.39,4.255h-0.228l-1.346-4.228
				h-0.009v3.243c0,0.564,0.109,0.76,0.651,0.76v0.225h-1.568V75.1c0.529,0,0.639-0.196,0.639-0.76v-2.867
				c0-0.311-0.112-0.429-0.639-0.429V70.82h1.535l1.067,3.351h0.011l1.097-3.351H407.117z"/>
		</g>
		<g>
			<defs>
				<rect id="SVGID_41_" x="338.79" y="12.506" width="300" height="79.325"/>
			</defs>
			<clipPath id="SVGID_42_">
				<use xlink:href="#SVGID_41_"  overflow="visible"/>
			</clipPath>
			<path clip-path="url(#SVGID_42_)" fill="#231F20" d="M411.305,75.325h-3.823V75.1c0.495,0,0.613-0.117,0.613-0.433v-3.194
				c0-0.311-0.118-0.429-0.613-0.429V70.82h3.709l0.039,1.611h-0.204c-0.314-0.997-0.68-1.388-1.553-1.388
				c-0.382,0-0.714,0.104-0.714,0.429v1.39c0.692-0.014,0.985-0.077,1.091-0.794l0.18-0.004v1.808h-0.184
				c-0.105-0.706-0.397-0.775-1.091-0.783v1.726c0,0.208,0.141,0.285,0.538,0.285c0.879,0,1.56-0.196,1.846-1.458h0.202
				L411.305,75.325z"/>
		</g>
		<g>
			<defs>
				<rect id="SVGID_43_" x="338.79" y="12.506" width="300" height="79.325"/>
			</defs>
			<clipPath id="SVGID_44_">
				<use xlink:href="#SVGID_43_"  overflow="visible"/>
			</clipPath>
			<path clip-path="url(#SVGID_44_)" fill="#231F20" d="M411.853,70.82h2.124c0.966,0,2.131,0.72,2.131,2.253
				c0,1.527-1.149,2.251-2.08,2.251h-2.175V75.1c0.507,0,0.615-0.117,0.615-0.433v-3.194c0-0.311-0.11-0.429-0.615-0.429V70.82z
				 M413.139,74.628c0,0.38,0.097,0.472,0.68,0.472c1.3,0,1.532-0.798,1.532-2.022c0-1.578-0.514-2.034-1.532-2.034
				c-0.583,0-0.68,0.09-0.68,0.472V74.628z"/>
		</g>
		<g>
			<defs>
				<rect id="SVGID_45_" x="338.79" y="12.506" width="300" height="79.325"/>
			</defs>
			<clipPath id="SVGID_46_">
				<use xlink:href="#SVGID_45_"  overflow="visible"/>
			</clipPath>
			<path clip-path="url(#SVGID_46_)" fill="#231F20" d="M418.432,70.82v0.223c-0.515,0-0.628,0.119-0.628,0.429v3.194
				c0,0.316,0.115,0.433,0.628,0.433v0.225h-1.923V75.1c0.514,0,0.627-0.117,0.627-0.433v-3.194c0-0.311-0.115-0.429-0.627-0.429
				V70.82H418.432z"/>
		</g>
		<g>
			<defs>
				<rect id="SVGID_47_" x="338.79" y="12.506" width="300" height="79.325"/>
			</defs>
			<clipPath id="SVGID_48_">
				<use xlink:href="#SVGID_47_"  overflow="visible"/>
			</clipPath>
			<path clip-path="url(#SVGID_48_)" fill="#231F20" d="M422.502,70.859v1.543h-0.177c-0.204-0.726-0.514-1.44-1.349-1.44
				c-0.941,0-1.374,0.688-1.374,2.108c0,1.571,0.783,2.107,1.354,2.107c1.04,0,1.421-0.687,1.498-1.555h0.186
				c-0.058,1.075-0.57,1.775-1.802,1.775c-1.115,0-1.993-1.115-1.993-2.327s0.876-2.334,2.067-2.334
				c0.581,0,1.055,0.369,1.166,0.369c0.113,0,0.227-0.131,0.269-0.25h0.155V70.859z"/>
		</g>
		<g>
			<defs>
				<rect id="SVGID_49_" x="338.79" y="12.506" width="300" height="79.325"/>
			</defs>
			<clipPath id="SVGID_50_">
				<use xlink:href="#SVGID_49_"  overflow="visible"/>
			</clipPath>
			<path clip-path="url(#SVGID_50_)" fill="#231F20" d="M422.848,75.325V75.1c0.534,0,0.671-0.292,0.812-0.692l1.326-3.614h0.232
				l1.435,3.685c0.195,0.504,0.346,0.621,0.722,0.621v0.225h-1.818V75.1c0.494,0,0.519-0.05,0.519-0.241
				c0-0.137-0.188-0.665-0.366-1.039h-1.543c-0.113,0.367-0.305,0.76-0.305,0.942c0,0.246,0.135,0.338,0.695,0.338v0.225H422.848z
				 M425.608,73.545l-0.696-1.723l-0.65,1.723H425.608z"/>
		</g>
		<g>
			<defs>
				<rect id="SVGID_51_" x="338.79" y="12.506" width="300" height="79.325"/>
			</defs>
			<clipPath id="SVGID_52_">
				<use xlink:href="#SVGID_51_"  overflow="visible"/>
			</clipPath>
			<path clip-path="url(#SVGID_52_)" fill="#231F20" d="M430.837,75.325h-3.43V75.1c0.476,0,0.585-0.117,0.585-0.433v-3.194
				c0-0.311-0.109-0.429-0.575-0.429V70.82h1.871v0.223c-0.515,0-0.624,0.119-0.624,0.429v3.194c0,0.316,0.14,0.433,0.477,0.433
				c0.562,0,1.245-0.196,1.532-1.458h0.203L430.837,75.325z"/>
		</g>
		<g>
			<defs>
				<rect id="SVGID_53_" x="338.79" y="12.506" width="300" height="79.325"/>
			</defs>
			<clipPath id="SVGID_54_">
				<use xlink:href="#SVGID_53_"  overflow="visible"/>
			</clipPath>
			<path clip-path="url(#SVGID_54_)" fill="#231F20" d="M434.908,71.043c-0.52,0-0.631,0.119-0.631,0.429v2.626
				c0,0.698,0.348,1.082,1.067,1.082c0.952,0,1.316-0.564,1.316-1.297v-2.215c0-0.353-0.065-0.623-0.7-0.623v-0.223h1.576v0.223
				c-0.573,0-0.638,0.272-0.638,0.623v2.269c0,0.943-0.69,1.462-1.628,1.462c-1.014,0-1.661-0.403-1.661-1.32v-2.606
				c0-0.311-0.111-0.429-0.624-0.429V70.82h1.924v0.223H434.908z"/>
		</g>
		<g>
			<defs>
				<rect id="SVGID_55_" x="338.79" y="12.506" width="300" height="79.325"/>
			</defs>
			<clipPath id="SVGID_56_">
				<use xlink:href="#SVGID_55_"  overflow="visible"/>
			</clipPath>
			<path clip-path="url(#SVGID_56_)" fill="#231F20" d="M438.947,70.82l2.356,3.374h0.014v-2.721c0-0.311-0.112-0.429-0.646-0.429
				V70.82h1.488v0.223c-0.456,0-0.568,0.119-0.568,0.429v3.888h-0.256l-2.573-3.638h-0.013v2.944c0,0.316,0.114,0.433,0.688,0.433
				v0.225h-1.61V75.1c0.535,0,0.646-0.117,0.646-0.433v-3.355c-0.206-0.242-0.327-0.268-0.659-0.268V70.82H438.947z"/>
		</g>
		<g>
			<defs>
				<rect id="SVGID_57_" x="338.79" y="12.506" width="300" height="79.325"/>
			</defs>
			<clipPath id="SVGID_58_">
				<use xlink:href="#SVGID_57_"  overflow="visible"/>
			</clipPath>
			<path clip-path="url(#SVGID_58_)" fill="#231F20" d="M444.396,70.82v0.223c-0.516,0-0.629,0.119-0.629,0.429v3.194
				c0,0.316,0.115,0.433,0.629,0.433v0.225h-1.924V75.1c0.519,0,0.628-0.117,0.628-0.433v-3.194c0-0.311-0.111-0.429-0.628-0.429
				V70.82H444.396z"/>
		</g>
		<g>
			<defs>
				<rect id="SVGID_59_" x="338.79" y="12.506" width="300" height="79.325"/>
			</defs>
			<clipPath id="SVGID_60_">
				<use xlink:href="#SVGID_59_"  overflow="visible"/>
			</clipPath>
			<path clip-path="url(#SVGID_60_)" fill="#231F20" d="M444.477,70.82h1.829v0.223c-0.423,0-0.586,0.104-0.586,0.263
				c0,0.144,0.069,0.313,0.142,0.516l0.892,2.533h0.015l0.885-2.617c0.047-0.125,0.067-0.265,0.067-0.399
				c0-0.261-0.188-0.293-0.524-0.293v-0.223h1.388v0.223c-0.309,0-0.464,0.136-0.563,0.418l-1.346,3.861h-0.277l-1.282-3.798
				c-0.142-0.426-0.302-0.483-0.639-0.483V70.82z"/>
		</g>
		<g>
			<defs>
				<rect id="SVGID_61_" x="338.79" y="12.506" width="300" height="79.325"/>
			</defs>
			<clipPath id="SVGID_62_">
				<use xlink:href="#SVGID_61_"  overflow="visible"/>
			</clipPath>
			<path clip-path="url(#SVGID_62_)" fill="#231F20" d="M452.541,75.325h-3.824V75.1c0.5,0,0.611-0.117,0.611-0.433v-3.194
				c0-0.311-0.111-0.429-0.611-0.429V70.82h3.706l0.041,1.611h-0.207c-0.312-0.997-0.682-1.388-1.55-1.388
				c-0.386,0-0.714,0.104-0.714,0.429v1.39c0.688-0.014,0.979-0.077,1.085-0.794l0.186-0.004v1.808h-0.186
				c-0.105-0.706-0.397-0.775-1.085-0.783v1.726c0,0.208,0.134,0.285,0.539,0.285c0.874,0,1.552-0.196,1.843-1.458h0.204
				L452.541,75.325z"/>
		</g>
		<g>
			<defs>
				<rect id="SVGID_63_" x="338.79" y="12.506" width="300" height="79.325"/>
			</defs>
			<clipPath id="SVGID_64_">
				<use xlink:href="#SVGID_63_"  overflow="visible"/>
			</clipPath>
			<path clip-path="url(#SVGID_64_)" fill="#231F20" d="M457.145,74.382c0,0.536-0.177,0.979-0.779,0.979
				c-0.49,0-0.742-0.43-0.742-1.033c0-1.05-0.309-1.189-1.007-1.189h-0.251v1.527c0,0.316,0.109,0.433,0.641,0.433v0.225h-1.921
				V75.1c0.493,0,0.61-0.117,0.61-0.433v-3.194c0-0.311-0.117-0.429-0.61-0.429V70.82h2.362c1.078,0,1.412,0.679,1.412,1.125
				c0,0.825-0.796,1.143-1.564,1.143v0.014c1.266,0.206,0.864,1.802,1.422,1.802c0.178,0,0.245-0.307,0.245-0.522H457.145z
				 M454.367,72.9c0.184,0.008,0.448,0.014,0.75,0.014c0.589,0,1.04-0.19,1.04-0.877c0-0.595-0.282-0.994-1.055-0.994
				c-0.563,0-0.735,0.107-0.735,0.375V72.9z"/>
		</g>
		<g>
			<defs>
				<rect id="SVGID_65_" x="338.79" y="12.506" width="300" height="79.325"/>
			</defs>
			<clipPath id="SVGID_66_">
				<use xlink:href="#SVGID_65_"  overflow="visible"/>
			</clipPath>
			<path clip-path="url(#SVGID_66_)" fill="#231F20" d="M457.55,73.66h0.185c0.126,0.733,0.649,1.517,1.468,1.517
				c0.488,0,0.972-0.318,0.972-0.851c0-1.474-2.616-0.604-2.616-2.343c0-0.785,0.7-1.245,1.403-1.245c0.594,0,0.909,0.38,1.064,0.38
				c0.098,0,0.185-0.234,0.204-0.3h0.222v1.514h-0.182c-0.172-0.644-0.546-1.372-1.305-1.372c-0.495,0-0.871,0.271-0.871,0.793
				c0,1.25,2.621,0.576,2.621,2.188c0,0.906-0.7,1.455-1.572,1.455c-0.615,0-0.854-0.34-1.103-0.34
				c-0.168,0-0.227,0.141-0.306,0.301h-0.185V73.66z"/>
		</g>
		<g>
			<defs>
				<rect id="SVGID_67_" x="338.79" y="12.506" width="300" height="79.325"/>
			</defs>
			<clipPath id="SVGID_68_">
				<use xlink:href="#SVGID_67_"  overflow="visible"/>
			</clipPath>
			<path clip-path="url(#SVGID_68_)" fill="#231F20" d="M462.947,70.82v0.223c-0.521,0-0.631,0.119-0.631,0.429v3.194
				c0,0.316,0.11,0.433,0.631,0.433v0.225h-1.926V75.1c0.517,0,0.63-0.117,0.63-0.433v-3.194c0-0.311-0.115-0.429-0.63-0.429V70.82
				H462.947z"/>
		</g>
		<g>
			<defs>
				<rect id="SVGID_69_" x="338.79" y="12.506" width="300" height="79.325"/>
			</defs>
			<clipPath id="SVGID_70_">
				<use xlink:href="#SVGID_69_"  overflow="visible"/>
			</clipPath>
			<path clip-path="url(#SVGID_70_)" fill="#231F20" d="M466.766,72.364c-0.135-0.824-0.436-1.32-1.356-1.32v3.623
				c0,0.316,0.11,0.433,0.624,0.433v0.225h-1.923V75.1c0.52,0,0.627-0.117,0.627-0.433v-3.623c-0.923,0-1.224,0.497-1.357,1.32
				h-0.204l0.04-1.543h1.858h1.854l0.041,1.543H466.766z"/>
		</g>
		<g>
			<defs>
				<rect id="SVGID_71_" x="338.79" y="12.506" width="300" height="79.325"/>
			</defs>
			<clipPath id="SVGID_72_">
				<use xlink:href="#SVGID_71_"  overflow="visible"/>
			</clipPath>
			<path clip-path="url(#SVGID_72_)" fill="#231F20" d="M467.106,70.82h1.854v0.223c-0.391,0-0.547,0.065-0.547,0.219
				c0,0.226,0.768,1.525,0.874,1.824c0.123-0.278,0.906-1.494,0.906-1.829c0-0.138-0.148-0.214-0.558-0.214V70.82h1.497v0.223
				c-0.471,0-0.555,0.161-0.797,0.618l-0.924,1.749v1.256c0,0.316,0.114,0.433,0.705,0.433v0.225h-2.054V75.1
				c0.572,0,0.682-0.117,0.682-0.433v-1.256l-1.003-1.968c-0.176-0.35-0.301-0.399-0.637-0.399V70.82z"/>
		</g>
		<g>
			<defs>
				<rect id="SVGID_73_" x="338.79" y="12.506" width="300" height="79.325"/>
			</defs>
			<clipPath id="SVGID_74_">
				<use xlink:href="#SVGID_73_"  overflow="visible"/>
			</clipPath>
			<path clip-path="url(#SVGID_74_)" fill="#231F20" d="M398.986,78.144v0.222c-0.472,0-0.583,0.119-0.583,0.435v3.192
				c0,0.315,0.111,0.434,0.64,0.434v0.223h-1.895v-0.223c0.474,0,0.586-0.119,0.586-0.434v-3.6h-0.014l-1.396,4.256h-0.229
				l-1.342-4.229h-0.013v3.248c0,0.563,0.113,0.759,0.653,0.759v0.223h-1.569v-0.223c0.527,0,0.639-0.196,0.639-0.759V78.8
				c0-0.316-0.113-0.435-0.639-0.435v-0.222h1.538l1.065,3.354h0.016l1.095-3.354H398.986z"/>
		</g>
		<g>
			<defs>
				<rect id="SVGID_75_" x="338.79" y="12.506" width="300" height="79.325"/>
			</defs>
			<clipPath id="SVGID_76_">
				<use xlink:href="#SVGID_75_"  overflow="visible"/>
			</clipPath>
			<path clip-path="url(#SVGID_76_)" fill="#231F20" d="M399.08,82.649v-0.223c0.532,0,0.671-0.292,0.814-0.694l1.322-3.615h0.238
				l1.433,3.688c0.2,0.503,0.35,0.62,0.725,0.62v0.224h-1.817v-0.224c0.495,0,0.517-0.048,0.517-0.242
				c0-0.136-0.188-0.664-0.364-1.043H400.4c-0.111,0.37-0.303,0.761-0.303,0.944c0,0.25,0.133,0.342,0.698,0.342v0.224H399.08
				L399.08,82.649z M401.84,80.868l-0.692-1.723l-0.658,1.723H401.84z"/>
		</g>
		<g>
			<defs>
				<rect id="SVGID_77_" x="338.79" y="12.506" width="300" height="79.325"/>
			</defs>
			<clipPath id="SVGID_78_">
				<use xlink:href="#SVGID_77_"  overflow="visible"/>
			</clipPath>
			<path clip-path="url(#SVGID_78_)" fill="#231F20" d="M407.076,82.649h-3.437v-0.223c0.484,0,0.592-0.119,0.592-0.434V78.8
				c0-0.316-0.107-0.435-0.573-0.435v-0.222h1.87v0.222c-0.515,0-0.624,0.119-0.624,0.435v3.192c0,0.315,0.14,0.434,0.478,0.434
				c0.562,0,1.243-0.196,1.53-1.46h0.205L407.076,82.649z"/>
		</g>
		<g>
			<defs>
				<rect id="SVGID_79_" x="338.79" y="12.506" width="300" height="79.325"/>
			</defs>
			<clipPath id="SVGID_80_">
				<use xlink:href="#SVGID_79_"  overflow="visible"/>
			</clipPath>
			<path clip-path="url(#SVGID_80_)" fill="#231F20" d="M407.096,82.649v-0.223c0.531,0,0.667-0.292,0.813-0.694l1.321-3.615h0.238
				l1.433,3.688c0.199,0.503,0.348,0.62,0.727,0.62v0.224h-1.819v-0.224c0.491,0,0.514-0.048,0.514-0.242
				c0-0.136-0.188-0.664-0.364-1.043h-1.546c-0.112,0.37-0.299,0.761-0.299,0.944c0,0.25,0.131,0.342,0.696,0.342v0.224H407.096
				L407.096,82.649z M409.852,80.868l-0.692-1.723l-0.657,1.723H409.852z"/>
		</g>
		<g>
			<defs>
				<rect id="SVGID_81_" x="338.79" y="12.506" width="300" height="79.325"/>
			</defs>
			<clipPath id="SVGID_82_">
				<use xlink:href="#SVGID_81_"  overflow="visible"/>
			</clipPath>
			<path clip-path="url(#SVGID_82_)" fill="#231F20" d="M411.084,78.144h1.858v0.222c-0.392,0-0.548,0.065-0.548,0.221
				c0,0.222,0.768,1.525,0.875,1.826c0.129-0.279,0.907-1.495,0.907-1.833c0-0.139-0.147-0.213-0.558-0.213v-0.222h1.501v0.222
				c-0.473,0-0.556,0.161-0.8,0.621l-0.92,1.748v1.259c0,0.315,0.108,0.434,0.704,0.434v0.223h-2.06v-0.223
				c0.572,0,0.679-0.119,0.679-0.434v-1.259l-0.997-1.971c-0.176-0.345-0.302-0.397-0.643-0.397V78.144z"/>
		</g>
		<g>
			<defs>
				<rect id="SVGID_83_" x="338.79" y="12.506" width="300" height="79.325"/>
			</defs>
			<clipPath id="SVGID_84_">
				<use xlink:href="#SVGID_83_"  overflow="visible"/>
			</clipPath>
			<path clip-path="url(#SVGID_84_)" fill="#231F20" d="M415.353,80.984h0.188c0.121,0.737,0.646,1.521,1.466,1.521
				c0.488,0,0.975-0.321,0.975-0.854c0-1.47-2.622-0.6-2.622-2.341c0-0.787,0.702-1.247,1.403-1.247
				c0.601,0,0.909,0.377,1.069,0.377c0.095,0,0.184-0.232,0.203-0.297h0.22v1.516h-0.182c-0.169-0.649-0.542-1.374-1.304-1.374
				c-0.498,0-0.866,0.269-0.866,0.792c0,1.253,2.615,0.576,2.615,2.188c0,0.914-0.698,1.461-1.573,1.461
				c-0.615,0-0.85-0.342-1.101-0.342c-0.169,0-0.227,0.139-0.304,0.299h-0.188V80.984z"/>
		</g>
		<g>
			<defs>
				<rect id="SVGID_85_" x="338.79" y="12.506" width="300" height="79.325"/>
			</defs>
			<clipPath id="SVGID_86_">
				<use xlink:href="#SVGID_85_"  overflow="visible"/>
			</clipPath>
			<path clip-path="url(#SVGID_86_)" fill="#231F20" d="M420.75,78.144v0.222c-0.518,0-0.623,0.119-0.623,0.435v3.192
				c0,0.315,0.108,0.434,0.623,0.434v0.223h-1.924v-0.223c0.52,0,0.63-0.119,0.63-0.434V78.8c0-0.316-0.112-0.435-0.63-0.435v-0.222
				H420.75z"/>
		</g>
		<g>
			<defs>
				<rect id="SVGID_87_" x="338.79" y="12.506" width="300" height="79.325"/>
			</defs>
			<clipPath id="SVGID_88_">
				<use xlink:href="#SVGID_87_"  overflow="visible"/>
			</clipPath>
			<path clip-path="url(#SVGID_88_)" fill="#231F20" d="M420.803,82.649v-0.223c0.532,0,0.671-0.292,0.812-0.694l1.324-3.615h0.237
				l1.433,3.688c0.195,0.503,0.349,0.62,0.728,0.62v0.224h-1.819v-0.224c0.491,0,0.518-0.048,0.518-0.242
				c0-0.136-0.19-0.664-0.371-1.043h-1.545c-0.11,0.37-0.302,0.761-0.302,0.944c0,0.25,0.132,0.342,0.696,0.342v0.224H420.803
				L420.803,82.649z M423.565,80.868l-0.696-1.723l-0.657,1.723H423.565z"/>
		</g>
		<g>
			<defs>
				<rect id="SVGID_89_" x="338.79" y="12.506" width="300" height="79.325"/>
			</defs>
			<clipPath id="SVGID_90_">
				<use xlink:href="#SVGID_89_"  overflow="visible"/>
			</clipPath>
			<path clip-path="url(#SVGID_90_)" fill="#F58A1F" d="M523.421,43.97c-1.815,0-3.523,0.441-5.037,1.207l2.125-6.471h9.286
				l0.917-3.969H517.57l-5.33,16.29l2.504,2.92l3.227-3.768h0.007c1.345-1.478,3.286-2.407,5.444-2.407
				c4.065,0,7.362,3.296,7.362,7.366c0,2.13-0.903,4.051-2.352,5.396c-1.313,1.221-3.075,1.965-5.011,1.965
				c-2.174,0-4.129-0.938-5.471-2.434l-10.478-12.229v0.002c-2.05-2.368-5.073-3.872-8.453-3.872h-0.077v0.005
				c-6.132,0.041-11.092,5.022-11.092,11.165c0,5.872,4.205,10.29,9.958,10.743l3.727-3.82c-0.788,0.286-1.634,0.443-2.516,0.443
				c-4.07,0-7.362-3.296-7.362-7.365c0-4.055,3.279-7.345,7.334-7.361c1.6,0.004,3.049,0.499,4.24,1.332v0.004
				c0.076,0.05,0.154,0.108,0.229,0.159c0.377,0.287,0.726,0.601,1.041,0.952l0.004-0.003l0.888,1.04
				c0.861,1.248,1.396,2.708,1.396,4.005c0,2.405-1.029,4.128-2.787,6.312l-11.982,13.729h18.063v-3.578h-10.448l8.558-9.504h-0.008
				c1.151-1.441,1.951-3.171,2.258-5.064l4.459,5.199l0,0c2.049,2.417,5.102,3.945,8.516,3.945c2.977,0,5.674-1.163,7.678-3.061
				c2.149-2.036,3.488-4.912,3.488-8.106C534.587,48.974,529.59,43.97,523.421,43.97"/>
		</g>
		<g>
			<defs>
				<rect id="SVGID_91_" x="338.79" y="12.506" width="300" height="79.325"/>
			</defs>
			<clipPath id="SVGID_92_">
				<use xlink:href="#SVGID_91_"  overflow="visible"/>
			</clipPath>
			<path clip-path="url(#SVGID_92_)" fill="#005E83" d="M544.03,52.177h-3.374V43.84h3.241c1.545,0,2.519,0.879,2.519,2.284
				c0,0.902-0.565,1.547-1.126,1.769c0.642,0.258,1.254,0.878,1.254,1.933C546.543,51.357,545.502,52.177,544.03,52.177
				 M543.793,44.977h-1.873v2.388h1.873c0.805,0,1.355-0.422,1.355-1.194C545.149,45.396,544.598,44.977,543.793,44.977
				 M543.911,48.5h-1.991v2.541h1.991c0.878,0,1.368-0.539,1.368-1.276C545.28,49.026,544.789,48.5,543.911,48.5"/>
		</g>
		<g>
			<defs>
				<rect id="SVGID_93_" x="338.79" y="12.506" width="300" height="79.325"/>
			</defs>
			<clipPath id="SVGID_94_">
				<use xlink:href="#SVGID_93_"  overflow="visible"/>
			</clipPath>
			<polygon clip-path="url(#SVGID_94_)" fill="#005E83" points="548.604,52.177 548.604,43.84 553.933,43.84 553.933,44.977 
				549.867,44.977 549.867,47.412 553.337,47.412 553.337,48.535 549.867,48.535 549.867,51.041 553.933,51.041 553.933,52.177 			
				"/>
		</g>
		<g>
			<defs>
				<rect id="SVGID_95_" x="338.79" y="12.506" width="300" height="79.325"/>
			</defs>
			<clipPath id="SVGID_96_">
				<use xlink:href="#SVGID_95_"  overflow="visible"/>
			</clipPath>
			<polygon clip-path="url(#SVGID_96_)" fill="#005E83" points="558.671,44.977 558.671,52.177 557.408,52.177 557.408,44.977 
				555.112,44.977 555.112,43.84 560.966,43.84 560.966,44.977 			"/>
		</g>
		<g>
			<defs>
				<rect id="SVGID_97_" x="338.79" y="12.506" width="300" height="79.325"/>
			</defs>
			<clipPath id="SVGID_98_">
				<use xlink:href="#SVGID_97_"  overflow="visible"/>
			</clipPath>
			<polygon clip-path="url(#SVGID_98_)" fill="#005E83" points="565.416,44.977 565.416,52.177 564.151,52.177 564.151,44.977 
				561.858,44.977 561.858,43.84 567.709,43.84 567.709,44.977 			"/>
		</g>
		<g>
			<defs>
				<rect id="SVGID_99_" x="338.79" y="12.506" width="300" height="79.325"/>
			</defs>
			<clipPath id="SVGID_100_">
				<use xlink:href="#SVGID_99_"  overflow="visible"/>
			</clipPath>
			<polygon clip-path="url(#SVGID_100_)" fill="#005E83" points="569.339,52.177 569.339,43.84 574.665,43.84 574.665,44.977 
				570.603,44.977 570.603,47.412 574.069,47.412 574.069,48.535 570.603,48.535 570.603,51.041 574.665,51.041 574.665,52.177 			
				"/>
		</g>
		<g>
			<defs>
				<rect id="SVGID_101_" x="338.79" y="12.506" width="300" height="79.325"/>
			</defs>
			<clipPath id="SVGID_102_">
				<use xlink:href="#SVGID_101_"  overflow="visible"/>
			</clipPath>
			<path clip-path="url(#SVGID_102_)" fill="#005E83" d="M581.423,52.177l-1.76-3.513h-1.584v3.513h-1.262V43.84h3.228
				c1.583,0,2.591,1.021,2.591,2.438c0,1.193-0.726,1.955-1.664,2.212l1.921,3.688H581.423z M579.956,44.977h-1.873v2.61h1.873
				c0.846,0,1.415-0.48,1.415-1.299S580.802,44.977,579.956,44.977"/>
		</g>
		<g>
			<defs>
				<rect id="SVGID_103_" x="338.79" y="12.506" width="300" height="79.325"/>
			</defs>
			<clipPath id="SVGID_104_">
				<use xlink:href="#SVGID_103_"  overflow="visible"/>
			</clipPath>
			<polygon clip-path="url(#SVGID_104_)" fill="#005E83" points="592.674,52.177 592.674,48.535 589.285,48.535 589.285,52.177 
				588.022,52.177 588.022,43.84 589.285,43.84 589.285,47.399 592.674,47.399 592.674,43.84 593.938,43.84 593.938,52.177 			"/>
		</g>
		<g>
			<defs>
				<rect id="SVGID_105_" x="338.79" y="12.506" width="300" height="79.325"/>
			</defs>
			<clipPath id="SVGID_106_">
				<use xlink:href="#SVGID_105_"  overflow="visible"/>
			</clipPath>
			<polygon clip-path="url(#SVGID_106_)" fill="#005E83" points="596.302,52.177 596.302,43.84 601.63,43.84 601.63,44.977 
				597.565,44.977 597.565,47.412 601.034,47.412 601.034,48.535 597.565,48.535 597.565,51.041 601.63,51.041 601.63,52.177 			"/>
		</g>
		<g>
			<defs>
				<rect id="SVGID_107_" x="338.79" y="12.506" width="300" height="79.325"/>
			</defs>
			<clipPath id="SVGID_108_">
				<use xlink:href="#SVGID_107_"  overflow="visible"/>
			</clipPath>
			<path clip-path="url(#SVGID_108_)" fill="#005E83" d="M608.618,52.177l-0.572-1.676h-3.29l-0.57,1.676h-1.35l3.057-8.337h1.02
				l3.057,8.337H608.618z M606.433,45.725l-1.302,3.701h2.565L606.433,45.725z"/>
		</g>
		<g>
			<defs>
				<rect id="SVGID_109_" x="338.79" y="12.506" width="300" height="79.325"/>
			</defs>
			<clipPath id="SVGID_110_">
				<use xlink:href="#SVGID_109_"  overflow="visible"/>
			</clipPath>
			<polygon clip-path="url(#SVGID_110_)" fill="#005E83" points="611.47,52.177 611.47,43.84 612.73,43.84 612.73,51.041 
				616.747,51.041 616.747,52.177 			"/>
		</g>
		<g>
			<defs>
				<rect id="SVGID_111_" x="338.79" y="12.506" width="300" height="79.325"/>
			</defs>
			<clipPath id="SVGID_112_">
				<use xlink:href="#SVGID_111_"  overflow="visible"/>
			</clipPath>
			<polygon clip-path="url(#SVGID_112_)" fill="#005E83" points="619.971,44.977 619.971,52.177 618.706,52.177 618.706,44.977 
				616.415,44.977 616.415,43.84 622.262,43.84 622.262,44.977 			"/>
		</g>
		<g>
			<defs>
				<rect id="SVGID_113_" x="338.79" y="12.506" width="300" height="79.325"/>
			</defs>
			<clipPath id="SVGID_114_">
				<use xlink:href="#SVGID_113_"  overflow="visible"/>
			</clipPath>
			<polygon clip-path="url(#SVGID_114_)" fill="#005E83" points="628.456,52.177 628.456,48.535 625.075,48.535 625.075,52.177 
				623.809,52.177 623.809,43.84 625.075,43.84 625.075,47.399 628.456,47.399 628.456,43.84 629.719,43.84 629.719,52.177 			"/>
		</g>
		<g>
			<defs>
				<rect id="SVGID_115_" x="338.79" y="12.506" width="300" height="79.325"/>
			</defs>
			<clipPath id="SVGID_116_">
				<use xlink:href="#SVGID_115_"  overflow="visible"/>
			</clipPath>
			<path clip-path="url(#SVGID_116_)" fill="#005E83" d="M544.03,66.341h-3.374v-8.34h3.241c1.545,0,2.519,0.878,2.519,2.287
				c0,0.898-0.565,1.543-1.126,1.766c0.642,0.257,1.254,0.878,1.254,1.931C546.543,65.521,545.502,66.341,544.03,66.341
				 M543.793,59.138h-1.873v2.391h1.873c0.805,0,1.355-0.421,1.355-1.193C545.149,59.56,544.598,59.138,543.793,59.138
				 M543.911,62.665h-1.991v2.54h1.991c0.878,0,1.368-0.541,1.368-1.277S544.789,62.665,543.911,62.665"/>
		</g>
		<g>
			<defs>
				<rect id="SVGID_117_" x="338.79" y="12.506" width="300" height="79.325"/>
			</defs>
			<clipPath id="SVGID_118_">
				<use xlink:href="#SVGID_117_"  overflow="visible"/>
			</clipPath>
			<polygon clip-path="url(#SVGID_118_)" fill="#005E83" points="548.42,66.341 548.42,58.001 553.747,58.001 553.747,59.138 
				549.683,59.138 549.683,61.575 553.146,61.575 553.146,62.7 549.683,62.7 549.683,65.205 553.747,65.205 553.747,66.341 			"/>
		</g>
		<g>
			<defs>
				<rect id="SVGID_119_" x="338.79" y="12.506" width="300" height="79.325"/>
			</defs>
			<clipPath id="SVGID_120_">
				<use xlink:href="#SVGID_119_"  overflow="visible"/>
			</clipPath>
			<polygon clip-path="url(#SVGID_120_)" fill="#005E83" points="558.299,59.138 558.299,66.341 557.032,66.341 557.032,59.138 
				554.741,59.138 554.741,58.001 560.595,58.001 560.595,59.138 			"/>
		</g>
		<g>
			<defs>
				<rect id="SVGID_121_" x="338.79" y="12.506" width="300" height="79.325"/>
			</defs>
			<clipPath id="SVGID_122_">
				<use xlink:href="#SVGID_121_"  overflow="visible"/>
			</clipPath>
			<polygon clip-path="url(#SVGID_122_)" fill="#005E83" points="564.856,59.138 564.856,66.341 563.587,66.341 563.587,59.138 
				561.296,59.138 561.296,58.001 567.153,58.001 567.153,59.138 			"/>
		</g>
		<g>
			<defs>
				<rect id="SVGID_123_" x="338.79" y="12.506" width="300" height="79.325"/>
			</defs>
			<clipPath id="SVGID_124_">
				<use xlink:href="#SVGID_123_"  overflow="visible"/>
			</clipPath>
			<polygon clip-path="url(#SVGID_124_)" fill="#005E83" points="568.584,66.341 568.584,58.001 573.915,58.001 573.915,59.138 
				569.854,59.138 569.854,61.575 573.322,61.575 573.322,62.7 569.854,62.7 569.854,65.205 573.915,65.205 573.915,66.341 			"/>
		</g>
		<g>
			<defs>
				<rect id="SVGID_125_" x="338.79" y="12.506" width="300" height="79.325"/>
			</defs>
			<clipPath id="SVGID_126_">
				<use xlink:href="#SVGID_125_"  overflow="visible"/>
			</clipPath>
			<path clip-path="url(#SVGID_126_)" fill="#005E83" d="M580.485,66.341l-1.757-3.511h-1.585v3.511h-1.264v-8.34h3.233
				c1.58,0,2.586,1.023,2.586,2.438c0,1.195-0.725,1.958-1.666,2.215l1.925,3.688H580.485z M579.019,59.138h-1.872v2.614h1.872
				c0.845,0,1.421-0.48,1.421-1.302C580.44,59.629,579.864,59.138,579.019,59.138"/>
		</g>
		<g>
			<defs>
				<rect id="SVGID_127_" x="338.79" y="12.506" width="300" height="79.325"/>
			</defs>
			<clipPath id="SVGID_128_">
				<use xlink:href="#SVGID_127_"  overflow="visible"/>
			</clipPath>
			<path clip-path="url(#SVGID_128_)" fill="#005E83" d="M588.573,66.411c-1.255,0-2.156-0.29-2.95-1.102l0.844-0.833
				c0.608,0.61,1.272,0.799,2.132,0.799c1.091,0,1.719-0.468,1.719-1.276c0-0.363-0.104-0.666-0.324-0.866
				c-0.212-0.2-0.426-0.28-0.916-0.353l-0.982-0.138c-0.681-0.092-1.217-0.331-1.582-0.668c-0.415-0.384-0.61-0.914-0.61-1.592
				c0-1.454,1.053-2.449,2.79-2.449c1.098,0,1.869,0.285,2.583,0.947l-0.807,0.797c-0.518-0.492-1.112-0.645-1.814-0.645
				c-0.983,0-1.521,0.561-1.521,1.301c0,0.303,0.093,0.572,0.315,0.773c0.206,0.186,0.55,0.326,0.936,0.386l0.951,0.14
				c0.769,0.12,1.202,0.303,1.558,0.618c0.454,0.399,0.678,0.998,0.678,1.712C591.571,65.497,590.317,66.411,588.573,66.411"/>
		</g>
		<g>
			<defs>
				<rect id="SVGID_129_" x="338.79" y="12.506" width="300" height="79.325"/>
			</defs>
			<clipPath id="SVGID_130_">
				<use xlink:href="#SVGID_129_"  overflow="visible"/>
			</clipPath>
			<path clip-path="url(#SVGID_130_)" fill="#005E83" d="M598.159,65.521c-0.571,0.575-1.31,0.89-2.198,0.89
				c-0.89,0-1.617-0.315-2.192-0.89c-0.817-0.817-0.806-1.743-0.806-3.347c0-1.603-0.012-2.53,0.806-3.347
				c0.575-0.575,1.303-0.892,2.192-0.892c0.889,0,1.627,0.317,2.198,0.892c0.817,0.817,0.799,1.745,0.799,3.347
				C598.958,63.777,598.977,64.703,598.159,65.521 M597.199,59.584c-0.291-0.316-0.749-0.516-1.238-0.516
				c-0.494,0-0.952,0.2-1.241,0.516c-0.41,0.448-0.492,0.914-0.492,2.589c0,1.673,0.082,2.142,0.492,2.584
				c0.289,0.315,0.747,0.517,1.241,0.517c0.489,0,0.943-0.202,1.238-0.517c0.416-0.447,0.496-0.914,0.496-2.584
				C597.696,60.499,597.615,60.032,597.199,59.584"/>
		</g>
		<g>
			<defs>
				<rect id="SVGID_131_" x="338.79" y="12.506" width="300" height="79.325"/>
			</defs>
			<clipPath id="SVGID_132_">
				<use xlink:href="#SVGID_131_"  overflow="visible"/>
			</clipPath>
			<path clip-path="url(#SVGID_132_)" fill="#005E83" d="M603.526,66.411c-0.865,0-1.617-0.315-2.191-0.89
				c-0.822-0.817-0.808-1.743-0.808-3.347c0-1.603-0.015-2.53,0.808-3.347c0.574-0.575,1.326-0.892,2.191-0.892
				c1.533,0,2.68,0.903,2.972,2.566h-1.287c-0.199-0.842-0.758-1.432-1.685-1.432c-0.491,0-0.937,0.19-1.229,0.508
				c-0.41,0.447-0.504,0.924-0.504,2.597c0,1.675,0.094,2.155,0.504,2.598c0.292,0.314,0.737,0.503,1.229,0.503
				c0.929,0,1.5-0.583,1.695-1.426h1.276C606.215,65.509,605.034,66.411,603.526,66.411"/>
		</g>
		<g>
			<defs>
				<rect id="SVGID_133_" x="338.79" y="12.506" width="300" height="79.325"/>
			</defs>
			<clipPath id="SVGID_134_">
				<use xlink:href="#SVGID_133_"  overflow="visible"/>
			</clipPath>
			<rect x="608.184" y="58.001" clip-path="url(#SVGID_134_)" fill="#005E83" width="1.265" height="8.34"/>
		</g>
		<g>
			<defs>
				<rect id="SVGID_135_" x="338.79" y="12.506" width="300" height="79.325"/>
			</defs>
			<clipPath id="SVGID_136_">
				<use xlink:href="#SVGID_135_"  overflow="visible"/>
			</clipPath>
			<polygon clip-path="url(#SVGID_136_)" fill="#005E83" points="611.858,66.341 611.858,58.001 617.185,58.001 617.185,59.138 
				613.124,59.138 613.124,61.575 616.59,61.575 616.59,62.7 613.124,62.7 613.124,65.205 617.185,65.205 617.185,66.341 			"/>
		</g>
		<g>
			<defs>
				<rect id="SVGID_137_" x="338.79" y="12.506" width="300" height="79.325"/>
			</defs>
			<clipPath id="SVGID_138_">
				<use xlink:href="#SVGID_137_"  overflow="visible"/>
			</clipPath>
			<polygon clip-path="url(#SVGID_138_)" fill="#005E83" points="621.738,59.138 621.738,66.341 620.474,66.341 620.474,59.138 
				618.182,59.138 618.182,58.001 624.035,58.001 624.035,59.138 			"/>
		</g>
		<g>
			<defs>
				<rect id="SVGID_139_" x="338.79" y="12.506" width="300" height="79.325"/>
			</defs>
			<clipPath id="SVGID_140_">
				<use xlink:href="#SVGID_139_"  overflow="visible"/>
			</clipPath>
			<polygon clip-path="url(#SVGID_140_)" fill="#005E83" points="628.201,62.91 628.201,66.341 626.938,66.341 626.938,62.91 
				624.442,58.001 625.825,58.001 627.568,61.67 629.316,58.001 630.695,58.001 			"/>
		</g>
		<g>
			<defs>
				<rect id="SVGID_141_" x="338.79" y="12.506" width="300" height="79.325"/>
			</defs>
			<clipPath id="SVGID_142_">
				<use xlink:href="#SVGID_141_"  overflow="visible"/>
			</clipPath>
			<polygon clip-path="url(#SVGID_142_)" fill="#F58A1F" points="514.664,73.699 514.664,75.207 513.954,75.207 513.954,73.699 
				512.848,71.535 513.628,71.535 514.314,73.014 514.99,71.535 515.766,71.535 			"/>
		</g>
		<g>
			<defs>
				<rect id="SVGID_143_" x="338.79" y="12.506" width="300" height="79.325"/>
			</defs>
			<clipPath id="SVGID_144_">
				<use xlink:href="#SVGID_143_"  overflow="visible"/>
			</clipPath>
			<polygon clip-path="url(#SVGID_144_)" fill="#F58A1F" points="516.983,75.207 516.983,71.535 519.408,71.535 519.408,72.171 
				517.704,72.171 517.704,73.035 519.155,73.035 519.155,73.673 517.704,73.673 517.704,74.566 519.408,74.566 519.408,75.207 			
				"/>
		</g>
		<g>
			<defs>
				<rect id="SVGID_145_" x="338.79" y="12.506" width="300" height="79.325"/>
			</defs>
			<clipPath id="SVGID_146_">
				<use xlink:href="#SVGID_145_"  overflow="visible"/>
			</clipPath>
			<path clip-path="url(#SVGID_146_)" fill="#F58A1F" d="M522.966,75.207l-0.215-0.652h-1.306l-0.219,0.652h-0.751l1.335-3.672
				h0.568l1.342,3.672H522.966z M522.115,72.617l-0.464,1.335h0.909L522.115,72.617z"/>
		</g>
		<g>
			<defs>
				<rect id="SVGID_147_" x="338.79" y="12.506" width="300" height="79.325"/>
			</defs>
			<clipPath id="SVGID_148_">
				<use xlink:href="#SVGID_147_"  overflow="visible"/>
			</clipPath>
			<path clip-path="url(#SVGID_148_)" fill="#F58A1F" d="M526.896,75.207l-0.726-1.466h-0.51v1.466h-0.714v-3.672h1.436
				c0.749,0,1.19,0.508,1.19,1.125c0,0.518-0.313,0.834-0.669,0.963l0.822,1.585H526.896z M526.341,72.171h-0.681v0.972h0.681
				c0.309,0,0.521-0.204,0.521-0.484C526.863,72.375,526.65,72.171,526.341,72.171"/>
		</g>
		<g>
			<defs>
				<rect id="SVGID_149_" x="338.79" y="12.506" width="300" height="79.325"/>
			</defs>
			<clipPath id="SVGID_150_">
				<use xlink:href="#SVGID_149_"  overflow="visible"/>
			</clipPath>
			<path clip-path="url(#SVGID_150_)" fill="#F58A1F" d="M530.101,75.238c-0.552,0-0.982-0.119-1.34-0.488l0.463-0.46
				c0.232,0.23,0.548,0.307,0.887,0.307c0.423,0,0.65-0.162,0.65-0.451c0-0.126-0.033-0.237-0.114-0.31
				c-0.073-0.067-0.154-0.103-0.323-0.129l-0.444-0.062c-0.317-0.044-0.546-0.142-0.714-0.303c-0.177-0.175-0.266-0.411-0.266-0.722
				c0-0.656,0.485-1.113,1.282-1.113c0.507,0,0.871,0.123,1.187,0.428l-0.454,0.451c-0.229-0.222-0.51-0.255-0.756-0.255
				c-0.378,0-0.564,0.212-0.564,0.466c0,0.091,0.033,0.19,0.109,0.263c0.068,0.065,0.191,0.125,0.338,0.147l0.437,0.06
				c0.333,0.042,0.546,0.138,0.702,0.283c0.193,0.184,0.28,0.453,0.28,0.779C531.463,74.833,530.871,75.238,530.101,75.238"/>
		</g>
		<g>
			<defs>
				<rect id="SVGID_151_" x="338.79" y="12.506" width="300" height="79.325"/>
			</defs>
			<clipPath id="SVGID_152_">
				<use xlink:href="#SVGID_151_"  overflow="visible"/>
			</clipPath>
			<polygon clip-path="url(#SVGID_152_)" fill="#F58A1F" points="541.254,75.418 541.254,72.302 540.464,72.989 540.464,72.225 
				541.254,71.538 541.96,71.538 541.96,75.418 			"/>
		</g>
		<g>
			<defs>
				<rect id="SVGID_153_" x="338.79" y="12.506" width="300" height="79.325"/>
			</defs>
			<clipPath id="SVGID_154_">
				<use xlink:href="#SVGID_153_"  overflow="visible"/>
			</clipPath>
			<path clip-path="url(#SVGID_154_)" fill="#F58A1F" d="M545.729,73.739l-0.825,1.679h-0.77l0.809-1.6
				c-0.092,0.034-0.199,0.046-0.288,0.046c-0.523,0-1.025-0.432-1.025-1.151c0-0.762,0.523-1.209,1.21-1.209
				c0.685,0,1.209,0.43,1.209,1.2C546.051,73.058,545.902,73.385,545.729,73.739 M544.839,72.145c-0.286,0-0.504,0.204-0.504,0.568
				c0,0.338,0.206,0.564,0.504,0.564c0.292,0,0.502-0.207,0.502-0.564C545.341,72.348,545.131,72.145,544.839,72.145"/>
		</g>
		<g>
			<defs>
				<rect id="SVGID_155_" x="338.79" y="12.506" width="300" height="79.325"/>
			</defs>
			<clipPath id="SVGID_156_">
				<use xlink:href="#SVGID_155_"  overflow="visible"/>
			</clipPath>
			<path clip-path="url(#SVGID_156_)" fill="#F58A1F" d="M549.398,73.739l-0.821,1.679h-0.767l0.805-1.6
				c-0.095,0.034-0.197,0.046-0.286,0.046c-0.527,0-1.026-0.432-1.026-1.151c0-0.762,0.524-1.209,1.21-1.209
				c0.687,0,1.208,0.43,1.208,1.2C549.72,73.058,549.572,73.385,549.398,73.739 M548.512,72.145c-0.29,0-0.508,0.204-0.508,0.568
				c0,0.338,0.206,0.564,0.508,0.564c0.286,0,0.498-0.207,0.498-0.564C549.01,72.348,548.798,72.145,548.512,72.145"/>
		</g>
		<g>
			<defs>
				<rect id="SVGID_157_" x="338.79" y="12.506" width="300" height="79.325"/>
			</defs>
			<clipPath id="SVGID_158_">
				<use xlink:href="#SVGID_157_"  overflow="visible"/>
			</clipPath>
			<path clip-path="url(#SVGID_158_)" fill="#F58A1F" d="M551.014,75.418v-0.636l1.451-1.683c0.138-0.169,0.204-0.286,0.204-0.467
				c0-0.289-0.174-0.487-0.474-0.487c-0.233,0-0.474,0.123-0.474,0.495h-0.706c0-0.706,0.517-1.132,1.185-1.132
				c0.687,0,1.177,0.43,1.177,1.128c0,0.375-0.148,0.58-0.415,0.889l-1.084,1.257h1.499v0.641h-2.363V75.418z"/>
		</g>
		<g>
			<defs>
				<rect id="SVGID_159_" x="338.79" y="12.506" width="300" height="79.325"/>
			</defs>
			<clipPath id="SVGID_160_">
				<use xlink:href="#SVGID_159_"  overflow="visible"/>
			</clipPath>
			<rect x="554.683" y="73.534" clip-path="url(#SVGID_160_)" fill="#F58A1F" width="1.678" height="0.66"/>
		</g>
		<g>
			<defs>
				<rect id="SVGID_161_" x="338.79" y="12.506" width="300" height="79.325"/>
			</defs>
			<clipPath id="SVGID_162_">
				<use xlink:href="#SVGID_161_"  overflow="visible"/>
			</clipPath>
			<path clip-path="url(#SVGID_162_)" fill="#F58A1F" d="M557.715,75.418v-0.636l1.447-1.683c0.142-0.169,0.203-0.286,0.203-0.467
				c0-0.289-0.167-0.487-0.468-0.487c-0.23,0-0.477,0.123-0.477,0.495h-0.704c0-0.706,0.517-1.132,1.185-1.132
				c0.689,0,1.178,0.43,1.178,1.128c0,0.375-0.15,0.58-0.418,0.889l-1.082,1.257h1.5v0.641h-2.364V75.418z"/>
		</g>
		<g>
			<defs>
				<rect id="SVGID_163_" x="338.79" y="12.506" width="300" height="79.325"/>
			</defs>
			<clipPath id="SVGID_164_">
				<use xlink:href="#SVGID_163_"  overflow="visible"/>
			</clipPath>
			<path clip-path="url(#SVGID_164_)" fill="#F58A1F" d="M562.547,75.449c-0.633,0-1.186-0.411-1.186-1.155v-1.635
				c0-0.741,0.55-1.156,1.186-1.156c0.63,0,1.18,0.415,1.18,1.156v1.635C563.727,75.038,563.177,75.449,562.547,75.449
				 M563.012,72.673c0-0.329-0.188-0.532-0.465-0.532c-0.28,0-0.476,0.204-0.476,0.532v1.617c0,0.327,0.195,0.522,0.476,0.522
				c0.277,0,0.465-0.196,0.465-0.522V72.673z"/>
		</g>
		<g>
			<defs>
				<rect id="SVGID_165_" x="338.79" y="12.506" width="300" height="79.325"/>
			</defs>
			<clipPath id="SVGID_166_">
				<use xlink:href="#SVGID_165_"  overflow="visible"/>
			</clipPath>
			<polygon clip-path="url(#SVGID_166_)" fill="#F58A1F" points="565.864,75.418 565.864,72.302 565.073,72.989 565.073,72.225 
				565.864,71.538 566.575,71.538 566.575,75.418 			"/>
		</g>
		<g>
			<defs>
				<rect id="SVGID_167_" x="338.79" y="12.506" width="300" height="79.325"/>
			</defs>
			<clipPath id="SVGID_168_">
				<use xlink:href="#SVGID_167_"  overflow="visible"/>
			</clipPath>
			<polygon clip-path="url(#SVGID_168_)" fill="#F58A1F" points="569.221,75.418 568.455,75.418 569.713,72.175 568.012,72.175 
				568.012,71.538 570.483,71.538 570.483,72.175 			"/>
		</g>
	</g>
</g>
</svg>
