<?xml version="1.0" encoding="utf-8"?>
<!-- Generator: Adobe Illustrator 13.0.0, SVG Export Plug-In . SVG Version: 6.00 Build 14948)  -->
<!DOCTYPE svg PUBLIC "-//W3C//DTD SVG 1.1//EN" "http://www.w3.org/Graphics/SVG/1.1/DTD/svg11.dtd">
<svg version="1.1" id="Layer_1" xmlns="http://www.w3.org/2000/svg" xmlns:xlink="http://www.w3.org/1999/xlink" x="0px" y="0px"
	 width="64px" height="64px" viewBox="0 0 64 64" enable-background="new 0 0 64 64" xml:space="preserve">
<g>
	<circle fill="#84DBFF" cx="32.164" cy="32.02" r="31.5"/>
	<path fill="#F1543F" d="M55.38,24.182c0,0.396-0.1,0.744-0.347,1.092c-1.092-0.596-2.381-0.895-3.721-0.895
		c-1.39,0-2.68,0.248-3.721,0.895c-0.198-0.348-0.347-0.695-0.347-1.092c0-1.488,1.835-2.729,4.067-2.729
		C53.544,21.454,55.38,22.694,55.38,24.182z"/>
	<path fill="#FF7058" d="M58.307,32.069c0,1.537-0.248,3.125-0.645,4.662H44.963c-0.1-0.445-0.199-0.842-0.298-1.289
		c1.19-2.133,2.479-5.656,1.835-9.423c1.24-1.143,2.927-1.639,4.763-1.639C55.182,24.379,58.307,26.514,58.307,32.069z"/>
	<path fill="#F9B54C" d="M55.826,41.195c0,0,0.348,1.984-1.935,4.02l-7.143-3.473c0.049-0.547,0.198-1.043,0.396-1.488
		c1.092,1.984,2.58,3.322,4.218,3.322c1.637,0,3.125-1.389,4.216-3.322C55.678,40.551,55.777,40.85,55.826,41.195L55.826,41.195z"/>
	<path fill="#4CDBC4" d="M60.887,44.967c-1.092,2.48-2.53,4.762-4.217,6.846l-0.396-1.291c0.248-0.744,1.19-4.91,0.595-7.541
		L60.887,44.967z"/>
	<g>
		<path fill="#FFFFFF" d="M56.273,50.521l-1.588-4.961l-0.794-0.396c2.282-2.033,1.935-4.018,1.935-4.018
			C58.059,42.883,56.57,49.529,56.273,50.521z"/>
		<path fill="#FFFFFF" d="M46.798,41.195c-0.049,0.15-0.049,0.348-0.099,0.547l-0.298-0.148
			C46.5,41.443,46.649,41.295,46.798,41.195z"/>
	</g>
	<path fill="#FFD05B" d="M58.059,37.326c-0.446,0.895-1.19,1.291-1.688,0.992c-1.14,2.928-2.976,5.209-5.108,5.209
		s-3.969-2.281-5.109-5.209c-0.496,0.299-1.24-0.148-1.687-0.992c-0.199-0.396-0.298-0.793-0.348-1.141
		c0.248-0.348,0.496-0.793,0.744-1.289c0.1,0,0.198,0,0.348,0.049l0,0l0.05,0.049l0,0c0-0.049-0.199-1.883,4.662-3.867
		c1.737-0.695,2.827-1.488,3.473-2.232c0.248,1.092,0.844,2.629,2.431,3.223c0,0,1.488,0.348,1.339,2.828l0,0
		c0.248-0.1,0.497-0.1,0.695,0.049C58.505,35.393,58.555,36.434,58.059,37.326z"/>
	<path fill="#E6E9EE" d="M43.177,49.529L43.177,49.529c-0.099,0.695-0.248,1.439-0.348,2.232l-1.735-5.258
		C41.937,47.199,42.73,48.141,43.177,49.529z"/>
	<path fill="#F9B54C" d="M42.681,38.221c0,0,0.596,3.273-4.167,6.102l-5.407-2.631c-1.438-1.885-1.142-3.471-1.142-3.471
		s0,0-0.049,0c0-0.051,0-0.1,0.049-0.199c1.489,1.834,3.324,3.025,5.358,3.025s3.869-1.191,5.357-3.025
		C42.681,38.121,42.73,38.17,42.681,38.221C42.73,38.221,42.73,38.221,42.681,38.221z"/>
	<path fill="#2B3B4E" d="M56.67,51.813c-2.977,3.67-6.747,6.646-11.063,8.68l-2.827-8.73c0.148-0.744,0.247-1.488,0.347-2.232
		c0.05,0.1,1.588-5.654,0.744-9.127l10.715,5.158L56.67,51.813z"/>
	<g>
		<path fill="#FFFFFF" d="M43.177,49.529c-0.446-1.389-1.24-2.381-2.083-3.025l-0.348-1.092l-2.183-1.041
			c4.762-2.828,4.167-6.102,4.167-6.102C45.657,40.451,43.227,49.678,43.177,49.529z"/>
		<path fill="#FFFFFF" d="M33.106,41.691l-2.381-1.141c0.198-0.992,0.596-1.836,1.24-2.33
			C31.965,38.221,31.668,39.807,33.106,41.691z"/>
	</g>
	<path fill="#FFD05B" d="M44.169,33.904c-0.694,2.184-0.992,3.373-0.992,3.521l0,0c-1.587,2.133-3.621,3.621-5.805,3.621
		c-2.083,0-4.018-1.289-5.556-3.225c0,0,0.05,0,0.05,0.051c-1.488-1.836-1.835-4.416-1.786-6.648l0,0
		c0.546-1.289,0.942-2.828,1.19-4.465c1.984,1.488,6.549,1.588,6.549,1.588c-2.331-0.396-2.679-2.232-2.679-2.232
		c0.396,1.141,5.556,1.836,5.556,1.836C45.955,28.696,44.169,33.904,44.169,33.904z"/>
	<g>
		<path fill="#2B3B4E" d="M31.816,37.873c0,0-1.736-1.389-3.175-3.82c0.446-0.744,0.943-1.736,1.389-2.828
			C29.981,33.457,30.328,36.037,31.816,37.873z"/>
		<path fill="#2B3B4E" d="M43.177,37.475c0,0,0.248-1.24,0.992-3.521c0,0,1.786-5.208-3.571-6.001c0,0-5.159-0.695-5.557-1.836
			c0,0,0.397,1.885,2.679,2.232c0,0-4.563-0.1-6.548-1.588c0.298-2.48,0.099-5.207-1.19-7.936c1.041-0.547,2.381-0.744,4.217-0.248
			c0,0,7.242-2.877,10.963,3.67C49.13,29.241,44.169,36.83,43.177,37.475z"/>
	</g>
	<path fill="#324A5E" d="M42.135,30.184h-2.529h-0.248h-4.019H35.19h-2.679c-0.794,0-1.439,0.645-1.439,1.439v1.189
		c0,0.793,0.645,1.438,1.439,1.438h2.777c0.348,0,0.695-0.148,0.943-0.346c0.099-0.051,0.148-0.1,0.198-0.199
		c0.198-0.445,0.546-0.693,0.893-0.693c0.348,0,0.695,0.248,0.893,0.693c0.051,0.1,0.1,0.148,0.198,0.199
		c0.249,0.248,0.596,0.346,0.943,0.346h2.777c0.794,0,1.439-0.645,1.439-1.438v-1.189C43.574,30.829,42.929,30.184,42.135,30.184z
		 M32.512,33.557c-0.398,0-0.745-0.348-0.745-0.744v-1.189c0-0.398,0.347-0.746,0.745-0.746h2.679h0.148
		c0.397,0,0.744,0.348,0.744,0.746v1.189c0,0.098,0,0.199-0.05,0.299c-0.049,0.049-0.049,0.098-0.099,0.148
		c-0.149,0.197-0.348,0.297-0.596,0.297H32.512z M37.323,32.268c-0.198,0-0.396,0.049-0.596,0.148v-0.844
		c0-0.297-0.099-0.545-0.198-0.744h1.638c-0.148,0.199-0.198,0.496-0.198,0.744v0.844C37.72,32.317,37.521,32.268,37.323,32.268z
		 M42.879,32.813c0,0.396-0.348,0.744-0.744,0.744h-2.777c-0.248,0-0.446-0.1-0.595-0.297c-0.051-0.051-0.051-0.1-0.1-0.148
		c-0.051-0.1-0.051-0.201-0.051-0.299v-1.189c0-0.398,0.349-0.746,0.745-0.746h0.248h2.529c0.396,0,0.744,0.348,0.744,0.746V32.813
		L42.879,32.813z"/>
	<g>
		<path fill="#E6E9EE" d="M10.287,54.639c0.049,0.1,0.149,0.148,0.198,0.199C10.436,54.787,10.336,54.738,10.287,54.639
			L10.287,54.639z"/>
		<path fill="#E6E9EE" d="M20.506,44.619c-0.049,0-0.099,0.049-0.148,0.049s-0.099-0.049-0.149-0.049H20.506z"/>
		<path fill="#E6E9EE" d="M27.203,50.076c-0.546,3.621-1.438,7.838-2.927,12.451c-3.224-0.844-6.3-2.184-9.028-3.92
			c-0.844-3.076-1.389-5.951-1.736-8.531c1.587-4.961,6.846-5.408,6.846-5.408S25.665,45.115,27.203,50.076z"/>
	</g>
	<path fill="#F9B54C" d="M26.657,36.73c0,0,0.794,4.465-6.3,7.938h-0.05c-7.094-3.473-6.3-7.938-6.3-7.938s0,0-0.049,0
		c0-0.049,0.049-0.148,0.049-0.197c1.736,2.133,3.919,3.521,6.3,3.521s4.515-1.389,6.3-3.521
		C26.657,36.633,26.708,36.682,26.657,36.73C26.708,36.781,26.708,36.73,26.657,36.73z"/>
	<g>
		<path fill="#54C0EB" d="M20.407,44.668C20.407,44.668,20.357,44.668,20.407,44.668c-0.05,0-0.05,0-0.05,0H20.407z"/>
		<path fill="#54C0EB" d="M22.888,45.363l-0.844,2.43H18.72l-0.843-2.43c1.389-0.596,2.48-0.695,2.48-0.695
			S21.499,44.768,22.888,45.363z"/>
	</g>
	<path fill="#84DBFF" d="M24.127,62.477l-2.083-14.684H18.72l-1.687,11.855C19.216,60.84,21.598,61.832,24.127,62.477z"/>
	<path fill="#324A5E" d="M15.248,58.607c-5.457-3.473-9.772-8.582-12.253-14.633l9.624-4.613
		c-0.992,4.166,0.843,10.912,0.893,10.764C13.859,52.656,14.454,55.482,15.248,58.607z"/>
	<g>
		<path fill="#FFFFFF" d="M26.657,36.73c0,0,0.794,4.465-6.3,7.938c0,0,5.308,0.396,6.846,5.408
			C27.302,50.225,30.18,39.41,26.657,36.73z"/>
		<path fill="#FFFFFF" d="M14.057,36.73c-3.473,2.631-0.595,13.494-0.545,13.295c1.587-4.961,6.846-5.406,6.846-5.406
			C13.264,41.246,14.057,36.73,14.057,36.73z"/>
	</g>
	<path fill="#FFD05B" d="M28.394,31.672c-0.893,2.728-1.19,4.166-1.19,4.166c-1.835,2.529-4.217,4.217-6.846,4.217
		c-2.48,0-4.713-1.537-6.548-3.82l0.049,0.051c-3.869-4.761-1.19-13.542-1.19-13.542c1.935,2.184,8.185,2.332,8.185,2.332
		c-2.728-0.447-3.175-2.629-3.175-2.629c0.447,1.338,6.499,2.133,6.499,2.133C30.477,25.571,28.394,31.672,28.394,31.672z"/>
	<g>
		<path fill="#324A5E" d="M16.736,13.616c0,0,8.532-3.424,12.849,4.314c4.663,8.234-1.191,17.214-2.381,17.908
			c0,0,0.298-1.438,1.19-4.166c0,0,2.083-6.102-4.167-7.045c0,0-6.102-0.793-6.499-2.133c0,0,0.447,2.184,3.175,2.629
			c0,0-6.25-0.148-8.185-2.33c0,0-2.679,8.779,1.24,13.541c0,0-6.697-5.357-5.903-13.64C8.005,22.694,7.658,11.334,16.736,13.616z"
			/>
		<path fill="#324A5E" d="M45.607,60.492c-4.068,1.936-8.631,3.027-13.444,3.027c-2.728,0-5.357-0.348-7.838-0.992
			c1.488-4.613,2.382-8.83,2.927-12.451l0,0c0.099,0,1.835-6.648,0.893-10.766l12.601,6.102L45.607,60.492z"/>
	</g>
</g>
</svg>
