<?xml version="1.0" encoding="utf-8"?>
<!-- Generator: Adobe Illustrator 13.0.0, SVG Export Plug-In . SVG Version: 6.00 Build 14948)  -->
<!DOCTYPE svg PUBLIC "-//W3C//DTD SVG 1.1//EN" "http://www.w3.org/Graphics/SVG/1.1/DTD/svg11.dtd">
<svg version="1.1" id="Layer_1" xmlns="http://www.w3.org/2000/svg" xmlns:xlink="http://www.w3.org/1999/xlink" x="0px" y="0px"
	 width="64px" height="64px" viewBox="0 0 64 64" enable-background="new 0 0 64 64" xml:space="preserve">
<g>
	<circle fill="#88C5CC" cx="32.035" cy="31.999" r="31.5"/>
	<path fill="#80B9BF" d="M55.852,28.301c0-0.08-0.313-0.221-0.601-0.277l-22.484-2.895c-0.827-0.162-2.192-0.178-3.019-0.018
		L7.237,27.965C6.956,28.02,6.633,28.09,6.633,28.18v0.252v0.123v0.129v0.123v0.141v0.07v0.041v0.141v0.037v0.033v0.182v0.035v0.053
		l12.844,31.679c3.636,1.467,7.605,2.281,11.766,2.281c14.074,0,25.988-9.23,30.028-21.967L55.852,28.301z"/>
	<path fill="#2D424D" d="M15.493,27.57v13.78l0,0c0.54,2.953,7.424,5.365,15.749,5.365c8.326,0,15.135-2.412,15.675-5.365h0.076
		V27.57H15.493z"/>
	<path fill="#253740" d="M45.516,27.57v13.78l0,0c-0.522,2.953-7.066,5.182-15.039,5.322c0.253,0.004,0.509,0.025,0.766,0.025
		c8.326,0,15.21-2.395,15.751-5.348l0,0V27.57H45.516z"/>
	<path fill="#1E2C33" d="M54.867,28.063v0.619L32.68,25.863c-0.827-0.162-2.026-0.162-2.853,0L8.109,28.605v-0.051H6.633v0.393v0.07
		v0.219c0,0.094,0.291,0.189,0.546,0.277l18.378,5.521c0.797,0.273,2.13,0.332,2.948,0.131l26.757-5.782
		c0.28-0.07,0.589-0.148,0.589-0.232v-0.133v-0.086v-0.377L54.867,28.063z"/>
	<path fill="#2D424D" d="M55.852,28.166c0-0.08-0.313-0.154-0.601-0.211l-22.484-2.861c-0.827-0.16-2.192-0.16-3.019,0L7.237,27.955
		c-0.281,0.057-0.604,0.135-0.604,0.225v0.375c0,0.096,0.291,0.105,0.546,0.193l18.378,5.521c0.797,0.273,2.13,0.332,2.948,0.131
		c0,0,27.346-5.763,27.346-5.845L55.852,28.166L55.852,28.166z"/>
	<path fill="#FFD464" d="M38.379,47.411c-0.422,0-0.737-0.344-0.737-0.768V33.017l-8.615-2.89c-0.401-0.135-0.59-0.568-0.456-0.971
		c0.134-0.4,0.584-0.619,0.983-0.484l9.119,3.066c0.313,0.105,0.938,0.424,0.938,0.754v14.272
		C39.61,47.187,38.802,47.411,38.379,47.411z"/>
	<path fill="#E16B5A" d="M40.595,48.241c0,0,0-1.324,0-1.598c0-1.059-0.911-1.916-1.969-1.916c-1.06,0-1.97,0.857-1.97,1.916
		c0,0.273,0,1.598,0,1.598H40.595z"/>
	<rect x="36.656" y="48.241" fill="#FFD464" width="3.938" height="4.43"/>
	<g>
		<rect x="37.148" y="48.241" fill="#FFE399" width="0.493" height="4.43"/>
		<rect x="38.133" y="48.241" fill="#FFE399" width="0.493" height="4.43"/>
		<rect x="39.118" y="48.241" fill="#FFE399" width="0.492" height="4.43"/>
	</g>
</g>
</svg>
