<?xml version="1.0" encoding="utf-8"?>
<!-- Generator: Adobe Illustrator 13.0.0, SVG Export Plug-In . SVG Version: 6.00 Build 14948)  -->
<!DOCTYPE svg PUBLIC "-//W3C//DTD SVG 1.1//EN" "http://www.w3.org/Graphics/SVG/1.1/DTD/svg11.dtd">
<svg version="1.1" id="Layer_1" xmlns="http://www.w3.org/2000/svg" xmlns:xlink="http://www.w3.org/1999/xlink" x="0px" y="0px"
	 width="32px" height="32px" viewBox="0 0 32 32" enable-background="new 0 0 32 32" xml:space="preserve">
<g>
	<circle fill="#55ACEE" cx="15.5" cy="15.5" r="15.5"/>
	<g>
		<path fill="#F1F2F2" d="M24.994,11.14c-0.664,0.294-1.378,0.493-2.128,0.583c0.766-0.459,1.353-1.184,1.63-2.05
			c-0.716,0.425-1.51,0.733-2.354,0.898c-0.675-0.72-1.639-1.169-2.705-1.169c-2.045,0-3.704,1.659-3.704,3.705
			c0,0.29,0.032,0.572,0.097,0.844c-3.08-0.154-5.81-1.629-7.638-3.871c-0.318,0.547-0.502,1.184-0.502,1.862
			c0,1.285,0.655,2.42,1.648,3.084c-0.607-0.019-1.179-0.186-1.678-0.464c0,0.016,0,0.031,0,0.047c0,1.795,1.277,3.293,2.972,3.633
			c-0.311,0.085-0.639,0.13-0.976,0.13c-0.239,0-0.471-0.022-0.697-0.066c0.472,1.472,1.84,2.543,3.461,2.573
			c-1.269,0.994-2.865,1.586-4.602,1.586c-0.299,0-0.595-0.017-0.884-0.052c1.639,1.052,3.587,1.665,5.68,1.665
			c6.814,0,10.541-5.646,10.541-10.542c0-0.16-0.004-0.32-0.011-0.479C23.87,12.535,24.498,11.883,24.994,11.14L24.994,11.14z"/>
	</g>
</g>
</svg>
