<?xml version="1.0" encoding="utf-8"?>
<!-- Generator: Adobe Illustrator 13.0.0, SVG Export Plug-In . SVG Version: 6.00 Build 14948)  -->
<!DOCTYPE svg PUBLIC "-//W3C//DTD SVG 1.1//EN" "http://www.w3.org/Graphics/SVG/1.1/DTD/svg11.dtd">
<svg version="1.1" id="Layer_1" xmlns="http://www.w3.org/2000/svg" xmlns:xlink="http://www.w3.org/1999/xlink" x="0px" y="0px"
	 width="32px" height="32px" viewBox="0 0 32 32" enable-background="new 0 0 32 32" xml:space="preserve">
<g>
	<circle fill="#D22215" cx="15.5" cy="15.5" r="15.5"/>
	<path fill="#FFFFFF" d="M20.686,9.223H10.313c-2.034,0-3.684,1.649-3.684,3.685v5.185c0,2.035,1.649,3.685,3.684,3.685h10.372
		c2.035,0,3.684-1.649,3.684-3.685v-5.185C24.369,10.872,22.721,9.223,20.686,9.223L20.686,9.223z M18.194,15.752l-4.852,2.313
		c-0.129,0.062-0.279-0.032-0.279-0.176v-4.771c0-0.146,0.153-0.24,0.283-0.174l4.852,2.458
		C18.342,15.476,18.34,15.682,18.194,15.752L18.194,15.752z"/>
</g>
</svg>
