<?xml version="1.0" encoding="utf-8"?>
<!-- Generator: Adobe Illustrator 13.0.0, SVG Export Plug-In . SVG Version: 6.00 Build 14948)  -->
<!DOCTYPE svg PUBLIC "-//W3C//DTD SVG 1.1//EN" "http://www.w3.org/Graphics/SVG/1.1/DTD/svg11.dtd">
<svg version="1.1" id="Layer_1" xmlns="http://www.w3.org/2000/svg" xmlns:xlink="http://www.w3.org/1999/xlink" x="0px" y="0px"
	 width="32px" height="32px" viewBox="0 0 32 32" enable-background="new 0 0 32 32" xml:space="preserve">
<g>
	<g>
		<g>
			<circle fill="#88C5CC" cx="15.625" cy="15.5" r="15.5"/>
		</g>
	</g>
	<path fill="#434C6D" d="M17.292,5.501c-3.718,0-6.856,0.861-7.929,2.158C7.182,8.192,5.92,9.093,5.674,10.003
		c-0.028,0.049-0.049,0.104-0.049,0.164v0.166v3.834v0.166v0.168v3.666v0.166V18.5v4c0,0.054,0.014,0.105,0.039,0.15
		c0.394,1.632,3.916,2.85,8.295,2.85c3.746,0,6.859-0.894,7.928-2.173c2.12-0.515,3.456-1.358,3.697-2.333
		c0.026-0.048,0.041-0.103,0.041-0.161v-4v-0.166v-3.834v-0.166v-4C25.625,7.132,22.704,5.501,17.292,5.501z M21.56,18.616
		c-0.013,0.033-0.029,0.065-0.047,0.099c-0.022,0.041-0.048,0.082-0.077,0.123c-0.022,0.031-0.047,0.062-0.073,0.093
		c-0.037,0.043-0.076,0.087-0.121,0.13c-0.027,0.026-0.057,0.053-0.087,0.079c-0.055,0.048-0.111,0.095-0.175,0.142
		c-0.027,0.021-0.057,0.04-0.086,0.061c-0.075,0.052-0.154,0.104-0.24,0.154c-0.022,0.014-0.047,0.026-0.07,0.04
		c-0.1,0.056-0.203,0.111-0.315,0.165c-0.015,0.008-0.029,0.014-0.044,0.021c-0.125,0.06-0.256,0.117-0.396,0.173
		c-0.004,0.002-0.008,0.004-0.012,0.005c-0.757,0.303-1.726,0.557-2.854,0.724c-0.006,0.001-0.012,0.001-0.018,0.002
		c-0.219,0.032-0.444,0.062-0.675,0.087c-0.038,0.004-0.077,0.007-0.115,0.011c-0.202,0.021-0.405,0.04-0.616,0.056
		c-0.096,0.007-0.196,0.01-0.294,0.016c-0.158,0.01-0.314,0.021-0.477,0.025c-0.265,0.009-0.534,0.014-0.81,0.014
		c-0.276,0-0.547-0.005-0.812-0.015c-0.161-0.005-0.318-0.016-0.476-0.025c-0.098-0.005-0.199-0.009-0.295-0.016
		c-0.21-0.016-0.414-0.035-0.615-0.056c-0.039-0.004-0.078-0.007-0.115-0.011c-0.231-0.025-0.457-0.055-0.676-0.087
		c-0.006,0-0.012-0.001-0.018-0.002c-1.128-0.167-2.096-0.421-2.854-0.724c-0.004-0.001-0.008-0.003-0.012-0.005
		c-0.14-0.056-0.271-0.113-0.395-0.173c-0.016-0.007-0.03-0.014-0.045-0.021c-0.111-0.054-0.215-0.108-0.314-0.165
		c-0.023-0.014-0.049-0.026-0.07-0.04c-0.087-0.051-0.166-0.103-0.241-0.154c-0.028-0.021-0.058-0.04-0.085-0.061
		c-0.064-0.047-0.121-0.094-0.176-0.142c-0.029-0.026-0.06-0.052-0.087-0.079c-0.044-0.043-0.084-0.086-0.12-0.13
		c-0.027-0.031-0.052-0.062-0.074-0.093c-0.029-0.041-0.054-0.082-0.076-0.123c-0.018-0.033-0.034-0.065-0.048-0.099
		c-0.017-0.041-0.029-0.081-0.038-0.121c-0.014-0.053-0.027-0.107-0.027-0.161c0-0.037,0.005-0.075,0.011-0.112
		c0.009-0.051,0.004-0.101-0.011-0.148v-2.474c0.01,0.008,0.021,0.018,0.031,0.025c0.072,0.064,0.146,0.127,0.23,0.189
		c1.256,0.948,3.766,1.687,7.406,1.687c3.623,0,6.128-0.732,7.389-1.675c0.101-0.074,0.191-0.15,0.277-0.227l0,0v2.474
		c-0.014,0.048-0.019,0.098-0.011,0.148c0.007,0.037,0.011,0.075,0.011,0.112c0,0.054-0.014,0.108-0.026,0.162
		C21.589,18.535,21.576,18.575,21.56,18.616z M6.492,11.767c0.1,0.078,0.208,0.156,0.324,0.23c0.025,0.016,0.053,0.031,0.078,0.047
		c0.098,0.063,0.201,0.121,0.311,0.18c0.04,0.021,0.08,0.043,0.122,0.064c0.122,0.063,0.249,0.123,0.384,0.182
		c0.021,0.01,0.041,0.02,0.064,0.027c0.156,0.066,0.322,0.131,0.494,0.191c0.049,0.018,0.098,0.033,0.146,0.051
		c0.139,0.045,0.279,0.09,0.427,0.133c0.054,0.016,0.104,0.031,0.159,0.047c0.195,0.053,0.396,0.105,0.607,0.152
		c0.029,0.006,0.061,0.012,0.09,0.018c0.187,0.041,0.38,0.078,0.578,0.113c0.068,0.014,0.137,0.023,0.205,0.035
		c0.189,0.031,0.384,0.061,0.583,0.086c0.052,0.006,0.101,0.014,0.152,0.02c0.248,0.031,0.505,0.057,0.769,0.078
		c0.064,0.006,0.133,0.01,0.199,0.014c0.211,0.016,0.426,0.029,0.646,0.039c0.08,0.004,0.16,0.008,0.242,0.01
		c0.288,0.01,0.58,0.018,0.885,0.018c0.303,0,0.596-0.008,0.883-0.018c0.082-0.002,0.162-0.006,0.242-0.01
		c0.221-0.01,0.437-0.023,0.647-0.039c0.065-0.004,0.134-0.008,0.198-0.014c0.264-0.021,0.521-0.047,0.769-0.078
		c0.052-0.006,0.101-0.014,0.152-0.02c0.2-0.025,0.395-0.055,0.583-0.086c0.069-0.012,0.138-0.021,0.205-0.035
		c0.198-0.035,0.392-0.072,0.578-0.113c0.029-0.006,0.061-0.012,0.09-0.018c0.211-0.047,0.412-0.1,0.607-0.152
		c0.055-0.016,0.106-0.031,0.159-0.047c0.147-0.043,0.289-0.088,0.427-0.133c0.049-0.018,0.099-0.033,0.146-0.051
		c0.173-0.061,0.339-0.125,0.495-0.191c0.022-0.008,0.042-0.018,0.064-0.027c0.134-0.059,0.262-0.119,0.383-0.182
		c0.042-0.021,0.083-0.043,0.123-0.064c0.108-0.059,0.212-0.117,0.311-0.18c0.025-0.016,0.053-0.031,0.077-0.047
		c0.117-0.074,0.225-0.152,0.325-0.23c0.024-0.021,0.047-0.041,0.071-0.061c0.043-0.037,0.089-0.072,0.129-0.107v2.475
		c-0.014,0.047-0.019,0.098-0.011,0.148c0.007,0.037,0.011,0.074,0.011,0.111c0,0.055-0.014,0.107-0.026,0.162
		c-0.01,0.041-0.022,0.08-0.039,0.121c-0.013,0.033-0.029,0.066-0.047,0.1c-0.022,0.041-0.048,0.082-0.077,0.123
		c-0.022,0.031-0.047,0.061-0.073,0.092c-0.037,0.043-0.076,0.088-0.121,0.131c-0.027,0.027-0.057,0.053-0.087,0.078
		c-0.055,0.049-0.111,0.096-0.175,0.143c-0.027,0.02-0.057,0.041-0.086,0.061c-0.075,0.051-0.154,0.104-0.24,0.154
		c-0.022,0.014-0.047,0.025-0.07,0.039c-0.1,0.057-0.203,0.111-0.315,0.166c-0.015,0.008-0.029,0.014-0.044,0.021
		c-0.125,0.059-0.256,0.115-0.396,0.172c-0.004,0.002-0.008,0.004-0.012,0.006c-0.757,0.301-1.726,0.555-2.854,0.722
		c-0.006,0.001-0.012,0.001-0.018,0.002c-0.219,0.032-0.444,0.062-0.675,0.087c-0.038,0.004-0.077,0.007-0.115,0.011
		c-0.202,0.021-0.405,0.04-0.616,0.056c-0.096,0.007-0.196,0.01-0.294,0.016c-0.158,0.01-0.314,0.021-0.477,0.025
		c-0.265,0.009-0.534,0.014-0.81,0.014c-0.276,0-0.547-0.005-0.812-0.015c-0.161-0.005-0.318-0.016-0.476-0.025
		c-0.098-0.005-0.199-0.009-0.295-0.016c-0.21-0.016-0.414-0.035-0.615-0.056c-0.039-0.004-0.078-0.007-0.115-0.011
		c-0.231-0.025-0.457-0.055-0.676-0.087c-0.006,0-0.012-0.001-0.018-0.002c-1.128-0.166-2.096-0.42-2.854-0.723
		c-0.004-0.002-0.008-0.004-0.012-0.004c-0.14-0.057-0.271-0.115-0.395-0.174c-0.016-0.008-0.03-0.014-0.045-0.02
		c-0.111-0.055-0.215-0.109-0.314-0.166c-0.023-0.014-0.049-0.027-0.07-0.041c-0.087-0.051-0.166-0.102-0.241-0.154
		c-0.028-0.02-0.058-0.039-0.085-0.059c-0.064-0.047-0.121-0.096-0.176-0.143c-0.029-0.025-0.06-0.053-0.087-0.078
		c-0.044-0.045-0.084-0.088-0.12-0.133c-0.027-0.029-0.052-0.061-0.074-0.092c-0.029-0.041-0.054-0.082-0.076-0.123
		c-0.018-0.033-0.034-0.066-0.048-0.098c-0.017-0.041-0.029-0.082-0.038-0.121c-0.014-0.055-0.027-0.107-0.027-0.162
		c0-0.037,0.005-0.074,0.011-0.111c0.009-0.051,0.004-0.102-0.011-0.148v-2.475c0.041,0.035,0.086,0.07,0.13,0.107
		C6.445,11.726,6.467,11.745,6.492,11.767z M22.292,18.53V18.5v-0.167v-0.166v-2.941c0.014-0.004,0.027-0.01,0.042-0.014
		c0.133-0.037,0.263-0.074,0.389-0.115c0.002,0,0.003,0,0.005,0c0.986-0.313,1.74-0.701,2.23-1.145v2.715
		c0,0.038-0.005,0.077-0.012,0.116c-0.005,0.032-0.014,0.063-0.023,0.096c-0.003,0.01-0.005,0.019-0.009,0.028
		c-0.012,0.035-0.026,0.07-0.044,0.105c-0.002,0.004-0.005,0.009-0.007,0.013c-0.275,0.538-1.154,1.067-2.423,1.46
		C22.392,18.5,22.342,18.516,22.292,18.53z M24.958,9.95v2.717c0,0.039-0.005,0.078-0.012,0.117
		c-0.005,0.031-0.014,0.063-0.023,0.096c-0.003,0.008-0.005,0.018-0.009,0.027c-0.012,0.035-0.026,0.07-0.044,0.105
		c-0.002,0.004-0.005,0.008-0.007,0.014c-0.275,0.537-1.154,1.066-2.423,1.459c-0.049,0.016-0.099,0.029-0.148,0.045v-0.029v-0.168
		v-0.166v-2.943c0.027-0.008,0.054-0.016,0.081-0.023c0.076-0.021,0.151-0.045,0.226-0.066c0.063-0.02,0.126-0.039,0.187-0.059
		c0.076-0.023,0.149-0.049,0.223-0.076c0.056-0.018,0.111-0.037,0.165-0.057c0.077-0.029,0.15-0.059,0.225-0.088
		c0.046-0.018,0.093-0.035,0.137-0.055c0.086-0.035,0.167-0.072,0.248-0.111c0.028-0.012,0.06-0.025,0.087-0.039
		c0.108-0.053,0.212-0.105,0.311-0.16c0.011-0.006,0.02-0.012,0.029-0.018c0.087-0.047,0.171-0.098,0.251-0.148
		c0.027-0.018,0.053-0.035,0.08-0.055c0.059-0.039,0.116-0.078,0.17-0.117c0.03-0.023,0.057-0.045,0.085-0.068
		c0.047-0.037,0.094-0.074,0.137-0.111C24.94,9.964,24.95,9.956,24.958,9.95z M17.292,6.167c4.518,0,7.666,1.316,7.666,2.5
		c0,0.045-0.004,0.088-0.013,0.133c-0.003,0.016-0.009,0.029-0.013,0.043c-0.007,0.031-0.015,0.061-0.026,0.09
		C24.9,8.95,24.891,8.968,24.884,8.985c-0.013,0.027-0.024,0.055-0.04,0.08c-0.011,0.02-0.022,0.037-0.034,0.057
		c-0.017,0.025-0.033,0.051-0.053,0.076c-0.014,0.02-0.029,0.037-0.045,0.057c-0.021,0.025-0.042,0.051-0.065,0.076
		c-0.018,0.018-0.036,0.037-0.055,0.055c-0.025,0.025-0.051,0.051-0.079,0.074c-0.021,0.02-0.042,0.037-0.063,0.057
		c-0.029,0.023-0.061,0.049-0.092,0.072c-0.023,0.018-0.048,0.037-0.073,0.055c-0.033,0.023-0.069,0.049-0.104,0.072
		c-0.026,0.018-0.053,0.035-0.081,0.053c-0.038,0.023-0.079,0.049-0.12,0.072c-0.028,0.016-0.056,0.033-0.086,0.049
		c-0.044,0.025-0.09,0.049-0.137,0.074c-0.03,0.014-0.059,0.029-0.089,0.045c-0.052,0.025-0.105,0.051-0.159,0.074
		c-0.029,0.014-0.057,0.027-0.087,0.041c-0.071,0.031-0.145,0.063-0.22,0.094c-0.015,0.006-0.028,0.012-0.044,0.018
		c-0.091,0.037-0.186,0.072-0.283,0.107c-0.026,0.01-0.056,0.018-0.083,0.027c-0.071,0.025-0.143,0.049-0.217,0.074
		c-0.039,0.012-0.079,0.023-0.119,0.037c-0.054,0.016-0.107,0.031-0.162,0.049v-0.197v-0.166c0-0.037-0.01-0.074-0.022-0.107
		c-0.004-0.014-0.009-0.025-0.015-0.039c-0.001,0-0.001-0.002-0.002-0.004c-0.095-0.393-0.374-0.76-0.799-1.094
		c-0.002-0.002-0.005-0.004-0.007-0.006c-0.061-0.047-0.129-0.092-0.195-0.139c-1.183-0.836-3.358-1.492-6.444-1.596
		c-0.28-0.01-0.563-0.016-0.85-0.016c-0.285,0-0.568,0.006-0.85,0.016c-0.832,0.027-1.596,0.098-2.294,0.199
		C12.106,6.704,14.383,6.167,17.292,6.167z M10.123,8.187c0.084-0.016,0.17-0.031,0.256-0.047c0.111-0.02,0.223-0.039,0.336-0.059
		c0.1-0.016,0.201-0.029,0.303-0.045c0.111-0.016,0.227-0.031,0.342-0.045c0.098-0.012,0.195-0.025,0.295-0.035
		c0.2-0.023,0.403-0.041,0.611-0.057c0.079-0.008,0.159-0.012,0.239-0.016c0.161-0.012,0.323-0.021,0.489-0.027
		c0.079-0.004,0.157-0.008,0.236-0.01c0.239-0.008,0.48-0.014,0.729-0.014c0.275,0,0.545,0.006,0.811,0.016
		c0.16,0.006,0.314,0.016,0.471,0.025c0.1,0.006,0.201,0.01,0.301,0.016c0.207,0.016,0.407,0.035,0.606,0.055
		c0.041,0.004,0.084,0.008,0.124,0.012c0.227,0.025,0.446,0.053,0.66,0.084c0.012,0.002,0.023,0.004,0.033,0.004
		c1.123,0.166,2.088,0.42,2.843,0.721c0.008,0.002,0.017,0.006,0.025,0.01c0.136,0.055,0.262,0.109,0.383,0.168
		c0.019,0.008,0.038,0.016,0.057,0.025c0.108,0.053,0.208,0.105,0.305,0.16c0.026,0.014,0.055,0.029,0.08,0.045
		c0.083,0.049,0.159,0.1,0.232,0.148c0.031,0.021,0.063,0.045,0.093,0.066c0.062,0.045,0.116,0.092,0.169,0.137
		c0.032,0.027,0.063,0.055,0.092,0.084c0.044,0.041,0.082,0.084,0.117,0.125c0.027,0.033,0.054,0.064,0.076,0.098
		c0.028,0.039,0.053,0.08,0.075,0.119c0.019,0.033,0.035,0.068,0.049,0.102c0.016,0.039,0.028,0.08,0.038,0.119
		c0.013,0.055,0.026,0.109,0.026,0.162c0,1.184-3.148,2.5-7.666,2.5c-4.52,0-7.668-1.316-7.668-2.5
		C6.291,9.526,7.758,8.659,10.123,8.187z M13.959,24.833c-4.346,0-7.468-1.234-7.656-2.387c-0.003-0.016-0.006-0.03-0.012-0.044
		v-2.805c0.01,0.009,0.021,0.017,0.031,0.025c0.072,0.064,0.146,0.128,0.23,0.189c1.256,0.949,3.766,1.688,7.406,1.688
		c3.623,0,6.128-0.732,7.389-1.676c0.101-0.073,0.191-0.149,0.277-0.227l0,0v2.804c-0.005,0.015-0.008,0.029-0.011,0.045
		c-0.011,0.067-0.034,0.136-0.065,0.204c-0.012,0.026-0.03,0.053-0.046,0.079C20.9,23.792,17.948,24.833,13.959,24.833z
		 M24.947,20.779c-0.105,0.647-1.104,1.297-2.657,1.752c0.001-0.011,0.002-0.021,0.002-0.031v-3.276
		c0.014-0.004,0.027-0.008,0.042-0.012c0.133-0.038,0.263-0.076,0.389-0.115c0.002-0.001,0.003-0.001,0.005-0.002
		c0.986-0.312,1.74-0.699,2.23-1.142v2.781C24.954,20.749,24.95,20.764,24.947,20.779z"/>
</g>
</svg>
