<?xml version="1.0" encoding="utf-8"?>
<!-- Generator: Adobe Illustrator 13.0.0, SVG Export Plug-In . SVG Version: 6.00 Build 14948)  -->
<!DOCTYPE svg PUBLIC "-//W3C//DTD SVG 1.1//EN" "http://www.w3.org/Graphics/SVG/1.1/DTD/svg11.dtd">
<svg version="1.1" id="Layer_1" xmlns="http://www.w3.org/2000/svg" xmlns:xlink="http://www.w3.org/1999/xlink" x="0px" y="0px"
	 width="32px" height="32px" viewBox="0 0 32 32" enable-background="new 0 0 32 32" xml:space="preserve">
<g>
	<circle fill="#26B99A" cx="16.068" cy="16.046" r="15.5"/>
	<g>
		<g>
			<path fill="#434C6D" d="M22.368,19.986c-0.081,0-0.162-0.03-0.226-0.09l-3.773-3.542c-0.133-0.123-0.139-0.331-0.016-0.464
				c0.123-0.132,0.332-0.138,0.465-0.013l3.772,3.541c0.134,0.124,0.14,0.331,0.017,0.463C22.542,19.95,22.456,19.986,22.368,19.986
				z"/>
			<path fill="#434C6D" d="M9.768,19.986c-0.087,0-0.174-0.036-0.239-0.104c-0.124-0.132-0.117-0.339,0.015-0.463l3.775-3.541
				c0.133-0.123,0.34-0.119,0.464,0.013c0.124,0.133,0.118,0.341-0.014,0.464l-3.776,3.542C9.93,19.956,9.849,19.986,9.768,19.986z"
				/>
		</g>
		<path fill="#434C6D" d="M24.6,23.277H7.537c-0.904,0-1.64-0.735-1.64-1.641V10.455c0-0.904,0.736-1.64,1.64-1.64H24.6
			c0.904,0,1.642,0.736,1.642,1.64v11.184C26.24,22.542,25.504,23.277,24.6,23.277z M7.537,9.471c-0.542,0-0.984,0.441-0.984,0.984
			v11.184c0,0.543,0.441,0.983,0.984,0.983H24.6c0.543,0,0.985-0.44,0.985-0.983V10.455c0-0.543-0.442-0.984-0.985-0.984H7.537z"/>
		<path fill="#434C6D" d="M16.068,17.695c-0.436,0-0.873-0.146-1.204-0.435l-8.423-7.35C6.305,9.794,6.291,9.586,6.409,9.45
			c0.12-0.136,0.327-0.149,0.463-0.032l8.422,7.348c0.419,0.364,1.128,0.364,1.545,0l8.413-7.336
			c0.137-0.117,0.344-0.106,0.464,0.032c0.117,0.136,0.104,0.344-0.032,0.463l-8.41,7.334
			C16.939,17.549,16.505,17.695,16.068,17.695z"/>
	</g>
</g>
</svg>
