<?xml version="1.0" encoding="utf-8"?>
<!-- Generator: Adobe Illustrator 13.0.0, SVG Export Plug-In . SVG Version: 6.00 Build 14948)  -->
<!DOCTYPE svg PUBLIC "-//W3C//DTD SVG 1.1//EN" "http://www.w3.org/Graphics/SVG/1.1/DTD/svg11.dtd">
<svg version="1.1" id="Layer_1" xmlns="http://www.w3.org/2000/svg" xmlns:xlink="http://www.w3.org/1999/xlink" x="0px" y="0px"
	 width="32px" height="32px" viewBox="0 0 32 32" enable-background="new 0 0 32 32" xml:space="preserve">
<g>
	<g>
		<circle fill="#84DBFF" cx="15.5" cy="15.5" r="15.499"/>
	</g>
</g>
<path fill="#434C6D" d="M23.338,19.38l-3.185-1.592c-0.3-0.15-0.486-0.452-0.486-0.788v-1.127c0.076-0.094,0.156-0.2,0.239-0.317
	c0.413-0.583,0.744-1.233,0.984-1.933c0.471-0.216,0.776-0.681,0.776-1.206v-1.333c0-0.321-0.12-0.632-0.334-0.875V8.436
	c0.019-0.183,0.093-1.274-0.697-2.175c-0.685-0.781-1.796-1.177-3.303-1.177S14.715,5.479,14.03,6.26
	c-0.478,0.546-0.639,1.16-0.688,1.602c-0.571-0.295-1.245-0.445-2.01-0.445c-3.463,0-3.664,2.952-3.666,3v1.526
	C7.45,12.179,7.333,12.45,7.333,12.72v1.151c0,0.36,0.161,0.695,0.438,0.922c0.274,1.037,0.951,1.82,1.215,2.095v0.915
	c0,0.262-0.143,0.502-0.391,0.638l-2.218,1.392C5.527,20.295,5,21.184,5,22.151v1.266h4.667h0.666H25v-1.348
	C25,20.923,24.363,19.893,23.338,19.38z M9.667,22.004v0.746h-4v-0.599c0-0.724,0.395-1.388,1.047-1.744l2.217-1.392
	c0.444-0.242,0.721-0.707,0.721-1.213v-1.197l-0.106-0.1c-0.008-0.008-0.894-0.844-1.155-1.985l-0.03-0.132l-0.114-0.073
	C8.092,14.217,8,14.05,8,13.871V12.72c0-0.12,0.082-0.263,0.224-0.391l0.109-0.099v-1.793c0.006-0.096,0.18-2.353,3-2.353
	c0.798,0,1.47,0.185,2,0.548v1.577C13.12,10.452,13,10.763,13,11.083v1.333c0,0.101,0.012,0.201,0.033,0.297
	c0.01,0.039,0.027,0.074,0.04,0.111c0.019,0.056,0.033,0.114,0.059,0.167c0,0,0.001,0.001,0.001,0.001
	c0.085,0.176,0.21,0.333,0.366,0.459c0.002,0.006,0.004,0.012,0.005,0.018c0.021,0.076,0.041,0.152,0.064,0.227l0.026,0.087
	c0.005,0.016,0.011,0.031,0.016,0.046c0.012,0.036,0.023,0.072,0.035,0.107c0.02,0.059,0.041,0.119,0.065,0.185
	c0.01,0.027,0.021,0.052,0.032,0.079c0.027,0.069,0.055,0.137,0.083,0.204c0.007,0.016,0.013,0.033,0.021,0.049l0.019,0.042
	c0.009,0.02,0.018,0.037,0.026,0.056c0.032,0.071,0.064,0.141,0.098,0.207c0.006,0.011,0.011,0.022,0.016,0.033
	c0.021,0.042,0.042,0.081,0.063,0.121c0.035,0.068,0.071,0.133,0.106,0.196c0.018,0.031,0.034,0.061,0.051,0.09
	c0.049,0.082,0.094,0.157,0.139,0.227c0.01,0.015,0.019,0.031,0.028,0.045c0.08,0.125,0.15,0.227,0.208,0.306
	c0.016,0.021,0.029,0.039,0.042,0.057c0.008,0.01,0.018,0.023,0.023,0.032v1.104c0,0.322-0.176,0.618-0.459,0.773l-0.882,0.48
	l-0.153-0.014l-0.063,0.132l-1.876,1.022C10.267,19.892,9.667,20.903,9.667,22.004z M24.333,22.75h-14v-0.746
	c0-0.856,0.468-1.645,1.22-2.055l2.974-1.621c0.498-0.271,0.807-0.793,0.807-1.359v-1.34l0,0l-0.064-0.077l-0.013-0.015
	c-0.001-0.002-0.021-0.026-0.055-0.07c-0.002-0.003-0.004-0.005-0.007-0.008c-0.018-0.023-0.038-0.051-0.062-0.083
	c0-0.001-0.001-0.001-0.001-0.002c-0.05-0.069-0.112-0.159-0.182-0.267c-0.002-0.002-0.003-0.005-0.005-0.007
	c-0.032-0.051-0.067-0.106-0.103-0.166c-0.003-0.004-0.005-0.009-0.008-0.013c-0.075-0.126-0.155-0.27-0.235-0.428c0,0,0,0,0-0.001
	c-0.042-0.085-0.085-0.174-0.126-0.267l0,0c-0.006-0.013-0.012-0.026-0.018-0.039l0,0c-0.019-0.042-0.036-0.085-0.055-0.13
	c-0.007-0.017-0.014-0.033-0.021-0.05c-0.018-0.043-0.035-0.087-0.054-0.138c-0.034-0.091-0.065-0.186-0.097-0.283l-0.019-0.059
	c-0.002-0.007-0.004-0.014-0.006-0.021c-0.031-0.105-0.062-0.213-0.087-0.324l-0.03-0.132l-0.113-0.073
	c-0.193-0.125-0.309-0.334-0.309-0.559v-1.333c0-0.187,0.079-0.361,0.223-0.492L14,10.493V8.417V8.299l-0.009-0.007
	c-0.012-0.241,0.003-0.979,0.541-1.592c0.552-0.63,1.495-0.95,2.801-0.95c1.302,0,2.242,0.317,2.796,0.943
	c0.648,0.734,0.541,1.672,0.541,1.68l-0.003,2.12l0.109,0.1C20.921,10.722,21,10.896,21,11.083v1.333
	c0,0.291-0.19,0.545-0.474,0.633l-0.166,0.051l-0.054,0.165c-0.223,0.693-0.541,1.334-0.944,1.904
	c-0.1,0.14-0.195,0.265-0.279,0.359L19,15.625V17c0,0.59,0.328,1.12,0.855,1.384l3.185,1.592c0.798,0.399,1.293,1.201,1.293,2.094
	V22.75z"/>
</svg>
