<?xml version="1.0" encoding="utf-8"?>
<!-- Generator: Adobe Illustrator 13.0.0, SVG Export Plug-In . SVG Version: 6.00 Build 14948)  -->
<!DOCTYPE svg PUBLIC "-//W3C//DTD SVG 1.1//EN" "http://www.w3.org/Graphics/SVG/1.1/DTD/svg11.dtd">
<svg version="1.1" id="Layer_1" xmlns="http://www.w3.org/2000/svg" xmlns:xlink="http://www.w3.org/1999/xlink" x="0px" y="0px"
	 width="32px" height="32px" viewBox="0 0 32 32" enable-background="new 0 0 32 32" xml:space="preserve">
<g>
	<g>
		<g>
			<g>
				<g>
					<g>
						<circle fill="#212121" cx="16.002" cy="15.5" r="15.5"/>
					</g>
				</g>
			</g>
		</g>
	</g>
	<g>
		<g>
			<g>
				<path fill="#FFFFFF" d="M24.389,10.015h-2.26V5.5H9.873v4.516H7.617c-0.89,0-1.614,0.725-1.614,1.615v7.741
					c0,0.889,0.725,1.613,1.614,1.613h2.26V25.5h12.26v-4.516h2.252c0.889,0,1.613-0.725,1.613-1.613V11.63
					C26.002,10.74,25.277,10.015,24.389,10.015z M10.518,6.146h10.968v3.869H10.518V6.146z M21.486,24.855H10.518V17.76h10.968
					V24.855z M25.357,19.371c0,0.535-0.434,0.969-0.969,0.969h-2.26v-3.227H9.873v3.227H7.617c-0.536,0-0.969-0.434-0.969-0.969
					V11.63c0-0.535,0.433-0.969,0.969-0.969h16.772c0.535,0,0.969,0.434,0.969,0.969V19.371z"/>
			</g>
		</g>
		<g>
			<g>
				<path fill="#FFFFFF" d="M23.424,11.63c-0.535,0-0.969,0.432-0.969,0.969c0,0.535,0.434,0.967,0.969,0.967
					s0.969-0.432,0.969-0.967C24.393,12.062,23.955,11.63,23.424,11.63z M23.424,12.921c-0.178,0-0.322-0.146-0.322-0.322
					c0-0.178,0.145-0.324,0.322-0.324s0.322,0.146,0.322,0.324C23.742,12.775,23.602,12.921,23.424,12.921z"/>
			</g>
		</g>
		<g>
			<g>
				<path fill="#FFFFFF" d="M20.842,11.63c-0.537,0-0.971,0.432-0.971,0.969c0,0.535,0.434,0.967,0.971,0.967
					c0.535,0,0.967-0.432,0.967-0.967C21.809,12.062,21.377,11.63,20.842,11.63z M20.842,12.921c-0.178,0-0.324-0.146-0.324-0.322
					c0-0.178,0.146-0.324,0.324-0.324c0.176,0,0.322,0.146,0.322,0.324C21.164,12.775,21.018,12.921,20.842,12.921z"/>
			</g>
		</g>
		<g>
			<g>
				<rect x="11.487" y="19.047" fill="#FFFFFF" width="9.031" height="0.646"/>
			</g>
		</g>
		<g>
			<g>
				<rect x="11.487" y="20.984" fill="#FFFFFF" width="9.031" height="0.646"/>
			</g>
		</g>
		<g>
			<g>
				<rect x="11.487" y="22.922" fill="#FFFFFF" width="9.031" height="0.646"/>
			</g>
		</g>
	</g>
</g>
</svg>
