<?xml version="1.0" encoding="utf-8"?>
<!-- Generator: Adobe Illustrator 13.0.0, SVG Export Plug-In . SVG Version: 6.00 Build 14948)  -->
<!DOCTYPE svg PUBLIC "-//W3C//DTD SVG 1.1//EN" "http://www.w3.org/Graphics/SVG/1.1/DTD/svg11.dtd">
<svg version="1.1" id="Layer_1" xmlns="http://www.w3.org/2000/svg" xmlns:xlink="http://www.w3.org/1999/xlink" x="0px" y="0px"
	 width="32px" height="32px" viewBox="0 0 32 32" enable-background="new 0 0 32 32" xml:space="preserve">
<g>
	<g>
		<g>
			<g>
				<g>
					<circle fill="#26B99A" cx="15.5" cy="15.5" r="15.499"/>
				</g>
			</g>
		</g>
	</g>
	<g>
		<g>
			<path fill="#434C6D" d="M25.24,21.855l-0.021-0.041c-0.453-0.833-2.891-5.289-6.584-11.354V7.024
				c0.518-0.062,0.921-0.501,0.921-1.034c0-0.575-0.468-1.043-1.044-1.043l-6.023-0.002c-0.574,0.002-1.042,0.471-1.042,1.045
				c0,0.53,0.398,0.969,0.911,1.033l0.011,3.437c-4.037,6.631-6.602,11.403-6.621,11.443c-0.404,1.203-0.312,2.345,0.254,3.132
				c0.479,0.668,1.247,1.021,2.219,1.021h14.561c0.971,0,1.737-0.354,2.219-1.024C25.567,24.241,25.658,23.089,25.24,21.855z
				 M24.386,24.592c-0.334,0.464-0.888,0.71-1.604,0.71H8.221c-0.718,0-1.272-0.244-1.605-0.707
				c-0.421-0.586-0.481-1.466-0.175-2.394c0.023-0.042,2.602-4.83,6.644-11.465l0.04-0.064V6.277h-0.635
				c-0.158,0-0.286-0.129-0.288-0.287c0-0.158,0.132-0.289,0.291-0.29l6.024,0.002c0.157,0,0.284,0.128,0.284,0.287
				C18.8,6.148,18.67,6.276,18.512,6.276H17.88l0.005,4.354l0.017,0.063l0.034,0.068c3.519,5.776,5.931,10.146,6.593,11.362
				c0.006,0.011,0.012,0.02,0.017,0.028C24.865,23.117,24.807,24.007,24.386,24.592z"/>
			<path fill="#434C6D" d="M17.032,17.995c-0.434-1.01-1.13-1.871-1.211-1.97l-0.256-0.309l-0.256,0.31
				c-0.08,0.098-0.774,0.955-1.206,1.958c-1.091-0.509-2.381-0.644-2.531-0.657l-0.396-0.037l0.037,0.396
				c0.008,0.1,0.233,2.438,1.323,3.527c0.837,0.837,1.936,1.291,2.719,1.113c0.209,0.056,0.424,0.056,0.633-0.003
				c0.124,0.029,0.254,0.045,0.387,0.045c0.735,0,1.634-0.442,2.347-1.156c1.089-1.088,1.315-3.429,1.324-3.527l0.037-0.396
				l-0.397,0.037C19.525,17.333,18.151,17.468,17.032,17.995z M13.004,20.746c-0.671-0.67-0.97-2.074-1.074-2.702
				c0.504,0.08,1.286,0.249,1.95,0.569c-0.085,0.301-0.127,0.585-0.127,0.841c0,0.839,0.214,1.613,0.586,2.157
				C13.894,21.465,13.415,21.158,13.004,20.746z M14.936,21.324c-0.317-0.414-0.521-1.112-0.521-1.868
				c0-0.146,0.02-0.307,0.058-0.482c0.06,0.049,0.112,0.096,0.161,0.145c0.225,0.223,0.416,0.465,0.57,0.717
				C14.94,20.377,14.851,20.895,14.936,21.324z M15.579,19.21c-0.143-0.195-0.302-0.383-0.479-0.561
				c-0.119-0.119-0.258-0.231-0.412-0.337c0.254-0.61,0.622-1.175,0.877-1.529c0.234,0.329,0.625,0.921,0.884,1.543
				c-0.147,0.103-0.28,0.212-0.392,0.323C15.883,18.825,15.722,19.014,15.579,19.21z M16.23,21.272
				c0.065-0.421-0.027-0.922-0.275-1.438c0.154-0.252,0.347-0.494,0.569-0.717c0.042-0.043,0.089-0.086,0.139-0.125
				c0.036,0.167,0.055,0.322,0.055,0.463C16.718,20.175,16.527,20.852,16.23,21.272z M18.154,20.746
				c-0.424,0.425-0.916,0.735-1.371,0.877c0.374-0.546,0.596-1.337,0.596-2.167c0-0.257-0.041-0.537-0.123-0.833
				c0.668-0.326,1.462-0.497,1.973-0.579C19.123,18.672,18.824,20.076,18.154,20.746z"/>
		</g>
	</g>
</g>
</svg>
