<?xml version="1.0" encoding="utf-8"?>
<!-- Generator: Adobe Illustrator 13.0.0, SVG Export Plug-In . SVG Version: 6.00 Build 14948)  -->
<!DOCTYPE svg PUBLIC "-//W3C//DTD SVG 1.1//EN" "http://www.w3.org/Graphics/SVG/1.1/DTD/svg11.dtd">
<svg version="1.1" id="Layer_1" xmlns="http://www.w3.org/2000/svg" xmlns:xlink="http://www.w3.org/1999/xlink" x="0px" y="0px"
	 width="32px" height="32px" viewBox="0 0 32 32" enable-background="new 0 0 32 32" xml:space="preserve">
<g>
	<g>
		<circle fill="#FFD05B" cx="15.5" cy="15.5" r="15.498"/>
	</g>
</g>
<g>
	<path fill="#434C6D" d="M20.246,16.953h-0.924c-0.174-0.918-0.547-1.789-1.09-2.549l0.641-0.643
		c0.063-0.063,0.098-0.146,0.098-0.234s-0.035-0.174-0.098-0.236l-1.119-1.119c-0.131-0.129-0.342-0.129-0.471,0l-0.66,0.66
		c-0.753-0.514-1.608-0.863-2.501-1.021v-0.939c0-0.184-0.149-0.332-0.333-0.332h-1.583c-0.184,0-0.333,0.148-0.333,0.332v0.939
		c-0.9,0.158-1.761,0.512-2.518,1.033l-0.643-0.643c-0.13-0.129-0.341-0.129-0.471,0L7.121,13.32
		c-0.063,0.063-0.098,0.148-0.098,0.236s0.035,0.174,0.098,0.236l0.629,0.629c-0.537,0.756-0.905,1.621-1.077,2.531h-0.84
		c-0.184,0-0.333,0.148-0.333,0.334v1.582c0,0.184,0.149,0.334,0.333,0.334h0.812c0.153,0.918,0.507,1.797,1.037,2.57l-0.59,0.59
		c-0.13,0.131-0.13,0.342,0,0.471l1.119,1.119c0.062,0.063,0.147,0.098,0.236,0.098c0.088,0,0.173-0.035,0.235-0.098l0.572-0.57
		c0.78,0.559,1.675,0.936,2.619,1.104v0.797c0,0.186,0.149,0.334,0.333,0.334h1.583c0.184,0,0.333-0.148,0.333-0.334v-0.797
		c0.936-0.166,1.825-0.539,2.601-1.092l0.59,0.59c0.125,0.123,0.346,0.123,0.471,0l1.119-1.121c0.131-0.129,0.131-0.34,0-0.471
		l-0.602-0.602c0.537-0.779,0.895-1.664,1.049-2.588h0.896c0.184,0,0.332-0.15,0.332-0.334v-1.582
		C20.578,17.102,20.43,16.953,20.246,16.953z M13.04,21.592c-1.94,0-3.513-1.574-3.513-3.514s1.573-3.514,3.513-3.514
		c1.94,0,3.513,1.574,3.513,3.514S14.979,21.592,13.04,21.592z M14.373,18.078c0,0.736-0.597,1.334-1.333,1.334
		c-0.736,0-1.333-0.598-1.333-1.334s0.597-1.334,1.333-1.334C13.775,16.744,14.373,17.342,14.373,18.078z M25.34,10.609
		l-0.447-0.191c0.121-0.527,0.125-1.072,0.012-1.598l0.475-0.188c0.098-0.039,0.146-0.15,0.107-0.248l-0.334-0.84
		c-0.039-0.098-0.15-0.146-0.248-0.107l-0.49,0.195c-0.287-0.451-0.668-0.836-1.117-1.123l0.205-0.477
		c0.02-0.047,0.021-0.098,0.002-0.146c-0.02-0.047-0.055-0.084-0.102-0.104L22.57,5.426c-0.096-0.043-0.207,0.002-0.25,0.1
		l-0.211,0.49C21.602,5.9,21.074,5.896,20.566,6l-0.197-0.498c-0.039-0.098-0.15-0.145-0.248-0.107l-0.84,0.336
		c-0.098,0.039-0.146,0.148-0.107,0.246l0.197,0.498c-0.443,0.275-0.826,0.645-1.117,1.082l-0.479-0.205
		c-0.096-0.043-0.207,0.002-0.25,0.1l-0.357,0.83c-0.02,0.047-0.021,0.098-0.002,0.146c0.02,0.047,0.055,0.084,0.102,0.104
		l0.467,0.201c-0.125,0.516-0.139,1.053-0.037,1.572l-0.445,0.178c-0.098,0.039-0.146,0.148-0.107,0.246l0.334,0.842
		c0.039,0.098,0.15,0.145,0.248,0.105l0.432-0.172c0.275,0.457,0.648,0.848,1.094,1.146l-0.189,0.438
		c-0.041,0.098,0.004,0.209,0.1,0.252l0.832,0.357c0.045,0.02,0.098,0.021,0.145,0.002s0.084-0.055,0.104-0.102l0.184-0.424
		c0.531,0.131,1.088,0.143,1.623,0.033l0.17,0.424c0.037,0.098,0.148,0.145,0.246,0.105l0.842-0.334
		c0.098-0.039,0.145-0.15,0.105-0.248l-0.168-0.424c0.461-0.285,0.855-0.672,1.15-1.129l0.438,0.189
		c0.092,0.039,0.211-0.008,0.25-0.1l0.357-0.832C25.482,10.764,25.438,10.65,25.34,10.609z M22.057,11.422
		c-1.029,0.41-2.197-0.092-2.605-1.123c-0.41-1.029,0.092-2.197,1.123-2.607c1.029-0.408,2.197,0.094,2.607,1.123
		C23.59,9.846,23.088,11.012,22.057,11.422z M22.023,9.275c0.156,0.391-0.035,0.834-0.426,0.99c-0.391,0.154-0.834-0.037-0.99-0.428
		c-0.154-0.391,0.035-0.834,0.426-0.988C21.426,8.693,21.867,8.885,22.023,9.275z"/>
</g>
</svg>
