<?xml version="1.0" encoding="utf-8"?>
<!-- Generator: Adobe Illustrator 13.0.0, SVG Export Plug-In . SVG Version: 6.00 Build 14948)  -->
<!DOCTYPE svg PUBLIC "-//W3C//DTD SVG 1.1//EN" "http://www.w3.org/Graphics/SVG/1.1/DTD/svg11.dtd">
<svg version="1.1" id="Layer_1" xmlns="http://www.w3.org/2000/svg" xmlns:xlink="http://www.w3.org/1999/xlink" x="0px" y="0px"
	 width="32px" height="32px" viewBox="0 0 32 32" enable-background="new 0 0 32 32" xml:space="preserve">
<g>
	<g>
		<g>
			<g>
				<circle fill="#FF7058" cx="15.572" cy="15.601" r="15.499"/>
			</g>
		</g>
	</g>
	<g>
		<g>
			<g>
				<path fill="#434C6D" d="M5.964,14.145H3.692c-0.344,0-0.62,0.277-0.62,0.619c0,0.343,0.276,0.619,0.62,0.619h2.271
					c0.343,0,0.62-0.276,0.62-0.619C6.584,14.422,6.307,14.145,5.964,14.145z"/>
			</g>
		</g>
		<g>
			<g>
				<g>
					<path fill="#434C6D" d="M24.494,8.038c-1.11-1.111-2.588-1.725-4.16-1.725c-1.571,0-3.048,0.613-4.16,1.725l-0.467,0.467
						L15.24,8.038c-1.112-1.111-2.59-1.725-4.161-1.725S8.03,6.926,6.918,8.038c-2.293,2.293-2.293,6.025,0,8.32l8.35,8.35
						c0.122,0.12,0.281,0.181,0.439,0.181c0.159,0,0.316-0.061,0.438-0.181l8.35-8.35c1.112-1.111,1.724-2.589,1.724-4.161
						C26.218,10.625,25.606,9.149,24.494,8.038z M23.618,15.481l-7.911,7.911l-7.912-7.911c-1.811-1.811-1.811-4.757,0-6.568
						c0.878-0.876,2.044-1.359,3.284-1.359c1.241,0,2.406,0.483,3.283,1.359l0.905,0.906c0.242,0.242,0.635,0.242,0.877,0
						l0.906-0.906c0.876-0.876,2.044-1.359,3.283-1.359c1.241,0,2.407,0.483,3.284,1.359C25.429,10.724,25.429,13.67,23.618,15.481z
						"/>
				</g>
			</g>
			<g>
				<g>
					<path fill="#434C6D" d="M25.386,14.165h-5.932l-0.923-2.03c-0.07-0.153-0.222-0.247-0.395-0.241
						c-0.169,0.007-0.315,0.115-0.372,0.273l-1.887,5.317l-2.293-6.351c-0.057-0.157-0.203-0.265-0.37-0.272
						c-0.178-0.008-0.321,0.086-0.394,0.236l-1.541,3.275H6.172c-0.229,0-0.413,0.186-0.413,0.414s0.271,0.392,0.499,0.392h5.372
						c0.16,0,0.218-0.071,0.287-0.217l1.229-2.61l2.349,6.5c0.059,0.164,0.213,0.273,0.388,0.273l0,0
						c0.175-0.002,0.331-0.112,0.39-0.275l1.93-5.441l0.61,1.341c0.067,0.146,0.301,0.224,0.463,0.224h6.199
						c0.228,0,0.325-0.167,0.325-0.394C25.799,14.35,25.614,14.165,25.386,14.165z"/>
				</g>
			</g>
		</g>
		<g>
			<g>
				<path fill="#434C6D" d="M27.453,13.938h-1.86c-0.342,0-0.62,0.277-0.62,0.62s0.278,0.619,0.62,0.619h1.86
					c0.342,0,0.619-0.276,0.619-0.619S27.795,13.938,27.453,13.938z"/>
			</g>
		</g>
	</g>
</g>
</svg>
