<?xml version="1.0" encoding="utf-8"?>
<!-- Generator: Adobe Illustrator 13.0.0, SVG Export Plug-In . SVG Version: 6.00 Build 14948)  -->
<!DOCTYPE svg PUBLIC "-//W3C//DTD SVG 1.1//EN" "http://www.w3.org/Graphics/SVG/1.1/DTD/svg11.dtd">
<svg version="1.1" id="Layer_1" xmlns="http://www.w3.org/2000/svg" xmlns:xlink="http://www.w3.org/1999/xlink" x="0px" y="0px"
	 width="32px" height="32px" viewBox="0 0 32 32" enable-background="new 0 0 32 32" xml:space="preserve">
<g>
	<g>
		<g>
			<circle fill="#556080" cx="15.501" cy="15.5" r="15.498"/>
		</g>
	</g>
	<g>
		<path fill="#FFFFFF" d="M10.737,12.898c-0.047,0-0.094-0.012-0.139-0.035c-1.273-0.682-2.064-2-2.064-3.445
			c0-2.152,1.752-3.904,3.904-3.904c1.019,0,1.982,0.391,2.716,1.1c0.767,0.742,1.188,1.738,1.188,2.805
			c0,1.434-0.781,2.748-2.041,3.434c-0.143,0.078-0.322,0.025-0.4-0.119c-0.078-0.143-0.025-0.322,0.118-0.4
			c1.069-0.582,1.733-1.697,1.733-2.914c0-0.904-0.358-1.75-1.009-2.381c-0.622-0.602-1.44-0.932-2.304-0.932
			c-1.828,0-3.314,1.486-3.314,3.313c0,1.227,0.672,2.346,1.752,2.924c0.145,0.078,0.198,0.258,0.121,0.4
			C10.944,12.841,10.843,12.898,10.737,12.898z"/>
		<g>
			<path fill="#FFFFFF" d="M10.86,19.525c-0.162,0-0.295-0.133-0.295-0.297V9.562c0-1.141,0.875-2.068,1.951-2.068
				c1.077,0,1.952,0.928,1.952,2.068v6.285c0,0.162-0.132,0.295-0.296,0.295c-0.162,0-0.295-0.133-0.295-0.295V9.562
				c0-0.814-0.61-1.477-1.361-1.477c-0.75,0-1.36,0.662-1.36,1.477v9.667C11.156,19.393,11.024,19.525,10.86,19.525z"/>
			<path fill="#FFFFFF" d="M12.14,25.488c-0.075,0-0.15-0.029-0.209-0.088l-4.38-4.379c-0.486-0.486-0.813-1.084-0.919-1.682
				c-0.111-0.637,0.037-1.195,0.419-1.576c0.761-0.762,2.018-0.742,2.804,0.043l1.215,1.215c0.115,0.115,0.115,0.303,0,0.418
				s-0.303,0.115-0.418,0l-1.215-1.215c-0.555-0.555-1.438-0.576-1.969-0.045c-0.241,0.242-0.332,0.617-0.254,1.059
				c0.085,0.479,0.353,0.965,0.755,1.367l4.38,4.379c0.115,0.115,0.115,0.303,0,0.418C12.292,25.459,12.216,25.488,12.14,25.488z"/>
			<path fill="#FFFFFF" d="M17.485,16.48c-0.163,0-0.295-0.133-0.295-0.295v-1.799c0-0.814-0.611-1.477-1.361-1.477
				s-1.36,0.662-1.36,1.477v1.799c0,0.162-0.132,0.295-0.296,0.295c-0.162,0-0.295-0.133-0.295-0.295v-1.799
				c0-1.141,0.875-2.068,1.951-2.068s1.953,0.928,1.953,2.068v1.799C17.782,16.347,17.649,16.48,17.485,16.48z"/>
			<path fill="#FFFFFF" d="M20.798,16.48c-0.164,0-0.297-0.133-0.297-0.295v-1.539c0-0.686-0.609-1.242-1.359-1.242
				s-1.359,0.557-1.359,1.242v1.539c0,0.162-0.133,0.295-0.297,0.295c-0.163,0-0.295-0.133-0.295-0.295v-1.539
				c0-1.012,0.875-1.834,1.951-1.834s1.951,0.822,1.951,1.834v1.539C21.093,16.347,20.96,16.48,20.798,16.48z"/>
			<path fill="#FFFFFF" d="M24.108,20.273c-0.162,0-0.295-0.133-0.295-0.297v-4.655c0-0.813-0.609-1.477-1.359-1.477
				c-0.738,0-1.361,0.469-1.361,1.021v1.318c0,0.162-0.133,0.295-0.295,0.295c-0.164,0-0.297-0.133-0.297-0.295v-1.318
				c0-0.889,0.875-1.611,1.953-1.611c1.076,0,1.951,0.928,1.951,2.066v4.655C24.405,20.141,24.272,20.273,24.108,20.273z"/>
			<path fill="#FFFFFF" d="M21.745,25.484h-9.582c-0.164,0-0.307-0.131-0.307-0.295c0-0.162,0.122-0.295,0.285-0.295h9.604
				c1.141,0,2.068-0.928,2.068-2.068v-3.188c0-0.164,0.133-0.297,0.295-0.297c0.164,0,0.297,0.133,0.297,0.297v3.188
				C24.405,24.293,23.212,25.484,21.745,25.484z"/>
		</g>
	</g>
</g>
</svg>
