<?xml version="1.0" encoding="utf-8"?>
<!-- Generator: Adobe Illustrator 13.0.0, SVG Export Plug-In . SVG Version: 6.00 Build 14948)  -->
<!DOCTYPE svg PUBLIC "-//W3C//DTD SVG 1.1//EN" "http://www.w3.org/Graphics/SVG/1.1/DTD/svg11.dtd">
<svg version="1.1" id="Layer_1" xmlns="http://www.w3.org/2000/svg" xmlns:xlink="http://www.w3.org/1999/xlink" x="0px" y="0px"
	 width="32px" height="32px" viewBox="0 0 32 32" enable-background="new 0 0 32 32" xml:space="preserve">
<g>
	<g>
		<circle fill="#212121" cx="15.5" cy="15.5" r="15.499"/>
	</g>
	<g>
		<g>
			<defs>
				<rect id="SVGID_1_" x="7" y="6.532" width="17" height="17.935"/>
			</defs>
			<clipPath id="SVGID_2_">
				<use xlink:href="#SVGID_1_"  overflow="visible"/>
			</clipPath>
			<path clip-path="url(#SVGID_2_)" fill="#4688CF" d="M7,14.656c1.048-2.475,1.625-5.201,1.625-8.058h9.827
				c0,4.609-1.023,8.981-2.856,12.898h-3.748L7,14.656z M11.848,18.426H15c1.453-3.315,2.313-6.926,2.449-10.745H9.676
				c-0.117,2.464-0.646,4.791-1.52,6.975L11.848,18.426"/>
			<path clip-path="url(#SVGID_2_)" fill="#EF3033" d="M18.363,8.946c1.769-0.355,3.681,0.171,4.396,1.058
				c1.572,1.947,0.02,6.61-4.128,9.958c-3.824,3.088-8.4,4.277-9.847,2.48c-0.999-1.238-0.265-3.691,1.02-4.984l2.044,2.039v-4.84H7
				l2.034,2.036c-1.718,1.721-2.506,4.57-1.126,6.43c0.424,0.57,1.072,0.91,1.828,1.08c2.27,0.521,5.844-0.76,8.998-3.307
				c4.515-3.645,6.438-8.497,4.516-10.879C22.282,8.817,20.49,8.506,18.363,8.946"/>
		</g>
		<path fill="#EF3033" d="M23.991,7.375c0-0.357-0.289-0.644-0.645-0.644c-0.356,0-0.643,0.286-0.643,0.644s0.286,0.645,0.643,0.645
			C23.702,8.019,23.991,7.732,23.991,7.375 M23.885,7.375c0,0.297-0.241,0.539-0.538,0.539c-0.299,0-0.536-0.242-0.536-0.539
			c0-0.298,0.237-0.537,0.536-0.537C23.644,6.837,23.885,7.077,23.885,7.375 M23.177,7.341V7.132h0.18
			c0.073,0,0.125,0.041,0.125,0.104c0,0.072-0.059,0.105-0.145,0.105H23.177z M23.064,7.732h0.112V7.437h0.066
			c0.085,0,0.119,0.029,0.206,0.185l0.062,0.11h0.137l-0.085-0.135c-0.057-0.095-0.102-0.152-0.16-0.174V7.419
			c0.117-0.007,0.196-0.086,0.196-0.199c0-0.075-0.057-0.18-0.227-0.18h-0.308V7.732"/>
	</g>
</g>
</svg>
