<?xml version="1.0" encoding="utf-8"?>
<!-- Generator: Adobe Illustrator 13.0.0, SVG Export Plug-In . SVG Version: 6.00 Build 14948)  -->
<!DOCTYPE svg PUBLIC "-//W3C//DTD SVG 1.1//EN" "http://www.w3.org/Graphics/SVG/1.1/DTD/svg11.dtd">
<svg version="1.1" id="Layer_1" xmlns="http://www.w3.org/2000/svg" xmlns:xlink="http://www.w3.org/1999/xlink" x="0px" y="0px"
	 width="32px" height="32px" viewBox="0 0 32 32" enable-background="new 0 0 32 32" xml:space="preserve">
<g>
	<g>
		<circle fill="#84DBFF" cx="15.5" cy="15.475" r="15.5"/>
	</g>
	<g>
		<g>
			<g>
				<path fill="#434C6D" d="M9.551,14.073c-0.193,0-0.351,0.156-0.351,0.35v2.099c0,0.193,0.157,0.351,0.351,0.351
					c0.192,0,0.35-0.157,0.35-0.351v-2.099C9.901,14.229,9.744,14.073,9.551,14.073z"/>
				<path fill="#434C6D" d="M9.588,5.069L6.28,6.396C5.348,6.739,5,7.208,5,8.122v14.702c0,0.915,0.348,1.384,1.271,1.726
					l3.324,1.33c0.165,0.063,0.33,0.094,0.491,0.094c0.704,0,1.215-0.588,1.215-1.397V6.372C11.301,5.378,10.507,4.724,9.588,5.069z
					 M10.601,24.576c0,0.417-0.207,0.698-0.515,0.698c-0.076,0-0.159-0.017-0.237-0.046l-3.326-1.332
					c-0.661-0.244-0.822-0.455-0.822-1.072V8.122c0-0.617,0.161-0.826,0.831-1.074l3.311-1.324c0.085-0.033,0.167-0.049,0.244-0.049
					c0.308,0,0.515,0.279,0.515,0.697V24.576z"/>
				<path fill="#434C6D" d="M12.307,7.071h4.945c0.578,0,1.049,0.473,1.049,1.051v5.25c0,0.193,0.156,0.35,0.35,0.35
					S19,13.565,19,13.372v-5.25c0-0.965-0.785-1.75-1.748-1.75h-4.945c-0.193,0-0.35,0.156-0.35,0.35S12.114,7.071,12.307,7.071z"/>
				<path fill="#434C6D" d="M18.65,17.222c-0.193,0-0.35,0.157-0.35,0.35v5.25c0,0.579-0.471,1.051-1.049,1.051h-4.901
					c-0.193,0-0.35,0.156-0.35,0.35s0.156,0.351,0.35,0.351h4.901c0.963,0,1.748-0.785,1.748-1.751v-5.25
					C19,17.379,18.844,17.222,18.65,17.222z"/>
				<path fill="#434C6D" d="M25.975,15.339c-0.018-0.043-0.043-0.082-0.076-0.115l-3.5-3.5c-0.137-0.135-0.359-0.135-0.494,0
					c-0.137,0.137-0.137,0.359,0,0.496l2.902,2.902H13.051c-0.193,0-0.351,0.158-0.351,0.35c0,0.193,0.157,0.35,0.351,0.35h11.755
					l-2.902,2.902c-0.137,0.138-0.137,0.358,0,0.496c0.068,0.067,0.156,0.103,0.246,0.103s0.18-0.035,0.248-0.103l3.5-3.5
					c0.033-0.031,0.059-0.07,0.076-0.113C26.01,15.521,26.01,15.423,25.975,15.339z"/>
			</g>
		</g>
	</g>
</g>
</svg>
