<?xml version="1.0" encoding="utf-8"?>
<!-- Generator: Adobe Illustrator 13.0.0, SVG Export Plug-In . SVG Version: 6.00 Build 14948)  -->
<!DOCTYPE svg PUBLIC "-//W3C//DTD SVG 1.1//EN" "http://www.w3.org/Graphics/SVG/1.1/DTD/svg11.dtd">
<svg version="1.1" id="Layer_1" xmlns="http://www.w3.org/2000/svg" xmlns:xlink="http://www.w3.org/1999/xlink" x="0px" y="0px"
	 width="32px" height="32px" viewBox="0 0 32 32" enable-background="new 0 0 32 32" xml:space="preserve">
<g>
	<g>
		<circle fill="#005E83" cx="15.748" cy="15.556" r="15.5"/>
	</g>
</g>
<g>
	<g>
		<path fill="#F58A1F" d="M4.411,17.535L5.194,14c0.1-0.321,0.563-1.787,0.783-2.731l0.321-1.245c0-0.04,0.763-1.185,1.246-1.185
			c0.703,0.563,0.844,1.024,0.844,1.466l-0.262,2.128L7.021,16.37L6.479,18.98l-0.663,2.63v0.383l-0.081,0.14
			c-0.281-0.059-0.321-0.079-0.622-0.28c-0.021,0-0.382-0.242-0.462-0.242l-0.461,0.043c-0.301,0-0.422-0.142-0.442-0.524
			L4.411,17.535z"/>
		<path fill="#F58A1F" d="M16.782,11.148c-0.663,0-1.386,0-3.153,2.229c-1.586,1.988-2.592,4.739-2.592,5.341
			c0,0.703,0.482,1.086,1.346,1.086c0.864,0,2.109-0.764,3.094-1.447c0.582-0.381,1.125-0.762,1.325-0.762
			c0.101,0.019,0.161,0.019,0.302,0.1c0,0.763,0,0.844-0.121,1.065c-1.185,2.126-2.812,3.533-3.775,3.533
			c-1.104,0-4.84-0.603-4.84-3.072c0-1.063,0.542-3.033,1.085-3.957l1.546-2.611c0.844-1.406,4.357-3.956,5.604-3.956
			c0.241,0,0.481,0.14,0.903,0.522l0.282,0.241c0.461,0.342,0.542,0.462,0.542,0.683c0,0.502-0.061,1.286-0.441,1.286l-0.322-0.141
			l-0.301,0.08l-0.262-0.161L16.782,11.148z"/>
		<path fill="#F58A1F" d="M18.992,17.795l0.26-1.445c0.041-0.241,0.263-0.884,0.402-1.325l0.201-0.924
			c0.101-0.462,0.742-2.732,0.742-3.254c0-0.16-0.08-0.261-0.26-0.321c-0.101-0.02-0.142-0.04-0.142-0.081l0.142-0.261l-0.061-0.201
			c0-0.081,0.602-0.643,1.365-0.884c0.441-0.141,0.864-0.161,1.606-0.201c0.481-0.021,2.872-0.221,3.415-0.221
			c0.4,0,1.084,0.021,1.084,0.683c0,0.141-0.021,0.181-0.261,0.562c-0.281,0.402-0.302,0.462-0.804,0.522
			c-0.201,0.021-0.281,0.021-0.924,0.261l-0.683,0.221h-0.603l-0.844,0.121l-0.924,0.02c-0.06,0.141-0.743,2.209-0.623,3.214
			l4.398-0.462c1.085-0.061,1.085,0.261,1.085,0.462c0,0.381-0.302,0.502-0.703,0.683l-0.281,0.261
			c-0.161,0.602-0.161,0.622-0.603,0.703l-0.361,0.08l-1.045,0.361c-1.124,0.401-1.465,0.522-2.108,0.522
			c-1.063,0-1.084,0.061-1.386,1.085l-0.4,1.586v0.381l4.497-0.502l0.101,0.021c0.442,0.04,0.482,0.04,0.743,0.381l-0.14,0.646
			c-0.182,0.118-0.201,0.139-0.321,0.34c-0.041,0.081-0.402,0.341-0.462,0.441c-0.321,0.482-0.362,0.543-0.824,0.644l-1.043,0.239
			c-0.423,0.121-1.286,0.282-2.23,0.282l-1.506-0.12l-0.542,0.12c-0.081,0-0.142-0.12-0.222-0.4l-0.1-0.303
			c-0.06-0.121-0.463-0.744-0.463-0.903c0-0.201,0.02-0.3,0.201-0.925L18.992,17.795z"/>
	</g>
</g>
</svg>
