<?xml version="1.0" encoding="utf-8"?>
<!-- Generator: Adobe Illustrator 13.0.0, SVG Export Plug-In . SVG Version: 6.00 Build 14948)  -->
<!DOCTYPE svg PUBLIC "-//W3C//DTD SVG 1.1//EN" "http://www.w3.org/Graphics/SVG/1.1/DTD/svg11.dtd">
<svg version="1.1" id="Layer_1" xmlns="http://www.w3.org/2000/svg" xmlns:xlink="http://www.w3.org/1999/xlink" x="0px" y="0px"
	 width="32px" height="32px" viewBox="0 0 32 32" enable-background="new 0 0 32 32" xml:space="preserve">
<g>
	<circle fill="#F48120" cx="15.5" cy="15.5" r="15.5"/>
	<g>
		<path fill="#FFFFFF" d="M24.088,7.957c0.279,0.269,0.466-0.155,0.637-0.218c0.084-0.031,0.18,0.003,0.269-0.017
			c0.162-0.039,0.232-0.224,0.369-0.319c0.075-0.052,0.185-0.078,0.269-0.134c0.187-0.127,0.428-0.311,0.703-0.368
			c0.11,0.064,0.191,0.156,0.269,0.251c0.048,0.443,0.259,0.725,0.771,0.704c0.113,0.088,0.14,0.244,0.185,0.419
			c0.06,0.225,0.183,0.403,0.084,0.586C27.59,8.96,27.282,9.21,27.173,9.283c-0.08,0.05-0.194,0.062-0.286,0.116
			c-0.123,0.072-0.267,0.218-0.401,0.319c-0.158,0.119-0.352,0.211-0.436,0.284c-0.086,0.076-0.128,0.227-0.202,0.286
			c-0.087,0.069-0.268,0.078-0.268,0.185c0.162,0.237,0.279-0.115,0.421-0.169c0.131-0.049,0.311-0.024,0.436-0.083
			c0.104-0.05,0.166-0.175,0.284-0.235c0.101-0.052,0.287-0.049,0.42-0.1c0.115-0.046,0.221-0.169,0.352-0.236
			c0.111-0.058,0.28-0.088,0.419-0.15c0.174-0.08,0.271-0.185,0.386-0.185c0.135,0,0.361,0.146,0.452,0.22
			c0.254,0.205,0.444,0.65,0.202,1.005c-0.068,0.099-0.189,0.198-0.286,0.318c-0.098,0.125-0.261,0.217-0.285,0.319
			c-0.028,0.123-0.002,0.333,0.018,0.401c0.052,0.185,0.286,0.251,0.302,0.454c-0.061,0.123-0.194,0.146-0.302,0.218
			c-0.204,0.137-0.389,0.333-0.619,0.469c-0.208,0.121-0.426,0.199-0.621,0.335c-0.359,0.25-0.719,0.542-1.107,0.788
			c-0.197,0.125-0.421,0.196-0.62,0.318c-0.125,0.075-0.183,0.238-0.304,0.317c-0.058,0.039-0.139,0.047-0.2,0.085
			c-0.107,0.067-0.183,0.184-0.285,0.251c-0.099,0.061-0.257,0.065-0.303,0.202c0.183,0.215,0.409-0.074,0.554-0.151
			c0.072-0.038,0.194-0.043,0.302-0.083c0.132-0.049,0.253-0.206,0.385-0.268c0.136-0.063,0.308-0.059,0.453-0.117
			c0.18-0.071,0.345-0.229,0.538-0.317c0.092-0.044,0.198-0.056,0.284-0.101c0.105-0.058,0.188-0.166,0.302-0.22
			c0.112-0.053,0.418-0.139,0.553-0.167c0.412-0.089,0.649,0.138,0.654,0.468c0.107,0.156,0.27,0.256,0.234,0.553
			c-0.024,0.063-0.102,0.077-0.118,0.151c-0.432,0.124-0.661,0.457-0.988,0.688c-0.2,0.063-0.34,0.143-0.486,0.251
			c-0.113,0.084-0.287,0.204-0.336,0.302c-0.161,0.325,0.179,0.929-0.15,1.208c-0.206,0.174-0.503,0.311-0.771,0.503
			c-0.244,0.173-0.468,0.4-0.704,0.57c-0.087,0.062-0.196,0.083-0.285,0.136c-0.148,0.083-0.275,0.219-0.419,0.315
			c-0.146,0.101-0.305,0.208-0.454,0.285c-0.066,0.036-0.155,0.031-0.218,0.068c-0.061,0.032-0.11,0.104-0.168,0.15
			c-0.153,0.119-0.349,0.305-0.521,0.4c-0.059,0.034-0.147,0.042-0.199,0.068c-0.148,0.075-0.465,0.348-0.47,0.469
			c-0.009,0.183,0.346,0.328,0.168,0.538c0.07,0.131,0.231,0.198,0.234,0.351c0.002,0.179-0.168,0.221-0.303,0.32
			c-0.113,0.082-0.223,0.262-0.369,0.385c-0.193,0.165-0.349,0.316-0.604,0.385c-0.089,0.1-0.2,0.179-0.335,0.234
			c-0.882,0.967-2.059,1.64-2.9,2.648c-0.244,0.083-0.399,0.291-0.587,0.47c-0.127,0.121-0.28,0.221-0.401,0.335
			c-0.308,0.289-0.588,0.671-0.838,1.039c-0.086,0.126-0.209,0.202-0.303,0.318c-0.078,0.097-0.13,0.218-0.219,0.318
			c-0.137,0.157-0.319,0.285-0.368,0.536c-0.153,0.121-0.253,0.37-0.402,0.505c-0.227,0.2-0.508,0.071-0.689-0.169
			c-0.049-0.067-0.088-0.183-0.15-0.269c-0.103-0.142-0.257-0.236-0.217-0.452c0.022-0.129,0.265-0.337,0.335-0.435
			c0.117-0.167,0.202-0.318,0.183-0.553c-0.384-0.088-0.791,0.157-1.14-0.052c-0.094-0.057-0.125-0.188-0.202-0.303
			c-0.118-0.175-0.384-0.357-0.351-0.653c0.01-0.098,0.215-0.349,0.334-0.452c0.05-0.043,0.129-0.056,0.185-0.102
			c0.304-0.242,0.567-0.646,0.821-0.838c0.059-0.044,0.161-0.068,0.201-0.101c0.218-0.167,0.35-0.426,0.538-0.604
			c0.079-0.074,0.174-0.098,0.268-0.167c0.125-0.093,0.246-0.25,0.352-0.369c0.115-0.129,0.2-0.295,0.319-0.386
			c0.085-0.066,0.206-0.087,0.285-0.134c0.138-0.079,0.278-0.187,0.384-0.317c0.045-0.056,0.063-0.125,0.117-0.185
			c0.106-0.119,0.271-0.223,0.403-0.336c0.134-0.114,0.287-0.205,0.42-0.301c0.13-0.096,0.262-0.234,0.4-0.338
			c0.248-0.18,0.465-0.311,0.572-0.604c0.636-0.202,1.086-0.588,1.559-0.955c-0.218-0.362-0.415,0.087-0.588,0.168
			c-0.074,0.034-0.177,0.026-0.234,0.051c-0.104,0.042-0.177,0.154-0.284,0.22c-0.084,0.048-0.191,0.053-0.285,0.1
			c-0.113,0.056-0.194,0.165-0.302,0.234c-0.254,0.164-0.549,0.252-0.788,0.436c-0.076,0.06-0.118,0.155-0.201,0.219
			c-0.089,0.066-0.233,0.098-0.353,0.167c-0.109,0.066-0.208,0.175-0.303,0.219c-0.079,0.039-0.166,0.033-0.251,0.065
			c-0.24,0.097-0.578,0.331-0.771,0.505c-0.116,0.104-0.218,0.212-0.336,0.304c-0.119,0.091-0.265,0.147-0.384,0.231
			c-0.238,0.171-0.43,0.401-0.654,0.556c-0.064,0.042-0.14,0.061-0.202,0.1c-0.107,0.07-0.174,0.198-0.284,0.268
			c-0.201,0.125-0.401,0.163-0.571,0.284c-0.097,0.069-0.159,0.196-0.268,0.287c-0.079,0.064-0.188,0.104-0.286,0.184
			c-0.175,0.144-0.631,0.556-0.887,0.536c-0.222-0.017-0.312-0.259-0.52-0.318c-0.047-0.133-0.063-0.224-0.135-0.318
			c-0.144-0.189-0.518-0.263-0.504-0.521c0.007-0.119,0.292-0.313,0.402-0.401c0.253-0.202,0.436-0.342,0.67-0.52
			c0.127-0.099,0.232-0.258,0.37-0.385c0.135-0.128,0.301-0.221,0.419-0.337c0.271-0.264,0.537-0.506,0.755-0.738
			c0.368-0.166,0.589-0.505,0.888-0.752c0.088-0.075,0.199-0.111,0.286-0.186c0.169-0.145,0.245-0.387,0.503-0.453
			c0.042-0.055,0.072-0.116,0.117-0.168c0.071,0.005,0.119-0.016,0.168-0.033c0.165-0.188,0.331-0.373,0.519-0.536
			c-0.022-0.07,0.049-0.131,0-0.17c0.258,0.015,0.385-0.342,0.033-0.318c-0.068,0.004-0.018,0.129-0.083,0.136
			c-0.052,0.021-0.119,0.025-0.184,0.033c-0.126,0.192-0.346,0.291-0.47,0.485c-0.146,0.04-0.284,0.106-0.401,0.186
			c-0.09,0.061-0.201,0.127-0.286,0.2c-0.084,0.072-0.129,0.185-0.218,0.252c-0.251,0.19-0.573,0.302-0.838,0.504
			c-0.197,0.151-0.428,0.282-0.655,0.42c-0.27,0.165-0.565,0.275-0.738,0.554c-0.179,0.139-0.39,0.183-0.586,0.284
			c-0.236,0.123-0.385,0.379-0.603,0.538c-0.049,0.035-0.117,0.033-0.168,0.064c-0.144,0.094-0.259,0.225-0.402,0.32
			c-0.143,0.093-0.284,0.179-0.419,0.284c-0.154,0.023-0.197,0.007-0.302,0.033c-0.504-0.361-0.957-0.78-1.452-1.155
			c-0.028-0.095-0.088-0.159-0.118-0.252c-0.112-0.111-0.299-0.146-0.318-0.318c-0.036-0.308,0.545-0.612,0.753-0.788
			c0.175-0.148,0.268-0.306,0.504-0.352c0.376-0.389,0.906-0.626,1.224-1.073c0.34-0.034,0.371-0.378,0.687-0.435
			c0.15-0.348,0.446-0.548,0.688-0.805c0.144-0.058,0.353-0.117,0.318-0.302c-0.113-0.002-0.21,0.105-0.301,0.185
			c-0.151,0.126-0.314,0.189-0.42,0.351c-0.227-0.091-0.308,0.162-0.469,0.202c-0.121,0.027-0.243-0.034-0.386,0
			c-0.115,0.027-0.204,0.178-0.301,0.232C9.62,18.361,9.462,18.332,9.217,18.4c-0.226,0.063-0.392,0.195-0.585,0.285
			c-0.109,0.05-0.212,0.076-0.303,0.134c-0.082,0.055-0.141,0.138-0.234,0.184c-0.137,0.071-0.313,0.077-0.452,0.15
			c-0.101,0.056-0.177,0.157-0.286,0.22c-0.088,0.048-0.196,0.066-0.286,0.117c-0.203,0.114-0.384,0.383-0.771,0.267
			c-0.174-0.099-0.154-0.317-0.286-0.45c-0.119-0.127-0.344-0.206-0.484-0.354c-0.079-0.081-0.119-0.187-0.185-0.252
			c-0.062-0.06-0.155-0.073-0.168-0.149c-0.027-0.153,0.274-0.387,0.402-0.486c0.338-0.263,0.649-0.525,0.972-0.804
			s0.646-0.598,0.974-0.855h0.151c0.269-0.213,0.465-0.495,0.788-0.654c0.02-0.063,0.021-0.145,0.05-0.202
			c0.323,0.085,0.411-0.141,0.537-0.301c-0.321-0.016-0.523-0.012-0.621,0.201c-0.412-0.007-0.62,0.104-0.856,0.302
			c-0.104,0.088-0.246,0.234-0.335,0.251c-0.107,0.02-0.242-0.058-0.352-0.05c-0.19,0.014-0.315,0.171-0.486,0.269
			c-0.089,0.051-0.197,0.075-0.285,0.134c-0.084,0.057-0.154,0.146-0.236,0.185c-0.125,0.061-0.38,0.074-0.504,0.134
			c-0.126,0.062-0.227,0.204-0.383,0.268c-0.169,0.068-0.329,0.097-0.538,0.066c-0.147-0.175-0.25-0.397-0.284-0.687
			c-0.06-0.129-0.191-0.167-0.203-0.302c-0.016-0.194,0.178-0.23,0.269-0.371c0.399-0.17,0.713-0.516,1.057-0.788
			c0.101-0.08,0.187-0.183,0.285-0.251c0.061-0.04,0.141-0.059,0.201-0.101c0.106-0.072,0.171-0.188,0.269-0.267
			c0.187-0.147,0.409-0.272,0.604-0.434c0.189-0.154,0.38-0.342,0.57-0.468c0.079-0.054,0.176-0.068,0.251-0.118
			c0.084-0.055,0.157-0.183,0.252-0.251c0.134-0.098,0.381-0.147,0.301-0.32c-0.019-0.042-0.127-0.129-0.301-0.066
			c-0.114,0.04-0.204,0.208-0.285,0.252c-0.118,0.062-0.249,0.072-0.37,0.117c-0.107,0.042-0.195,0.112-0.302,0.184
			c-0.203,0.138-0.428,0.212-0.637,0.336c-0.114,0.065-0.216,0.149-0.334,0.217c-0.119,0.069-0.207,0.172-0.32,0.235
			c-0.07,0.04-0.162,0.046-0.252,0.083c-0.44,0.182-0.688,0.455-1.089,0.688c-0.19,0.112-0.49,0.372-0.704,0.335
			c-0.1-0.018-0.206-0.159-0.302-0.269c-0.157-0.183-0.341-0.34-0.252-0.687c0.117-0.115,0.212-0.245,0.319-0.371
			c0.099-0.116,0.207-0.262,0.318-0.368c0.054-0.052,0.148-0.078,0.202-0.136c0.141-0.148,0.224-0.34,0.352-0.485
			c0.256-0.292,0.608-0.498,0.906-0.771c0.069-0.065,0.127-0.153,0.2-0.219c0.076-0.064,0.169-0.101,0.235-0.167
			c0.061-0.061,0.093-0.157,0.15-0.218c0.077-0.083,0.217-0.106,0.235-0.236c-0.184-0.2-0.364,0.093-0.553,0.169
			c-0.129,0.051-0.271,0.074-0.403,0.151c-0.173,0.099-0.334,0.218-0.52,0.318c-0.187,0.101-0.38,0.218-0.536,0.318
			C3.675,12.133,3.6,12.254,3.5,12.313c-0.095,0.057-0.265,0.074-0.385,0.135c-0.207,0.106-0.364,0.302-0.537,0.335
			c-0.581,0.12-0.816-0.729-0.503-1.223c0.157-0.175,0.48-0.342,0.537-0.603c0.073-0.346-0.194-0.442-0.303-0.688
			c0.103-0.561,0.494-0.966,0.856-1.324c0.279-0.274,0.508-0.537,0.856-0.77C4.127,8.104,4.216,8,4.323,7.939
			C4.555,7.812,4.828,7.896,5.06,7.806c0.101-0.039,0.156-0.15,0.269-0.202c0.272-0.123,0.673-0.119,1.04-0.201
			C6.76,7.315,6.906,7.085,7.34,7.035c0.273-0.031,0.67-0.079,0.754,0C8.22,7.153,8.161,7.52,8.246,7.689
			C8.305,7.809,8.45,8.032,8.63,8.024C8.738,8.019,8.863,7.842,9,7.789c0.155-0.061,0.354-0.06,0.467-0.101
			C9.6,7.639,9.741,7.542,9.904,7.486c0.187-0.065,0.412-0.079,0.586-0.152c0.234-0.097,0.38-0.268,0.621-0.301
			c0.105-0.014,0.169,0.012,0.251,0c0.236-0.034,0.545-0.396,0.721-0.133c0.099,0.148,0.137,0.384,0.284,0.503
			c-0.001,0.101-0.043,0.157-0.032,0.268c0.148,0.101,0.301,0.329,0.15,0.537c-0.537,0.225-1.042,0.479-1.459,0.822
			c-0.101,0.025-0.267,0.067-0.384,0.134c-0.063,0.035-0.172,0.146-0.235,0.184c-0.235,0.142-0.578,0.208-0.334,0.504
			c0.17-0.066,0.332-0.049,0.502-0.135c0.099-0.049,0.162-0.17,0.269-0.218c0.176-0.078,0.394-0.059,0.571-0.135
			c0.105-0.045,0.169-0.16,0.267-0.219c0.119-0.071,0.331-0.122,0.521-0.184c0.214-0.07,0.358-0.189,0.552-0.252
			c0.085-0.026,0.187-0.014,0.269-0.05c0.14-0.063,0.208-0.205,0.335-0.268c0.106-0.054,0.244-0.036,0.385-0.083
			c0.19-0.066,0.335-0.259,0.552-0.336c0.266-0.095,0.508-0.179,0.823-0.151c0.143,0.093,0.197,0.284,0.318,0.452
			c0.08,0.109,0.223,0.199,0.301,0.318c0.121,0.185,0.242,0.437,0.152,0.621c-0.166,0.102-0.335,0.05-0.487,0.169
			c-0.068,0.053-0.068,0.159-0.135,0.218c-0.119,0.105-0.406,0.065-0.486,0.251c-0.03,0.068,0.033,0.173-0.033,0.252
			c0.12-0.131,0.321-0.085,0.519-0.168c0.105-0.044,0.188-0.163,0.304-0.218c0.131-0.062,0.297-0.066,0.42-0.134
			c0.143-0.081,0.206-0.223,0.35-0.285c0.105-0.045,0.234-0.047,0.369-0.101c0.129-0.05,0.223-0.167,0.353-0.234
			c0.085-0.043,0.183-0.055,0.269-0.101c0.107-0.059,0.192-0.166,0.303-0.218c0.142-0.069,0.325-0.078,0.468-0.151
			c0.201-0.102,0.423-0.274,0.637-0.402c0.245-0.145,0.519-0.209,0.705-0.319c0.146-0.087,0.266-0.169,0.453-0.268
			c0.133-0.07,0.25-0.182,0.352-0.218c0.121-0.044,0.256-0.036,0.368-0.084c0.217-0.089,0.378-0.266,0.588-0.352
			c0.066-0.027,0.137-0.041,0.2-0.066c0.384-0.16,0.628-0.436,1.091-0.469c0.107-0.008,0.199,0.02,0.301,0.018
			c0.261-0.008,0.535-0.105,0.856-0.119c0.297-0.013,0.546,0.361,0.67,0.603c0.118,0.231,0.166,0.419,0.134,0.788
			C24.39,7.778,24.13,7.757,24.088,7.957"/>
		<path fill="#005E83" d="M17.847,20.808c0.126,0.119,0.188,0.274,0.188,0.464c0,0.102-0.024,0.19-0.075,0.265
			c-0.051,0.075-0.113,0.111-0.191,0.111c-0.051,0-0.097-0.017-0.136-0.052c-0.072-0.062-0.11-0.173-0.11-0.333
			c0-0.017,0-0.043,0.002-0.076s0.002-0.069,0.002-0.107c0-0.104-0.017-0.174-0.049-0.212c-0.034-0.038-0.074-0.058-0.119-0.058
			c-0.127,0-0.217,0.1-0.27,0.299c-0.055,0.2-0.08,0.43-0.08,0.688c0,0.367,0.051,0.675,0.15,0.924
			c0.103,0.249,0.238,0.374,0.412,0.374c0.108,0,0.2-0.035,0.275-0.104c0.047-0.04,0.102-0.112,0.169-0.22l0.076,0.101
			c-0.134,0.265-0.291,0.45-0.469,0.549c-0.094,0.051-0.195,0.075-0.303,0.075c-0.262,0-0.479-0.135-0.646-0.404
			c-0.166-0.27-0.25-0.599-0.25-0.986c0-0.409,0.089-0.758,0.265-1.046c0.178-0.288,0.414-0.433,0.707-0.433
			C17.571,20.626,17.72,20.687,17.847,20.808"/>
		<path fill="#005E83" d="M18.969,22.229c0.178-0.155,0.455-0.312,0.833-0.469v-0.427c0-0.176-0.025-0.303-0.076-0.385
			c-0.052-0.084-0.143-0.126-0.272-0.126c-0.074,0-0.135,0.021-0.182,0.061c-0.048,0.038-0.072,0.087-0.072,0.146
			c0,0.022,0.003,0.043,0.01,0.059c0.003,0.016,0.013,0.03,0.023,0.049l0.023,0.04c0.018,0.032,0.034,0.067,0.044,0.105
			c0.012,0.04,0.019,0.081,0.019,0.127c0,0.11-0.026,0.194-0.077,0.257c-0.052,0.06-0.112,0.091-0.181,0.091
			c-0.078,0-0.146-0.034-0.2-0.1c-0.057-0.066-0.083-0.165-0.083-0.29c0-0.225,0.073-0.404,0.221-0.535
			c0.149-0.133,0.332-0.198,0.547-0.198c0.231,0,0.426,0.063,0.583,0.192c0.155,0.132,0.232,0.37,0.232,0.717v1.424
			c0,0.042,0.007,0.078,0.023,0.107c0.014,0.03,0.032,0.045,0.051,0.045c0.016,0,0.028-0.005,0.042-0.013
			c0.013-0.01,0.032-0.032,0.061-0.072l0.062,0.125c-0.081,0.135-0.17,0.228-0.268,0.282c-0.061,0.034-0.126,0.051-0.191,0.051
			c-0.123,0-0.213-0.051-0.267-0.152c-0.032-0.058-0.057-0.143-0.071-0.256c-0.112,0.163-0.241,0.277-0.383,0.344
			c-0.087,0.042-0.173,0.063-0.258,0.063c-0.111,0-0.217-0.052-0.314-0.154c-0.097-0.102-0.146-0.261-0.146-0.479
			C18.7,22.592,18.789,22.384,18.969,22.229 M19.683,22.985c0.031-0.034,0.07-0.088,0.113-0.161v-0.86
			c-0.109,0.038-0.206,0.098-0.288,0.182c-0.141,0.14-0.21,0.317-0.21,0.535c0,0.128,0.021,0.225,0.061,0.291
			s0.087,0.101,0.138,0.101C19.563,23.07,19.625,23.043,19.683,22.985"/>
		<path fill="#005E83" d="M21.155,23.268c0.08-0.014,0.135-0.042,0.165-0.082c0.03-0.039,0.047-0.117,0.05-0.23l0.004-0.172v-1.599
			c0-0.124-0.016-0.209-0.043-0.252c-0.03-0.044-0.089-0.074-0.176-0.091V20.7h0.778v0.463c0.087-0.163,0.173-0.292,0.259-0.385
			c0.085-0.098,0.185-0.145,0.297-0.145c0.085,0,0.161,0.038,0.228,0.116c0.067,0.077,0.101,0.189,0.101,0.339
			c0,0.116-0.022,0.211-0.07,0.286c-0.048,0.074-0.11,0.111-0.186,0.111c-0.087,0-0.163-0.06-0.225-0.176
			c-0.063-0.117-0.108-0.176-0.135-0.176c-0.056,0-0.109,0.048-0.165,0.146c-0.057,0.097-0.083,0.234-0.083,0.414v1.114
			c0,0.193,0.02,0.313,0.06,0.362c0.039,0.048,0.116,0.081,0.233,0.097v0.141h-1.09v-0.141H21.155z"/>
		<path fill="#005E83" d="M23.607,21.008c0.167-0.251,0.369-0.375,0.605-0.375c0.135,0,0.263,0.05,0.383,0.151
			c0.117,0.101,0.21,0.243,0.272,0.423c0.05,0.134,0.083,0.312,0.101,0.527c0.011,0.103,0.017,0.181,0.017,0.232h-1.05
			c0.011,0.235,0.037,0.439,0.081,0.611c0.079,0.324,0.222,0.484,0.424,0.484c0.097,0,0.188-0.041,0.272-0.128
			c0.052-0.052,0.117-0.141,0.194-0.264l0.094,0.084c-0.126,0.299-0.273,0.506-0.44,0.623c-0.107,0.075-0.232,0.112-0.374,0.112
			c-0.2,0-0.39-0.114-0.567-0.343c-0.174-0.227-0.263-0.589-0.263-1.09C23.355,21.605,23.438,21.256,23.607,21.008 M24.478,21.749
			c-0.002-0.347-0.021-0.588-0.057-0.727c-0.033-0.138-0.103-0.206-0.21-0.206c-0.105,0-0.18,0.08-0.218,0.239
			c-0.04,0.156-0.062,0.388-0.068,0.693H24.478z"/>
		<path fill="#005E83" d="M25.625,22.517h0.112c0.041,0.281,0.115,0.479,0.225,0.596c0.109,0.115,0.222,0.175,0.336,0.175
			c0.106,0,0.184-0.035,0.233-0.104c0.049-0.067,0.073-0.157,0.073-0.267c0-0.104-0.026-0.195-0.081-0.271
			c-0.027-0.04-0.075-0.082-0.141-0.129l-0.304-0.212c-0.161-0.112-0.276-0.235-0.344-0.369c-0.071-0.13-0.104-0.287-0.104-0.465
			c0-0.229,0.054-0.424,0.164-0.589c0.111-0.166,0.266-0.249,0.465-0.249c0.086,0,0.179,0.021,0.276,0.061
			c0.097,0.041,0.157,0.061,0.183,0.061c0.033,0,0.058-0.01,0.07-0.029c0.015-0.021,0.025-0.047,0.035-0.085h0.091v0.85H26.81
			c-0.038-0.198-0.101-0.359-0.188-0.48c-0.088-0.119-0.19-0.18-0.308-0.18c-0.092,0-0.159,0.038-0.204,0.108
			c-0.045,0.073-0.066,0.15-0.066,0.236c0,0.067,0.02,0.137,0.06,0.206c0.04,0.071,0.112,0.144,0.221,0.219l0.224,0.155
			c0.14,0.095,0.241,0.188,0.304,0.278c0.108,0.151,0.161,0.341,0.161,0.565c0,0.218-0.055,0.423-0.165,0.609
			c-0.109,0.188-0.275,0.282-0.495,0.282c-0.056,0-0.11-0.009-0.167-0.024c-0.055-0.016-0.123-0.046-0.204-0.085l-0.072-0.034
			c-0.024-0.014-0.041-0.02-0.047-0.022c-0.007-0.002-0.014-0.002-0.022-0.002c-0.023,0-0.044,0.013-0.06,0.038
			c-0.019,0.026-0.035,0.069-0.058,0.131h-0.099v-0.975H25.625z"/>
		
			<rect x="8.189" y="13.264" transform="matrix(-0.7071 0.7071 -0.7071 -0.7071 30.1179 19.6527)" fill="#7AAEDD" width="5.6" height="5.6"/>
		<path fill="#FFFFFF" d="M10.87,13.267c0.064,0.01,0.126,0.03,0.145,0.034c0.055,0.01,0.123,0,0.123,0s0.009-0.26,0.009-0.297
			c0-0.04,0.015-0.151-0.151-0.151c-0.167,0-0.145,0.145-0.145,0.145L10.87,13.267z M11.667,13.844
			c-0.008-0.189-0.106-0.329-0.213-0.397c-0.165-0.104-0.326-0.088-0.378-0.093c-0.034-0.003-0.096-0.016-0.17-0.034
			c-0.061-0.018-0.134-0.02-0.242-0.015c-0.141,0.005-0.204,0.078-0.253,0.093c-0.05,0.015-0.229,0.033-0.282,0.029
			c-0.064-0.006-0.091,0.016-0.083,0.049c0.01,0.044,0.21,0.112,0.21,0.112s-0.001,0-0.002,0.002
			c-0.043,0.004-0.079,0.018-0.13,0.036l-0.055,0.021c-0.04,0.015-0.128,0.015-0.159,0.014c-0.011-0.001-0.02,0.009-0.02,0.019
			C9.888,13.691,9.897,13.7,9.908,13.7c0.005,0,0.118,0.004,0.174-0.016l0.057-0.021c0.032-0.014,0.059-0.023,0.083-0.029
			c-0.007,0.011-0.014,0.022-0.023,0.038c-0.044,0.068,0.022,0.048,0.022,0.048c0.042-0.04,0.128-0.034,0.21-0.039
			c0.083-0.004,0.308-0.029,0.376-0.049c0.067-0.019,0.116-0.043,0.258-0.043c0.173,0,0.268,0.083,0.306,0.188
			c-0.088-0.015-0.177-0.025-0.267-0.027v-0.068c0-0.029-0.062-0.043-0.112-0.039c-0.092,0.009-0.084,0.057-0.084,0.057l0.001,0.049
			c-1.209,0.051-2.176,1.05-2.176,2.271c0,1.234,0.991,2.241,2.219,2.27c0.01,0.543,0.008,0.541,0.008,0.556
			c0,0.02-0.003,0.072,0.042,0.072s0.042-0.066,0.042-0.066l0.004-0.562c0.065-0.002,0.129-0.006,0.192-0.013
			c-0.007,0.163-0.058,0.265-0.125,0.374c-0.027,0.048-0.023,0.061-0.023,0.061c0.177-0.157,0.235-0.314,0.244-0.444
			c1.095-0.163,1.938-1.108,1.938-2.246C13.277,14.995,12.597,14.13,11.667,13.844 M10.602,13.458
			c-0.044,0.005-0.125-0.002-0.125-0.002s0.074-0.043,0.116-0.053C10.651,13.392,10.663,13.45,10.602,13.458 M13.178,15.969h-0.967
			c-0.005-0.263-0.043-0.517-0.113-0.758c0.273-0.074,0.533-0.178,0.772-0.309C13.057,15.214,13.17,15.58,13.178,15.969
			 M12.818,14.819c-0.232,0.127-0.483,0.226-0.748,0.299c-0.072-0.216-0.167-0.418-0.286-0.604c0.207-0.043,0.407-0.103,0.595-0.18
			C12.549,14.472,12.696,14.636,12.818,14.819 M11.665,13.947c0.226,0.072,0.436,0.18,0.624,0.317
			c-0.18,0.067-0.367,0.125-0.562,0.163c-0.047-0.069-0.101-0.133-0.153-0.196C11.626,14.142,11.657,14.045,11.665,13.947
			 M11.516,14.313c0.035,0.043,0.07,0.088,0.104,0.133c-0.105,0.017-0.212,0.03-0.319,0.04c0.022-0.015,0.046-0.029,0.07-0.043
			C11.429,14.404,11.478,14.361,11.516,14.313 M11.392,13.879c0.002,0.05-0.006,0.1-0.023,0.142
			c-0.066-0.061-0.135-0.119-0.208-0.171C11.239,13.856,11.316,13.866,11.392,13.879 M11.104,13.933
			c0.074,0.053,0.144,0.11,0.211,0.171c-0.048,0.051-0.129,0.116-0.211,0.175V13.933z M11.101,14.61
			c0.008-0.007,0.017-0.013,0.026-0.019c0.187-0.006,0.373-0.024,0.554-0.057c0.122,0.185,0.222,0.389,0.293,0.609
			c-0.282,0.068-0.579,0.106-0.883,0.111L11.101,14.61z M10.929,15.353c0.014,0.016,0.058,0.057,0.159,0.137l0.002-0.137
			c0.314-0.006,0.622-0.043,0.914-0.116c0.066,0.231,0.104,0.479,0.109,0.732H11.5c-0.038-0.091-0.101-0.161-0.177-0.222
			c-0.11-0.09-0.332-0.263-0.395-0.311c-0.029-0.022-0.06-0.052-0.089-0.085C10.87,15.352,10.899,15.353,10.929,15.353
			 M10.624,17.39c0.002,0.023,0.008,0.046,0.014,0.068c-0.104,0.011-0.206,0.023-0.306,0.044c-0.123-0.188-0.223-0.392-0.295-0.609
			c0.271-0.066,0.554-0.104,0.846-0.11c-0.011,0.01-0.021,0.021-0.03,0.031C10.691,16.995,10.598,17.157,10.624,17.39
			 M10.008,16.798c-0.068-0.232-0.105-0.479-0.11-0.732h1.042l0.004,0.617C10.62,16.687,10.306,16.727,10.008,16.798 M10.914,17.071
			c0.007-0.007,0.02-0.02,0.032-0.032l0.003,0.402c-0.048,0.001-0.098,0.002-0.145,0.006c-0.003-0.014-0.006-0.024-0.006-0.038
			C10.783,17.218,10.875,17.116,10.914,17.071 M10.938,15.869l0.002,0.101H9.898c0.004-0.253,0.042-0.5,0.109-0.732
			c0.161,0.04,0.325,0.069,0.493,0.089c0.116,0.267,0.394,0.445,0.605,0.602c0.019,0.014,0.035,0.027,0.051,0.042h-0.081
			C11.059,15.957,11.025,15.935,10.938,15.869 M10.465,15.222c-0.146-0.019-0.29-0.044-0.429-0.078
			c0.072-0.219,0.172-0.424,0.293-0.609c0.11,0.019,0.222,0.034,0.335,0.045c-0.108,0.104-0.217,0.262-0.217,0.488
			C10.447,15.123,10.453,15.174,10.465,15.222 M11.239,16.066c0.103,0.161,0.028,0.31-0.032,0.382
			c-0.036,0.044-0.083,0.094-0.133,0.142l0.007-0.524H11.239z M11.069,16.917c0.046-0.043,0.096-0.091,0.143-0.134
			c0.263,0.013,0.517,0.049,0.762,0.109c-0.072,0.218-0.172,0.424-0.294,0.609c-0.202-0.038-0.41-0.058-0.618-0.062L11.069,16.917z
			 M11.312,16.692c0.142-0.142,0.23-0.307,0.23-0.506c0-0.044-0.004-0.083-0.013-0.12h0.584c-0.005,0.253-0.043,0.5-0.11,0.732
			C11.781,16.743,11.549,16.709,11.312,16.692 M10.922,15.256c-0.05-0.002-0.1-0.002-0.148-0.005
			c-0.024-0.048-0.04-0.104-0.04-0.167c0-0.182,0.095-0.274,0.185-0.35L10.922,15.256z M10.912,13.93l0.006,0.475
			c-0.021,0.012-0.036,0.021-0.047,0.026c-0.018,0.012-0.054,0.028-0.095,0.059c-0.131-0.01-0.26-0.022-0.386-0.043
			C10.536,14.245,10.713,14.071,10.912,13.93 M10.852,13.85c-0.22,0.156-0.411,0.352-0.568,0.578
			c-0.195-0.038-0.382-0.093-0.562-0.163C10.042,14.027,10.431,13.879,10.852,13.85 M9.631,14.334
			c0.189,0.077,0.389,0.137,0.596,0.18c-0.119,0.185-0.214,0.387-0.286,0.604c-0.265-0.071-0.517-0.172-0.749-0.299
			C9.314,14.636,9.462,14.472,9.631,14.334 M9.141,14.902c0.238,0.131,0.499,0.235,0.772,0.309
			c-0.069,0.242-0.108,0.496-0.113,0.758H8.833C8.841,15.58,8.953,15.214,9.141,14.902 M8.833,16.066h0.967
			c0.005,0.263,0.044,0.518,0.113,0.758c-0.273,0.074-0.533,0.178-0.772,0.309C8.953,16.818,8.841,16.456,8.833,16.066
			 M9.193,17.216c0.232-0.126,0.483-0.225,0.749-0.3c0.07,0.217,0.167,0.419,0.285,0.604c-0.207,0.043-0.406,0.103-0.594,0.18
			C9.462,17.563,9.315,17.398,9.193,17.216 M9.723,17.771c0.18-0.066,0.368-0.123,0.562-0.162c0.156,0.225,0.347,0.421,0.567,0.576
			C10.431,18.155,10.043,18.006,9.723,17.771 M10.947,17.901c0.001,0.085,0.002,0.162,0.004,0.232
			c-0.216-0.147-0.405-0.329-0.56-0.544c0.092-0.016,0.185-0.027,0.278-0.035c0.07,0.147,0.203,0.229,0.299,0.299
			c0.035,0.024,0.136,0.097,0.207,0.197c-0.04,0.032-0.082,0.061-0.123,0.089l0.001-0.155L10.947,17.901z M11.161,18.185
			c0.02-0.016,0.04-0.031,0.06-0.049c0.005,0.014,0.009,0.026,0.014,0.04C11.208,18.181,11.184,18.183,11.161,18.185 M10.979,17.691
			c-0.029-0.026-0.093-0.076-0.137-0.149c0.036-0.002,0.071-0.002,0.106-0.002l0.001,0.062c0.036,0.041,0.109,0.101,0.109,0.101
			l0.002-0.16c0.189,0.002,0.376,0.019,0.558,0.05c-0.102,0.141-0.221,0.268-0.35,0.381C11.193,17.847,11.048,17.756,10.979,17.691
			 M11.336,18.165c-0.006-0.036-0.014-0.069-0.022-0.1c0.155-0.133,0.295-0.285,0.415-0.458c0.193,0.039,0.383,0.095,0.561,0.162
			C12.013,17.973,11.688,18.111,11.336,18.165 M12.378,17.7c-0.188-0.075-0.387-0.137-0.594-0.18
			c0.119-0.186,0.214-0.388,0.286-0.604c0.264,0.074,0.515,0.174,0.747,0.3C12.696,17.398,12.549,17.563,12.378,17.7 M12.871,17.135
			c-0.24-0.133-0.5-0.234-0.772-0.31c0.07-0.24,0.108-0.497,0.113-0.758h0.967C13.17,16.456,13.057,16.818,12.871,17.135"/>
		<polygon fill="#005E83" points="15.115,16.024 16.696,16.024 17.43,18.459 18.151,16.024 19.732,16.024 19.732,20.029 
			18.578,20.029 18.567,17.617 17.88,20.029 16.969,20.029 16.27,17.617 16.27,20.029 15.115,20.029 		"/>
		<path fill="#005E83" d="M23.873,18.473c0,1.108-0.623,1.638-1.892,1.638s-1.896-0.53-1.896-1.638v-2.449h1.278V18.2
			c0,0.407,0,0.916,0.623,0.916c0.604,0,0.604-0.509,0.604-0.916v-2.176h1.281V18.473z"/>
		<rect x="13.929" y="16.024" fill="#005992" width="0.333" height="4.005"/>
		<rect x="13.424" y="16.024" fill="#005992" width="0.333" height="4.005"/>
		<rect x="14.435" y="16.024" fill="#005992" width="0.332" height="4.005"/>
		<rect x="13.929" y="16.024" fill="#005E83" width="0.333" height="4.005"/>
		<rect x="13.424" y="16.024" fill="#005E83" width="0.333" height="4.005"/>
		<rect x="14.435" y="16.024" fill="#005E83" width="0.332" height="4.005"/>
	</g>
</g>
</svg>
