<?xml version="1.0" encoding="utf-8"?>
<!-- Generator: Adobe Illustrator 13.0.0, SVG Export Plug-In . SVG Version: 6.00 Build 14948)  -->
<!DOCTYPE svg PUBLIC "-//W3C//DTD SVG 1.1//EN" "http://www.w3.org/Graphics/SVG/1.1/DTD/svg11.dtd">
<svg version="1.1" id="Layer_1" xmlns="http://www.w3.org/2000/svg" xmlns:xlink="http://www.w3.org/1999/xlink" x="0px" y="0px"
	 width="32px" height="32px" viewBox="0 0 32 32" enable-background="new 0 0 32 32" xml:space="preserve">
<g>
	<circle fill="#F48120" cx="15.5" cy="15.479" r="15.5"/>
</g>
<g>
	
		<rect x="3.86" y="9.131" transform="matrix(0.7071 -0.7071 0.7071 0.7071 -7.1853 9.8924)" fill="#7AAEDD" width="8.977" height="8.978"/>
	<g>
		<path fill="#FFFFFF" d="M8.159,9.133c0.103,0.016,0.202,0.049,0.234,0.055c0.086,0.016,0.196,0,0.196,0s0.015-0.414,0.015-0.477
			c0-0.062,0.024-0.241-0.242-0.241c-0.266,0-0.234,0.234-0.234,0.234L8.159,9.133z M9.437,10.061
			C9.424,9.754,9.266,9.533,9.095,9.422C8.833,9.254,8.573,9.281,8.49,9.274C8.437,9.269,8.337,9.25,8.22,9.218
			C8.12,9.192,8.002,9.19,7.831,9.196C7.604,9.205,7.502,9.322,7.424,9.344C7.348,9.368,7.058,9.398,6.971,9.392
			C6.87,9.383,6.828,9.416,6.839,9.47c0.015,0.07,0.336,0.18,0.336,0.18S7.173,9.65,7.172,9.652C7.105,9.657,7.046,9.679,6.963,9.71
			L6.875,9.745C6.812,9.768,6.671,9.768,6.621,9.766c-0.017,0-0.031,0.014-0.032,0.031c0,0.017,0.013,0.031,0.03,0.032
			c0.008,0,0.191,0.007,0.277-0.025L6.987,9.77C7.04,9.749,7.081,9.733,7.12,9.723c-0.01,0.016-0.023,0.036-0.039,0.058
			c-0.07,0.11,0.038,0.078,0.038,0.078c0.065-0.062,0.205-0.054,0.338-0.061c0.132-0.008,0.49-0.047,0.6-0.078
			c0.11-0.031,0.189-0.07,0.416-0.07c0.276,0,0.427,0.136,0.49,0.3C8.821,9.927,8.677,9.911,8.534,9.906V9.798
			c0-0.047-0.098-0.071-0.18-0.063C8.206,9.75,8.221,9.827,8.221,9.827v0.079c-1.936,0.08-3.487,1.68-3.487,3.637
			c0,1.979,1.589,3.594,3.559,3.639c0.015,0.866,0.012,0.866,0.012,0.892c0,0.031-0.005,0.12,0.068,0.12s0.069-0.108,0.069-0.108
			l0.005-0.903c0.105-0.003,0.208-0.01,0.31-0.019c-0.012,0.261-0.093,0.427-0.199,0.602c-0.046,0.071-0.04,0.092-0.04,0.092
			c0.285-0.248,0.38-0.503,0.392-0.713c1.757-0.26,3.108-1.774,3.108-3.601C12.017,11.905,10.928,10.516,9.437,10.061 M7.729,9.438
			C7.658,9.446,7.528,9.436,7.528,9.436s0.117-0.069,0.186-0.083C7.806,9.334,7.828,9.427,7.729,9.438 M11.858,13.465h-1.55
			c-0.006-0.419-0.068-0.829-0.182-1.215c0.438-0.119,0.855-0.286,1.238-0.496C11.667,12.256,11.843,12.841,11.858,13.465
			 M11.282,11.623c-0.373,0.203-0.775,0.363-1.2,0.478c-0.114-0.345-0.267-0.67-0.458-0.968c0.331-0.068,0.652-0.165,0.954-0.288
			C10.848,11.066,11.086,11.329,11.282,11.623 M9.434,10.225c0.361,0.116,0.698,0.288,0.999,0.508
			c-0.287,0.11-0.589,0.199-0.9,0.261c-0.077-0.11-0.159-0.213-0.245-0.314C9.372,10.538,9.419,10.38,9.434,10.225 M9.194,10.814
			c0.057,0.067,0.115,0.136,0.166,0.21c-0.167,0.027-0.337,0.05-0.508,0.064c0.037-0.023,0.074-0.047,0.113-0.071
			C9.056,10.957,9.131,10.888,9.194,10.814 M8.996,10.117c0.002,0.08-0.011,0.157-0.039,0.225c-0.105-0.097-0.217-0.189-0.333-0.274
			C8.75,10.077,8.873,10.095,8.996,10.117 M8.534,10.201c0.117,0.085,0.231,0.175,0.338,0.274c-0.076,0.081-0.208,0.185-0.338,0.279
			V10.201z M8.528,11.287c0.014-0.01,0.029-0.019,0.043-0.027c0.301-0.01,0.597-0.042,0.89-0.094
			c0.195,0.298,0.354,0.626,0.47,0.977c-0.453,0.11-0.928,0.169-1.417,0.18L8.528,11.287z M8.252,12.479
			c0.023,0.023,0.093,0.09,0.256,0.217l0.002-0.217c0.505-0.011,0.998-0.071,1.465-0.187c0.108,0.373,0.17,0.768,0.176,1.173H9.168
			c-0.061-0.146-0.162-0.258-0.283-0.355c-0.177-0.143-0.532-0.421-0.633-0.5c-0.047-0.037-0.097-0.082-0.143-0.136
			C8.157,12.477,8.204,12.478,8.252,12.479 M7.763,15.742c0.004,0.04,0.013,0.076,0.021,0.111c-0.165,0.016-0.329,0.039-0.492,0.068
			c-0.196-0.298-0.356-0.625-0.47-0.976c0.431-0.106,0.887-0.164,1.354-0.178c-0.018,0.018-0.035,0.037-0.048,0.053
			C7.869,15.11,7.721,15.37,7.763,15.742 M6.775,14.795c-0.108-0.373-0.17-0.768-0.177-1.174h1.673l0.006,0.987
			C7.759,14.615,7.253,14.678,6.775,14.795 M8.229,15.234c0.011-0.012,0.029-0.031,0.05-0.053l0.005,0.645
			c-0.078,0.002-0.155,0.004-0.233,0.009c-0.003-0.02-0.008-0.04-0.01-0.062C8.018,15.468,8.166,15.304,8.229,15.234 M8.268,13.306
			l0.001,0.159H6.598c0.007-0.405,0.069-0.801,0.177-1.173c0.256,0.063,0.521,0.11,0.79,0.143c0.184,0.427,0.631,0.713,0.969,0.964
			c0.03,0.023,0.057,0.044,0.083,0.066H8.486C8.461,13.444,8.407,13.412,8.268,13.306 M7.509,12.268
			c-0.234-0.03-0.464-0.071-0.688-0.125c0.115-0.351,0.275-0.68,0.471-0.977c0.177,0.032,0.355,0.057,0.536,0.073
			c-0.174,0.168-0.349,0.425-0.349,0.785C7.479,12.109,7.49,12.191,7.509,12.268 M8.75,13.621c0.164,0.258,0.045,0.498-0.054,0.613
			c-0.056,0.067-0.132,0.146-0.211,0.225l0.01-0.838H8.75z M8.478,14.985c0.074-0.07,0.153-0.145,0.23-0.214
			c0.421,0.021,0.829,0.079,1.222,0.174c-0.116,0.351-0.275,0.679-0.473,0.976c-0.324-0.058-0.656-0.091-0.99-0.096L8.478,14.985z
			 M8.867,14.625c0.226-0.226,0.369-0.49,0.369-0.813c0-0.069-0.008-0.132-0.019-0.19h0.935c-0.006,0.407-0.067,0.802-0.176,1.175
			C9.62,14.708,9.247,14.651,8.867,14.625 M8.241,12.322c-0.079-0.002-0.159-0.002-0.238-0.007
			c-0.039-0.078-0.063-0.167-0.063-0.269c0-0.292,0.152-0.44,0.298-0.563L8.241,12.322z M8.225,10.196l0.009,0.761
			C8.202,10.976,8.175,10.991,8.159,11c-0.028,0.016-0.085,0.046-0.153,0.093c-0.208-0.013-0.415-0.036-0.617-0.07
			C7.623,10.701,7.906,10.423,8.225,10.196 M8.127,10.067c-0.352,0.251-0.658,0.565-0.909,0.926
			c-0.312-0.062-0.614-0.15-0.901-0.261C6.832,10.355,7.453,10.116,8.127,10.067 M6.172,10.844c0.303,0.124,0.625,0.22,0.954,0.289
			c-0.19,0.298-0.343,0.622-0.455,0.968c-0.426-0.116-0.83-0.276-1.202-0.479C5.665,11.329,5.902,11.066,6.172,10.844 M5.385,11.754
			c0.385,0.21,0.799,0.376,1.239,0.496c-0.112,0.386-0.174,0.795-0.182,1.215h-1.55C4.906,12.841,5.084,12.256,5.385,11.754
			 M4.892,13.621h1.55c0.008,0.42,0.07,0.829,0.182,1.216c-0.439,0.121-0.854,0.286-1.238,0.495
			C5.084,14.831,4.906,14.245,4.892,13.621 M5.469,15.464c0.372-0.203,0.776-0.362,1.202-0.479c0.112,0.346,0.266,0.671,0.455,0.969
			c-0.329,0.068-0.65,0.165-0.952,0.288C5.903,16.02,5.665,15.758,5.469,15.464 M6.318,16.354c0.287-0.11,0.589-0.198,0.901-0.26
			c0.251,0.361,0.557,0.675,0.909,0.924C7.454,16.97,6.833,16.73,6.318,16.354 M8.281,16.561c0.003,0.137,0.007,0.261,0.008,0.372
			c-0.345-0.233-0.649-0.526-0.897-0.87c0.147-0.025,0.296-0.043,0.447-0.057c0.112,0.237,0.323,0.369,0.477,0.48
			c0.058,0.042,0.222,0.154,0.333,0.315c-0.064,0.051-0.132,0.098-0.199,0.141l0.003-0.247L8.281,16.561z M8.624,17.018
			c0.034-0.023,0.064-0.052,0.098-0.076c0.007,0.021,0.015,0.042,0.019,0.063C8.702,17.01,8.663,17.014,8.624,17.018 M8.331,16.226
			c-0.046-0.042-0.148-0.122-0.218-0.239c0.057-0.003,0.115-0.003,0.173-0.005l0.001,0.098c0.056,0.068,0.175,0.159,0.175,0.159
			l0.002-0.257c0.303,0.005,0.604,0.033,0.896,0.082c-0.164,0.227-0.354,0.43-0.562,0.611C8.676,16.475,8.445,16.329,8.331,16.226
			 M8.904,16.986c-0.007-0.06-0.02-0.114-0.036-0.16c0.25-0.212,0.473-0.459,0.662-0.732c0.313,0.062,0.614,0.15,0.901,0.26
			C9.99,16.677,9.47,16.899,8.904,16.986 M10.576,16.243c-0.301-0.123-0.622-0.22-0.952-0.288c0.19-0.297,0.344-0.623,0.458-0.968
			c0.425,0.116,0.826,0.275,1.198,0.478C11.085,15.758,10.848,16.02,10.576,16.243 M11.364,15.332
			c-0.383-0.209-0.799-0.375-1.238-0.495c0.114-0.387,0.177-0.795,0.183-1.216h1.55C11.843,14.245,11.667,14.831,11.364,15.332"/>
		<polygon fill="#005E83" points="14.964,13.552 17.498,13.552 18.674,17.456 19.83,13.552 22.366,13.552 22.366,19.977 
			20.516,19.977 20.5,16.105 19.396,19.977 17.936,19.977 16.814,16.105 16.814,19.977 14.964,19.977 		"/>
		<path fill="#005E83" d="M29,17.481c0,1.775-0.996,2.628-3.029,2.628s-3.039-0.853-3.039-2.628v-3.929h2.053v3.49
			c0,0.653,0,1.471,0.998,1.471c0.967,0,0.967-0.817,0.967-1.471v-3.49H29V17.481z"/>
		<rect x="13.063" y="13.552" fill="#005E83" width="0.531" height="6.424"/>
		<rect x="12.252" y="13.552" fill="#005E83" width="0.534" height="6.424"/>
		<rect x="13.871" y="13.552" fill="#005E83" width="0.534" height="6.424"/>
	</g>
</g>
</svg>
