<?xml version="1.0" encoding="utf-8"?>
<!-- Generator: Adobe Illustrator 13.0.0, SVG Export Plug-In . SVG Version: 6.00 Build 14948)  -->
<!DOCTYPE svg PUBLIC "-//W3C//DTD SVG 1.1//EN" "http://www.w3.org/Graphics/SVG/1.1/DTD/svg11.dtd">
<svg version="1.1" id="Layer_1" xmlns="http://www.w3.org/2000/svg" xmlns:xlink="http://www.w3.org/1999/xlink" x="0px" y="0px"
	 width="32px" height="32px" viewBox="0 0 32 32" enable-background="new 0 0 32 32" xml:space="preserve">
<g>
	<g>
		<g>
			<circle fill="#556080" cx="15.625" cy="15.5" r="15.5"/>
		</g>
	</g>
</g>
<g>
	<path fill="#FFFFFF" d="M6.322,21.496h18.604c0.386,0,0.697-0.311,0.697-0.695V8.84c0-0.385-0.312-0.697-0.697-0.697H6.322
		c-0.385,0-0.698,0.313-0.698,0.697v11.961C5.624,21.186,5.938,21.496,6.322,21.496z M6.222,8.84c0-0.056,0.045-0.1,0.101-0.1
		h18.604c0.056,0,0.101,0.044,0.101,0.1v11.961c0,0.053-0.045,0.098-0.101,0.098H6.322c-0.056,0-0.101-0.045-0.101-0.098V8.84z
		 M27.125,22.031v0.559c0,0.146-0.121,0.268-0.269,0.268H4.393c-0.148,0-0.268-0.121-0.268-0.268v-0.559h9.445
		c0.047,0.154,0.189,0.27,0.36,0.27h3.388c0.171,0,0.313-0.115,0.359-0.27H27.125z"/>
</g>
</svg>
