<?xml version="1.0" encoding="utf-8"?>
<!-- Generator: Adobe Illustrator 13.0.0, SVG Export Plug-In . SVG Version: 6.00 Build 14948)  -->
<!DOCTYPE svg PUBLIC "-//W3C//DTD SVG 1.1//EN" "http://www.w3.org/Graphics/SVG/1.1/DTD/svg11.dtd">
<svg version="1.1" id="Layer_1" xmlns="http://www.w3.org/2000/svg" xmlns:xlink="http://www.w3.org/1999/xlink" x="0px" y="0px"
	 width="32px" height="32px" viewBox="0 0 32 32" enable-background="new 0 0 32 32" xml:space="preserve">
<g>
	<g>
		<g>
			<circle fill="#556080" cx="15.584" cy="15.5" r="15.5"/>
		</g>
	</g>
</g>
<g>
	<g>
		<path fill="#FFFFFF" d="M21.083,17.701v-4.4c0-0.205-0.162-0.366-0.366-0.366c-0.207,0-0.368,0.161-0.368,0.366v4.4
			c0,2.626-2.141,4.766-4.766,4.766s-4.767-2.14-4.767-4.766v-4.4c0-0.205-0.161-0.366-0.367-0.366
			c-0.205,0-0.366,0.161-0.366,0.366v4.4c0,2.911,2.273,5.293,5.134,5.485V25.4h-3.301c-0.205,0-0.367,0.161-0.367,0.366
			c0,0.206,0.162,0.367,0.367,0.367h7.334c0.205,0,0.366-0.161,0.366-0.367c0-0.205-0.161-0.366-0.366-0.366h-3.3v-2.214
			C18.81,22.994,21.083,20.604,21.083,17.701z"/>
		<path fill="#FFFFFF" d="M15.583,21.001c1.819,0,3.301-1.481,3.301-3.3V8.167c0-1.818-1.481-3.3-3.301-3.3
			c-1.818,0-3.301,1.481-3.301,3.3v9.534C12.282,19.52,13.765,21.001,15.583,21.001z M13.018,8.167c0-1.414,1.15-2.566,2.565-2.566
			c1.414,0,2.566,1.152,2.566,2.566v9.534c0,1.414-1.152,2.565-2.566,2.565c-1.415,0-2.565-1.151-2.565-2.565V8.167z"/>
		<path fill="#FFFFFF" d="M13.918,13.235c0.104,0,0.184-0.081,0.184-0.184v-4.4c0-0.975,0.791-1.774,1.774-1.774
			c0.104,0,0.183-0.08,0.183-0.184c0-0.103-0.079-0.183-0.183-0.183c-1.182,0-2.142,0.96-2.142,2.141v4.4
			C13.734,13.154,13.816,13.235,13.918,13.235z"/>
	</g>
</g>
</svg>
