<?xml version="1.0" encoding="utf-8"?>
<!-- Generator: Adobe Illustrator 13.0.0, SVG Export Plug-In . SVG Version: 6.00 Build 14948)  -->
<!DOCTYPE svg PUBLIC "-//W3C//DTD SVG 1.1//EN" "http://www.w3.org/Graphics/SVG/1.1/DTD/svg11.dtd">
<svg version="1.1" id="Layer_1" xmlns="http://www.w3.org/2000/svg" xmlns:xlink="http://www.w3.org/1999/xlink" x="0px" y="0px"
	 width="32px" height="32px" viewBox="0 0 32 32" enable-background="new 0 0 32 32" xml:space="preserve">
<g>
	<circle fill="#FFD05B" cx="15.521" cy="15.49" r="15.5"/>
	<g>
		<path fill="#434C6D" d="M16.269,18.379c0.167,0,0.303-0.138,0.303-0.305c0-0.168-0.136-0.303-0.303-0.303H6.672
			c-0.023,0-0.045-0.021-0.045-0.045V6.642c0-0.024,0.022-0.046,0.045-0.046h14.624c0.024,0,0.046,0.022,0.046,0.046v5.335
			c0,0.168,0.137,0.304,0.305,0.304c0.166,0,0.301-0.136,0.301-0.304V6.642c0-0.36-0.289-0.652-0.65-0.652H6.672
			c-0.359,0-0.651,0.292-0.651,0.652v11.084c0,0.359,0.292,0.652,0.651,0.652h5.465v1.829H9.806c-0.167,0-0.303,0.138-0.303,0.306
			s0.136,0.303,0.303,0.303h6.463c0.167,0,0.303-0.135,0.303-0.303s-0.136-0.306-0.303-0.306h-0.438v-1.829H16.269L16.269,18.379z
			 M15.225,20.208h-2.481v-1.829h2.481V20.208z"/>
		<path fill="#434C6D" d="M16.269,15.716H7.536c-0.167,0-0.303,0.136-0.303,0.304c0,0.167,0.135,0.303,0.303,0.303h8.732
			c0.167,0,0.304-0.136,0.304-0.303C16.572,15.852,16.436,15.716,16.269,15.716z"/>
		<path fill="#434C6D" d="M24.369,12.887h-6.541c-0.357,0-0.65,0.292-0.65,0.652v10.799c0,0.359,0.293,0.652,0.65,0.652h6.541
			c0.357,0,0.65-0.293,0.65-0.652V13.539C25.021,13.179,24.729,12.887,24.369,12.887z M17.784,14.707h6.629v7.251h-6.629V14.707z
			 M17.828,13.493h6.541c0.023,0,0.044,0.021,0.044,0.046V14.1h-6.629v-0.561C17.784,13.514,17.807,13.493,17.828,13.493z
			 M24.369,24.383h-6.541c-0.021,0-0.044-0.021-0.044-0.045v-1.773h6.629v1.773C24.413,24.361,24.395,24.383,24.369,24.383z"/>
		<path fill="#434C6D" d="M21.705,23.171h-1.212c-0.168,0-0.304,0.136-0.304,0.302c0,0.168,0.136,0.305,0.304,0.305h1.212
			c0.168,0,0.305-0.137,0.305-0.305C22.01,23.307,21.873,23.171,21.705,23.171z"/>
	</g>
</g>
</svg>
